%TF.GenerationSoftware,KiCad,Pcbnew,8.0.2*%
%TF.CreationDate,2024-06-01T19:49:29+09:00*%
%TF.ProjectId,esp8266writer,65737038-3236-4367-9772-697465722e6b,rev?*%
%TF.SameCoordinates,Original*%
%TF.FileFunction,Copper,L2,Bot*%
%TF.FilePolarity,Positive*%
%FSLAX46Y46*%
G04 Gerber Fmt 4.6, Leading zero omitted, Abs format (unit mm)*
G04 Created by KiCad (PCBNEW 8.0.2) date 2024-06-01 19:49:29*
%MOMM*%
%LPD*%
G01*
G04 APERTURE LIST*
%TA.AperFunction,ComponentPad*%
%ADD10O,2.000000X1.200000*%
%TD*%
%TA.AperFunction,ComponentPad*%
%ADD11O,2.400000X1.200000*%
%TD*%
%TA.AperFunction,ComponentPad*%
%ADD12R,1.700000X1.700000*%
%TD*%
%TA.AperFunction,ComponentPad*%
%ADD13O,1.700000X1.700000*%
%TD*%
%TA.AperFunction,ViaPad*%
%ADD14C,0.500000*%
%TD*%
%TA.AperFunction,Conductor*%
%ADD15C,0.500000*%
%TD*%
%TA.AperFunction,Conductor*%
%ADD16C,0.300000*%
%TD*%
%TA.AperFunction,Conductor*%
%ADD17C,0.127000*%
%TD*%
%TA.AperFunction,Conductor*%
%ADD18C,0.200000*%
%TD*%
G04 APERTURE END LIST*
D10*
%TO.P,J1,S1,SHIELD*%
%TO.N,GND*%
X81050000Y-70680000D03*
D11*
X77050000Y-70680000D03*
D10*
X81050000Y-79318000D03*
D11*
X77050000Y-79320000D03*
%TD*%
D12*
%TO.P,J2,1,Pin_1*%
%TO.N,+3V3*%
X122000000Y-68650000D03*
D13*
%TO.P,J2,2,Pin_2*%
%TO.N,/ESP_TX*%
X122000000Y-71190000D03*
%TO.P,J2,3,Pin_3*%
%TO.N,/ESP_RX*%
X122000000Y-73730000D03*
%TO.P,J2,4,Pin_4*%
%TO.N,/IO0*%
X122000000Y-76270000D03*
%TO.P,J2,5,Pin_5*%
%TO.N,/RESET*%
X122000000Y-78810000D03*
%TO.P,J2,6,Pin_6*%
%TO.N,GND*%
X122000000Y-81350000D03*
%TD*%
D14*
%TO.N,GND*%
X112625000Y-59685000D03*
X102465000Y-95245000D03*
X87225000Y-59685000D03*
X94845000Y-62225000D03*
X79605000Y-64765000D03*
X117705000Y-85085000D03*
X84685000Y-92705000D03*
X115165000Y-62225000D03*
X97385000Y-90165000D03*
X112625000Y-62225000D03*
X97385000Y-87625000D03*
X94845000Y-87625000D03*
X120245000Y-67305000D03*
X97385000Y-52065000D03*
X94845000Y-52065000D03*
X105005000Y-52065000D03*
X82145000Y-97785000D03*
X122785000Y-59685000D03*
X87225000Y-64765000D03*
X82145000Y-82545000D03*
X110085000Y-57145000D03*
X82145000Y-90165000D03*
X115165000Y-54605000D03*
X77065000Y-90165000D03*
X94845000Y-92705000D03*
X117705000Y-90165000D03*
X115165000Y-52065000D03*
X94845000Y-90165000D03*
X110085000Y-80005000D03*
X89765000Y-59685000D03*
X110085000Y-90165000D03*
X89765000Y-95245000D03*
X77065000Y-82545000D03*
X105005000Y-80005000D03*
X87225000Y-52065000D03*
X107545000Y-87625000D03*
X84685000Y-62225000D03*
X77065000Y-59685000D03*
X89765000Y-92705000D03*
X92305000Y-95245000D03*
X120245000Y-59685000D03*
X102465000Y-59685000D03*
X82145000Y-85085000D03*
X105005000Y-97785000D03*
X115165000Y-85085000D03*
X105005000Y-87625000D03*
X122785000Y-87625000D03*
X92305000Y-59685000D03*
X115165000Y-69845000D03*
X105005000Y-90165000D03*
X77065000Y-87625000D03*
X89765000Y-54605000D03*
X122785000Y-90165000D03*
X107545000Y-90165000D03*
X122785000Y-57145000D03*
X107545000Y-54605000D03*
X105005000Y-59685000D03*
X105005000Y-74925000D03*
X99925000Y-62225000D03*
X105005000Y-95245000D03*
X82145000Y-57145000D03*
X117705000Y-95245000D03*
X82145000Y-95245000D03*
X107545000Y-97785000D03*
X99925000Y-54605000D03*
X107545000Y-52065000D03*
X82145000Y-87625000D03*
X117705000Y-92705000D03*
X102465000Y-97785000D03*
X122785000Y-85085000D03*
X112625000Y-95245000D03*
X102465000Y-52065000D03*
X117705000Y-97785000D03*
X94845000Y-59685000D03*
X117705000Y-57145000D03*
X110085000Y-97785000D03*
X102465000Y-67305000D03*
X92305000Y-57145000D03*
X107545000Y-62225000D03*
X77065000Y-92705000D03*
X87225000Y-62225000D03*
X94845000Y-97785000D03*
X102465000Y-62225000D03*
X92305000Y-54605000D03*
X112625000Y-67305000D03*
X112625000Y-52065000D03*
X92305000Y-92705000D03*
X120245000Y-69845000D03*
X99925000Y-95245000D03*
X79605000Y-87625000D03*
X79605000Y-90165000D03*
X87225000Y-54605000D03*
X115165000Y-87625000D03*
X79605000Y-92705000D03*
X110085000Y-87625000D03*
X117705000Y-54605000D03*
X120245000Y-90165000D03*
X82145000Y-62225000D03*
X117705000Y-87625000D03*
X105005000Y-54605000D03*
X117705000Y-67305000D03*
X92305000Y-87625000D03*
X94845000Y-95245000D03*
X92305000Y-90165000D03*
X94900000Y-74600000D03*
X87225000Y-82545000D03*
X112625000Y-87625000D03*
X89700000Y-79100000D03*
X89765000Y-87625000D03*
X120245000Y-57145000D03*
X102465000Y-54605000D03*
X110085000Y-67305000D03*
X77065000Y-67305000D03*
X84685000Y-57145000D03*
X102465000Y-57145000D03*
X79605000Y-57145000D03*
X107545000Y-95245000D03*
X99925000Y-92705000D03*
X89765000Y-62225000D03*
X120245000Y-64765000D03*
X110085000Y-95245000D03*
X117705000Y-59685000D03*
X105005000Y-92705000D03*
X112625000Y-97785000D03*
X82145000Y-59685000D03*
X82145000Y-52065000D03*
X79605000Y-82545000D03*
X120245000Y-85085000D03*
X87225000Y-95245000D03*
X79605000Y-59685000D03*
X77065000Y-57145000D03*
X89765000Y-72385000D03*
X84685000Y-90165000D03*
X79605000Y-67305000D03*
X112625000Y-54605000D03*
X110085000Y-52065000D03*
X84685000Y-52065000D03*
X99925000Y-57145000D03*
X87225000Y-90165000D03*
X110085000Y-92705000D03*
X97385000Y-97785000D03*
X115165000Y-95245000D03*
X120245000Y-92705000D03*
X94700000Y-63500000D03*
X120245000Y-82545000D03*
X92305000Y-52065000D03*
X102465000Y-64765000D03*
X77065000Y-64765000D03*
X107545000Y-92705000D03*
X117705000Y-52065000D03*
X77065000Y-85085000D03*
X107545000Y-59685000D03*
X94845000Y-54605000D03*
X82145000Y-67305000D03*
X112625000Y-92705000D03*
X122785000Y-62225000D03*
X107545000Y-57145000D03*
X89765000Y-52065000D03*
X82145000Y-64765000D03*
X82145000Y-54605000D03*
X117705000Y-69845000D03*
X94845000Y-57145000D03*
X115165000Y-59685000D03*
X112625000Y-57145000D03*
X97385000Y-59685000D03*
X115165000Y-90165000D03*
X115165000Y-57145000D03*
X99925000Y-52065000D03*
X97385000Y-92705000D03*
X97385000Y-57145000D03*
X99925000Y-97785000D03*
X97385000Y-54605000D03*
X97385000Y-95245000D03*
X120245000Y-80005000D03*
X102465000Y-92705000D03*
X110085000Y-62225000D03*
X102465000Y-87625000D03*
X122785000Y-92705000D03*
X105005000Y-64765000D03*
X92305000Y-97785000D03*
X110085000Y-64765000D03*
X112625000Y-90165000D03*
X115165000Y-92705000D03*
X112625000Y-69845000D03*
X87225000Y-57145000D03*
X97385000Y-62225000D03*
X102465000Y-90165000D03*
X110085000Y-54605000D03*
X79605000Y-74925000D03*
X87225000Y-92705000D03*
X87225000Y-97785000D03*
X89765000Y-90165000D03*
X110085000Y-59685000D03*
X112625000Y-64765000D03*
X84685000Y-64765000D03*
X79605000Y-85085000D03*
X105005000Y-57145000D03*
X107545000Y-64765000D03*
X88900000Y-84500000D03*
X105005000Y-62225000D03*
X84685000Y-95245000D03*
X115165000Y-67305000D03*
X99925000Y-87625000D03*
X122785000Y-64765000D03*
X115165000Y-64765000D03*
X77065000Y-62225000D03*
X82145000Y-92705000D03*
X99925000Y-59685000D03*
X87225000Y-87625000D03*
X117705000Y-62225000D03*
X89765000Y-57145000D03*
X117705000Y-64765000D03*
X115165000Y-77465000D03*
X84685000Y-87625000D03*
X99925000Y-90165000D03*
X79605000Y-62225000D03*
X89765000Y-97785000D03*
X92305000Y-69845000D03*
X84685000Y-59685000D03*
X115165000Y-97785000D03*
X120245000Y-77465000D03*
X92305000Y-72385000D03*
X112625000Y-85085000D03*
X84685000Y-54605000D03*
X84685000Y-97785000D03*
X120245000Y-87625000D03*
X120245000Y-62225000D03*
X100750000Y-69200000D03*
X112625000Y-77465000D03*
%TO.N,+3V3*%
X88300000Y-76300000D03*
X94750000Y-81850000D03*
%TO.N,/RESET*%
X114600000Y-79500000D03*
%TO.N,+5V*%
X85850000Y-77250000D03*
X86950000Y-72750000D03*
X87200000Y-75900000D03*
X89250000Y-70450000D03*
X87200000Y-75900000D03*
%TO.N,/D-*%
X84600000Y-75300000D03*
X83300000Y-74200000D03*
%TO.N,Net-(J1-CC1)*%
X84300000Y-73500000D03*
X84600000Y-68000000D03*
%TO.N,Net-(J1-CC2)*%
X83700000Y-76600000D03*
X85900000Y-78200000D03*
%TO.N,/ESP_RX*%
X97300000Y-71700000D03*
%TO.N,/ESP_TX*%
X96100000Y-71400000D03*
%TO.N,/IO0*%
X114800000Y-75300000D03*
%TO.N,/DTR*%
X95600000Y-70000000D03*
X110200000Y-73600000D03*
X110200000Y-70000000D03*
X109900000Y-77300000D03*
%TO.N,/RTS*%
X97500000Y-72600000D03*
X104800000Y-77400000D03*
%TD*%
D15*
%TO.N,GND*%
X94900000Y-63700000D02*
X94700000Y-63500000D01*
X89700000Y-79100000D02*
X88900000Y-79900000D01*
X94900000Y-69200000D02*
X94900000Y-63700000D01*
X88900000Y-79900000D02*
X88900000Y-84500000D01*
X94900000Y-69200000D02*
X100750000Y-69200000D01*
D16*
X77050000Y-70680000D02*
X77050000Y-79320000D01*
D15*
X94900000Y-74600000D02*
X94900000Y-69200000D01*
%TO.N,+3V3*%
X90700000Y-77800000D02*
X90600000Y-77700000D01*
X88300000Y-76800000D02*
X88300000Y-76300000D01*
X90600000Y-77700000D02*
X89200000Y-77700000D01*
X89200000Y-77700000D02*
X88300000Y-76800000D01*
X94750000Y-81850000D02*
X90700000Y-77800000D01*
D17*
%TO.N,/RESET*%
X114600000Y-79500000D02*
X115290000Y-78810000D01*
X115290000Y-78810000D02*
X122000000Y-78810000D01*
D15*
%TO.N,+5V*%
X87200000Y-75900000D02*
X85850000Y-77250000D01*
X87200000Y-75900000D02*
X87200000Y-73000000D01*
X87200000Y-73000000D02*
X86950000Y-72750000D01*
D18*
%TO.N,/D-*%
X83500000Y-74200000D02*
X84600000Y-75300000D01*
X83300000Y-74200000D02*
X83500000Y-74200000D01*
D17*
%TO.N,Net-(J1-CC1)*%
X84600000Y-68000000D02*
X86400000Y-69800000D01*
X84300000Y-73500000D02*
X86400000Y-71400000D01*
X86400000Y-69800000D02*
X86400000Y-71300000D01*
X86400000Y-71400000D02*
X86400000Y-71300000D01*
%TO.N,Net-(J1-CC2)*%
X84300000Y-76600000D02*
X83700000Y-76600000D01*
X85900000Y-78200000D02*
X84300000Y-76600000D01*
%TO.N,/ESP_RX*%
X97300000Y-71700000D02*
X119970000Y-71700000D01*
X119970000Y-71700000D02*
X122000000Y-73730000D01*
%TO.N,/ESP_TX*%
X96310000Y-71190000D02*
X122000000Y-71190000D01*
X96100000Y-71400000D02*
X96310000Y-71190000D01*
%TO.N,/IO0*%
X114800000Y-75300000D02*
X121030000Y-75300000D01*
X121030000Y-75300000D02*
X122000000Y-76270000D01*
%TO.N,/DTR*%
X110200000Y-73600000D02*
X110200000Y-77000000D01*
X95600000Y-70000000D02*
X110200000Y-70000000D01*
X110200000Y-77000000D02*
X109900000Y-77300000D01*
%TO.N,/RTS*%
X104800000Y-77400000D02*
X102700000Y-77400000D01*
X100700000Y-75400000D02*
X97900000Y-72600000D01*
X102700000Y-77400000D02*
X100700000Y-75400000D01*
X97900000Y-72600000D02*
X97500000Y-72600000D01*
%TD*%
%TA.AperFunction,Conductor*%
%TO.N,GND*%
G36*
X124642539Y-50320185D02*
G01*
X124688294Y-50372989D01*
X124699500Y-50424500D01*
X124699500Y-99575500D01*
X124679815Y-99642539D01*
X124627011Y-99688294D01*
X124575500Y-99699500D01*
X75424500Y-99699500D01*
X75357461Y-99679815D01*
X75311706Y-99627011D01*
X75300500Y-99575500D01*
X75300500Y-96878456D01*
X76145500Y-96878456D01*
X76145500Y-97121543D01*
X76145501Y-97121559D01*
X76177230Y-97362569D01*
X76240149Y-97597386D01*
X76333175Y-97821972D01*
X76333182Y-97821987D01*
X76454730Y-98032516D01*
X76602722Y-98225380D01*
X76602730Y-98225389D01*
X76774611Y-98397270D01*
X76774619Y-98397277D01*
X76967483Y-98545269D01*
X77178012Y-98666817D01*
X77178027Y-98666824D01*
X77294171Y-98714932D01*
X77402612Y-98759850D01*
X77637429Y-98822769D01*
X77878450Y-98854500D01*
X77878457Y-98854500D01*
X78121543Y-98854500D01*
X78121550Y-98854500D01*
X78362571Y-98822769D01*
X78597388Y-98759850D01*
X78821984Y-98666819D01*
X79032516Y-98545269D01*
X79225380Y-98397278D01*
X79225384Y-98397273D01*
X79225389Y-98397270D01*
X79397270Y-98225389D01*
X79397273Y-98225384D01*
X79397278Y-98225380D01*
X79545269Y-98032516D01*
X79666819Y-97821984D01*
X79759850Y-97597388D01*
X79822769Y-97362571D01*
X79854500Y-97121550D01*
X79854500Y-96878456D01*
X120145500Y-96878456D01*
X120145500Y-97121543D01*
X120145501Y-97121559D01*
X120177230Y-97362569D01*
X120240149Y-97597386D01*
X120333175Y-97821972D01*
X120333182Y-97821987D01*
X120454730Y-98032516D01*
X120602722Y-98225380D01*
X120602730Y-98225389D01*
X120774611Y-98397270D01*
X120774619Y-98397277D01*
X120967483Y-98545269D01*
X121178012Y-98666817D01*
X121178027Y-98666824D01*
X121294171Y-98714932D01*
X121402612Y-98759850D01*
X121637429Y-98822769D01*
X121878450Y-98854500D01*
X121878457Y-98854500D01*
X122121543Y-98854500D01*
X122121550Y-98854500D01*
X122362571Y-98822769D01*
X122597388Y-98759850D01*
X122821984Y-98666819D01*
X123032516Y-98545269D01*
X123225380Y-98397278D01*
X123225384Y-98397273D01*
X123225389Y-98397270D01*
X123397270Y-98225389D01*
X123397273Y-98225384D01*
X123397278Y-98225380D01*
X123545269Y-98032516D01*
X123666819Y-97821984D01*
X123759850Y-97597388D01*
X123822769Y-97362571D01*
X123854500Y-97121550D01*
X123854500Y-96878450D01*
X123822769Y-96637429D01*
X123759850Y-96402612D01*
X123666819Y-96178016D01*
X123666817Y-96178012D01*
X123545269Y-95967483D01*
X123397277Y-95774619D01*
X123397270Y-95774611D01*
X123225389Y-95602730D01*
X123225380Y-95602722D01*
X123032516Y-95454730D01*
X122821987Y-95333182D01*
X122821972Y-95333175D01*
X122597386Y-95240149D01*
X122362569Y-95177230D01*
X122121559Y-95145501D01*
X122121556Y-95145500D01*
X122121550Y-95145500D01*
X121878450Y-95145500D01*
X121878444Y-95145500D01*
X121878440Y-95145501D01*
X121637430Y-95177230D01*
X121402613Y-95240149D01*
X121178027Y-95333175D01*
X121178012Y-95333182D01*
X120967483Y-95454730D01*
X120774619Y-95602722D01*
X120602722Y-95774619D01*
X120454730Y-95967483D01*
X120333182Y-96178012D01*
X120333175Y-96178027D01*
X120240149Y-96402613D01*
X120177230Y-96637430D01*
X120145501Y-96878440D01*
X120145500Y-96878456D01*
X79854500Y-96878456D01*
X79854500Y-96878450D01*
X79822769Y-96637429D01*
X79759850Y-96402612D01*
X79666819Y-96178016D01*
X79666817Y-96178012D01*
X79545269Y-95967483D01*
X79397277Y-95774619D01*
X79397270Y-95774611D01*
X79225389Y-95602730D01*
X79225380Y-95602722D01*
X79032516Y-95454730D01*
X78821987Y-95333182D01*
X78821972Y-95333175D01*
X78597386Y-95240149D01*
X78362569Y-95177230D01*
X78121559Y-95145501D01*
X78121556Y-95145500D01*
X78121550Y-95145500D01*
X77878450Y-95145500D01*
X77878444Y-95145500D01*
X77878440Y-95145501D01*
X77637430Y-95177230D01*
X77402613Y-95240149D01*
X77178027Y-95333175D01*
X77178012Y-95333182D01*
X76967483Y-95454730D01*
X76774619Y-95602722D01*
X76602722Y-95774619D01*
X76454730Y-95967483D01*
X76333182Y-96178012D01*
X76333175Y-96178027D01*
X76240149Y-96402613D01*
X76177230Y-96637430D01*
X76145501Y-96878440D01*
X76145500Y-96878456D01*
X75300500Y-96878456D01*
X75300500Y-79990913D01*
X75320185Y-79923874D01*
X75372989Y-79878119D01*
X75442147Y-79868175D01*
X75505703Y-79897200D01*
X75524819Y-79918028D01*
X75610967Y-80036602D01*
X75733397Y-80159032D01*
X75873475Y-80260804D01*
X76027742Y-80339408D01*
X76192415Y-80392914D01*
X76363429Y-80420000D01*
X76800000Y-80420000D01*
X76800000Y-79620000D01*
X77300000Y-79620000D01*
X77300000Y-80420000D01*
X77736571Y-80420000D01*
X77907584Y-80392914D01*
X78072257Y-80339408D01*
X78226524Y-80260804D01*
X78366602Y-80159032D01*
X78489032Y-80036602D01*
X78590804Y-79896524D01*
X78669408Y-79742255D01*
X78722914Y-79577584D01*
X78724115Y-79570000D01*
X77816988Y-79570000D01*
X77834205Y-79560060D01*
X77890060Y-79504205D01*
X77929556Y-79435796D01*
X77950000Y-79359496D01*
X77950000Y-79280504D01*
X77929556Y-79204204D01*
X77890060Y-79135795D01*
X77834205Y-79079940D01*
X77816988Y-79070000D01*
X78724115Y-79070000D01*
X78724115Y-79069999D01*
X78723798Y-79067999D01*
X79575884Y-79067999D01*
X79575885Y-79068000D01*
X80483012Y-79068000D01*
X80465795Y-79077940D01*
X80409940Y-79133795D01*
X80370444Y-79202204D01*
X80350000Y-79278504D01*
X80350000Y-79357496D01*
X80370444Y-79433796D01*
X80409940Y-79502205D01*
X80465795Y-79558060D01*
X80483012Y-79568000D01*
X79575885Y-79568000D01*
X79577085Y-79575584D01*
X79630591Y-79740255D01*
X79709195Y-79894524D01*
X79810967Y-80034602D01*
X79933397Y-80157032D01*
X80073475Y-80258804D01*
X80227742Y-80337408D01*
X80392415Y-80390914D01*
X80563429Y-80418000D01*
X80800000Y-80418000D01*
X80800000Y-79618000D01*
X81300000Y-79618000D01*
X81300000Y-80418000D01*
X81536571Y-80418000D01*
X81707584Y-80390914D01*
X81872257Y-80337408D01*
X82026524Y-80258804D01*
X82166602Y-80157032D01*
X82289032Y-80034602D01*
X82390804Y-79894524D01*
X82469408Y-79740255D01*
X82522914Y-79575584D01*
X82524115Y-79568000D01*
X81616988Y-79568000D01*
X81634205Y-79558060D01*
X81690060Y-79502205D01*
X81729556Y-79433796D01*
X81750000Y-79357496D01*
X81750000Y-79278504D01*
X81729556Y-79202204D01*
X81690060Y-79133795D01*
X81634205Y-79077940D01*
X81616988Y-79068000D01*
X82524115Y-79068000D01*
X82524115Y-79067999D01*
X82522914Y-79060415D01*
X82469408Y-78895744D01*
X82390804Y-78741475D01*
X82289032Y-78601397D01*
X82166602Y-78478967D01*
X82026524Y-78377195D01*
X81872257Y-78298591D01*
X81707584Y-78245085D01*
X81536571Y-78218000D01*
X81457174Y-78218000D01*
X81390135Y-78198315D01*
X81344380Y-78145511D01*
X81334436Y-78076353D01*
X81335557Y-78069809D01*
X81358499Y-77954467D01*
X81358500Y-77954464D01*
X81358500Y-77825536D01*
X81358499Y-77825532D01*
X81333350Y-77699096D01*
X81333347Y-77699087D01*
X81284013Y-77579982D01*
X81284012Y-77579980D01*
X81212383Y-77472780D01*
X81212380Y-77472776D01*
X81121223Y-77381619D01*
X81121219Y-77381616D01*
X81014019Y-77309987D01*
X81014017Y-77309986D01*
X80894912Y-77260652D01*
X80894903Y-77260649D01*
X80768467Y-77235500D01*
X80768463Y-77235500D01*
X80639537Y-77235500D01*
X80639532Y-77235500D01*
X80513096Y-77260649D01*
X80513087Y-77260652D01*
X80393982Y-77309986D01*
X80393980Y-77309987D01*
X80286780Y-77381616D01*
X80286776Y-77381619D01*
X80195619Y-77472776D01*
X80195616Y-77472780D01*
X80123987Y-77579980D01*
X80123986Y-77579982D01*
X80074652Y-77699087D01*
X80074649Y-77699096D01*
X80049500Y-77825532D01*
X80049500Y-77954467D01*
X80074649Y-78080903D01*
X80074652Y-78080912D01*
X80123986Y-78200017D01*
X80126858Y-78205389D01*
X80124912Y-78206429D01*
X80142828Y-78263650D01*
X80124342Y-78331029D01*
X80077395Y-78374272D01*
X80077627Y-78374651D01*
X80075709Y-78375826D01*
X80075147Y-78376344D01*
X80073476Y-78377195D01*
X79933397Y-78478967D01*
X79810967Y-78601397D01*
X79709195Y-78741475D01*
X79630591Y-78895744D01*
X79577085Y-79060415D01*
X79575884Y-79067999D01*
X78723798Y-79067999D01*
X78722914Y-79062415D01*
X78669408Y-78897744D01*
X78590804Y-78743475D01*
X78489032Y-78603397D01*
X78366602Y-78480967D01*
X78226524Y-78379195D01*
X78072257Y-78300591D01*
X77907584Y-78247085D01*
X77736571Y-78220000D01*
X77300000Y-78220000D01*
X77300000Y-79020000D01*
X76800000Y-79020000D01*
X76800000Y-78220000D01*
X76363429Y-78220000D01*
X76192415Y-78247085D01*
X76027742Y-78300591D01*
X75873475Y-78379195D01*
X75733397Y-78480967D01*
X75610965Y-78603399D01*
X75610961Y-78603404D01*
X75524818Y-78721971D01*
X75469488Y-78764637D01*
X75399875Y-78770616D01*
X75338080Y-78738011D01*
X75303723Y-78677172D01*
X75300500Y-78649086D01*
X75300500Y-74199997D01*
X82544751Y-74199997D01*
X82544751Y-74200002D01*
X82563685Y-74368056D01*
X82619545Y-74527694D01*
X82619547Y-74527697D01*
X82709518Y-74670884D01*
X82709523Y-74670890D01*
X82829109Y-74790476D01*
X82829115Y-74790481D01*
X82972302Y-74880452D01*
X82972305Y-74880454D01*
X82972309Y-74880455D01*
X82972310Y-74880456D01*
X83023663Y-74898425D01*
X83131943Y-74936314D01*
X83299997Y-74955249D01*
X83299998Y-74955249D01*
X83299998Y-74955248D01*
X83300000Y-74955249D01*
X83335937Y-74951199D01*
X83404758Y-74963252D01*
X83437503Y-74986738D01*
X83826004Y-75375239D01*
X83859489Y-75436562D01*
X83861543Y-75449032D01*
X83863687Y-75468058D01*
X83919544Y-75627692D01*
X83946058Y-75669887D01*
X83965059Y-75737124D01*
X83944692Y-75803959D01*
X83891424Y-75849174D01*
X83827182Y-75859080D01*
X83700004Y-75844751D01*
X83699997Y-75844751D01*
X83531943Y-75863685D01*
X83372305Y-75919545D01*
X83372302Y-75919547D01*
X83229115Y-76009518D01*
X83229109Y-76009523D01*
X83109523Y-76129109D01*
X83109518Y-76129115D01*
X83019547Y-76272302D01*
X83019545Y-76272305D01*
X82963685Y-76431943D01*
X82944751Y-76599997D01*
X82944751Y-76600002D01*
X82963685Y-76768056D01*
X83019545Y-76927694D01*
X83019547Y-76927697D01*
X83109518Y-77070884D01*
X83109523Y-77070890D01*
X83229109Y-77190476D01*
X83229115Y-77190481D01*
X83372302Y-77280452D01*
X83372305Y-77280454D01*
X83372309Y-77280455D01*
X83372310Y-77280456D01*
X83401043Y-77290510D01*
X83531943Y-77336314D01*
X83699997Y-77355249D01*
X83700000Y-77355249D01*
X83700003Y-77355249D01*
X83800835Y-77343887D01*
X83868059Y-77336313D01*
X84027690Y-77280456D01*
X84039237Y-77273199D01*
X84106473Y-77254197D01*
X84173309Y-77274562D01*
X84192893Y-77290509D01*
X84673267Y-77770884D01*
X85119449Y-78217066D01*
X85152934Y-78278389D01*
X85154988Y-78290861D01*
X85163687Y-78368058D01*
X85219544Y-78527692D01*
X85219547Y-78527697D01*
X85309518Y-78670884D01*
X85309523Y-78670890D01*
X85429109Y-78790476D01*
X85429115Y-78790481D01*
X85572302Y-78880452D01*
X85572305Y-78880454D01*
X85572309Y-78880455D01*
X85572310Y-78880456D01*
X85616001Y-78895744D01*
X85731943Y-78936314D01*
X85899997Y-78955249D01*
X85900000Y-78955249D01*
X85900003Y-78955249D01*
X86068056Y-78936314D01*
X86068059Y-78936313D01*
X86227690Y-78880456D01*
X86227692Y-78880454D01*
X86227694Y-78880454D01*
X86227697Y-78880452D01*
X86370884Y-78790481D01*
X86370885Y-78790480D01*
X86370890Y-78790477D01*
X86490477Y-78670890D01*
X86490481Y-78670884D01*
X86580452Y-78527697D01*
X86580454Y-78527694D01*
X86580454Y-78527692D01*
X86580456Y-78527690D01*
X86636313Y-78368059D01*
X86636313Y-78368058D01*
X86636314Y-78368056D01*
X86655249Y-78200002D01*
X86655249Y-78199997D01*
X86636314Y-78031943D01*
X86617694Y-77978730D01*
X86580456Y-77872310D01*
X86580454Y-77872307D01*
X86580454Y-77872306D01*
X86520622Y-77777086D01*
X86501621Y-77709850D01*
X86521988Y-77643014D01*
X86537929Y-77623437D01*
X87341984Y-76819382D01*
X87403305Y-76785899D01*
X87472997Y-76790883D01*
X87528930Y-76832755D01*
X87551280Y-76882872D01*
X87578341Y-77018908D01*
X87578343Y-77018917D01*
X87634914Y-77155491D01*
X87634916Y-77155495D01*
X87652829Y-77182304D01*
X87652828Y-77182304D01*
X87717046Y-77278414D01*
X87717052Y-77278421D01*
X88721580Y-78282948D01*
X88721584Y-78282951D01*
X88844498Y-78365080D01*
X88844511Y-78365087D01*
X88981082Y-78421656D01*
X88981087Y-78421658D01*
X88981091Y-78421658D01*
X88981092Y-78421659D01*
X89126079Y-78450500D01*
X89126082Y-78450500D01*
X89273917Y-78450500D01*
X90237770Y-78450500D01*
X90304809Y-78470185D01*
X90325451Y-78486819D01*
X94275903Y-82437272D01*
X94275925Y-82437292D01*
X94279110Y-82440477D01*
X94279112Y-82440478D01*
X94340329Y-82478943D01*
X94343238Y-82480828D01*
X94394506Y-82515084D01*
X94394638Y-82515138D01*
X94413163Y-82524708D01*
X94422310Y-82530456D01*
X94479028Y-82550301D01*
X94485464Y-82552759D01*
X94531088Y-82571658D01*
X94539866Y-82573404D01*
X94543339Y-82574095D01*
X94560104Y-82578672D01*
X94581935Y-82586311D01*
X94581941Y-82586313D01*
X94629404Y-82591660D01*
X94639693Y-82593261D01*
X94676079Y-82600500D01*
X94676083Y-82600500D01*
X94700890Y-82600500D01*
X94714774Y-82601280D01*
X94749998Y-82605249D01*
X94750000Y-82605249D01*
X94750002Y-82605249D01*
X94785226Y-82601280D01*
X94799110Y-82600500D01*
X94823921Y-82600500D01*
X94860306Y-82593261D01*
X94870595Y-82591660D01*
X94918059Y-82586313D01*
X94939911Y-82578665D01*
X94956660Y-82574094D01*
X94968913Y-82571658D01*
X95014550Y-82552753D01*
X95020974Y-82550300D01*
X95077690Y-82530456D01*
X95086839Y-82524706D01*
X95105362Y-82515138D01*
X95105494Y-82515084D01*
X95156799Y-82480802D01*
X95159617Y-82478976D01*
X95220890Y-82440477D01*
X95221335Y-82440031D01*
X95221349Y-82440021D01*
X95221348Y-82440020D01*
X95340020Y-82321348D01*
X95340021Y-82321349D01*
X95340031Y-82321335D01*
X95340477Y-82320890D01*
X95378976Y-82259617D01*
X95380802Y-82256799D01*
X95415084Y-82205494D01*
X95415138Y-82205362D01*
X95424706Y-82186839D01*
X95430456Y-82177690D01*
X95450300Y-82120974D01*
X95452753Y-82114550D01*
X95471658Y-82068913D01*
X95474094Y-82056660D01*
X95478665Y-82039911D01*
X95486313Y-82018059D01*
X95491660Y-81970595D01*
X95493261Y-81960306D01*
X95500500Y-81923921D01*
X95500500Y-81899108D01*
X95501280Y-81885223D01*
X95505249Y-81850000D01*
X95505249Y-81849997D01*
X95501280Y-81814774D01*
X95500500Y-81800890D01*
X95500500Y-81776078D01*
X95493261Y-81739693D01*
X95491660Y-81729404D01*
X95486313Y-81681941D01*
X95478672Y-81660104D01*
X95474095Y-81643339D01*
X95473404Y-81639866D01*
X95471658Y-81631088D01*
X95452759Y-81585464D01*
X95450301Y-81579028D01*
X95430456Y-81522310D01*
X95424708Y-81513163D01*
X95415138Y-81494638D01*
X95415084Y-81494506D01*
X95380828Y-81443238D01*
X95378943Y-81440329D01*
X95340476Y-81379109D01*
X95337292Y-81375925D01*
X95337272Y-81375903D01*
X91171348Y-77209980D01*
X91171347Y-77209980D01*
X91078415Y-77117047D01*
X91078414Y-77117046D01*
X91004729Y-77067812D01*
X91004729Y-77067813D01*
X90955491Y-77034913D01*
X90818917Y-76978343D01*
X90818907Y-76978340D01*
X90673920Y-76949500D01*
X90673918Y-76949500D01*
X89562229Y-76949500D01*
X89495190Y-76929815D01*
X89474548Y-76913181D01*
X89086819Y-76525451D01*
X89053334Y-76464128D01*
X89050500Y-76437770D01*
X89050500Y-76349108D01*
X89051280Y-76335223D01*
X89055249Y-76300000D01*
X89055249Y-76299997D01*
X89051280Y-76264774D01*
X89050500Y-76250890D01*
X89050500Y-76226081D01*
X89043261Y-76189692D01*
X89041659Y-76179398D01*
X89036313Y-76131941D01*
X89035322Y-76129109D01*
X89028671Y-76110101D01*
X89024094Y-76093332D01*
X89021660Y-76081095D01*
X89021658Y-76081087D01*
X89002766Y-76035477D01*
X89000285Y-76028979D01*
X88983306Y-75980456D01*
X88980456Y-75972310D01*
X88974708Y-75963162D01*
X88965143Y-75944648D01*
X88965084Y-75944505D01*
X88930834Y-75893247D01*
X88928949Y-75890338D01*
X88890476Y-75829109D01*
X88770889Y-75709522D01*
X88709677Y-75671060D01*
X88706760Y-75669169D01*
X88655495Y-75634916D01*
X88655488Y-75634912D01*
X88655340Y-75634851D01*
X88636844Y-75625295D01*
X88627694Y-75619546D01*
X88627691Y-75619544D01*
X88627690Y-75619544D01*
X88571003Y-75599708D01*
X88564532Y-75597238D01*
X88518913Y-75578342D01*
X88518911Y-75578341D01*
X88518910Y-75578341D01*
X88512799Y-75577125D01*
X88506659Y-75575904D01*
X88489902Y-75571330D01*
X88468059Y-75563687D01*
X88468060Y-75563687D01*
X88436794Y-75560163D01*
X88420614Y-75558340D01*
X88410312Y-75556739D01*
X88373918Y-75549500D01*
X88373917Y-75549500D01*
X88349110Y-75549500D01*
X88335226Y-75548720D01*
X88300002Y-75544751D01*
X88299998Y-75544751D01*
X88264774Y-75548720D01*
X88250890Y-75549500D01*
X88226082Y-75549500D01*
X88189685Y-75556739D01*
X88179382Y-75558341D01*
X88131940Y-75563687D01*
X88131932Y-75563689D01*
X88115450Y-75569456D01*
X88045671Y-75573015D01*
X87985045Y-75538284D01*
X87952820Y-75476289D01*
X87950500Y-75452413D01*
X87950500Y-72926079D01*
X87921659Y-72781092D01*
X87921658Y-72781091D01*
X87921658Y-72781087D01*
X87916262Y-72768059D01*
X87865087Y-72644511D01*
X87865080Y-72644498D01*
X87782952Y-72521585D01*
X87737048Y-72475681D01*
X87678416Y-72417049D01*
X87428416Y-72167048D01*
X87428415Y-72167047D01*
X87425304Y-72163936D01*
X87425289Y-72163922D01*
X87420888Y-72159521D01*
X87359668Y-72121054D01*
X87356751Y-72119164D01*
X87305491Y-72084913D01*
X87305342Y-72084852D01*
X87286841Y-72075293D01*
X87277691Y-72069544D01*
X87221013Y-72049712D01*
X87214514Y-72047231D01*
X87168915Y-72028343D01*
X87168907Y-72028340D01*
X87156652Y-72025902D01*
X87139902Y-72021330D01*
X87118059Y-72013687D01*
X87118057Y-72013686D01*
X87118055Y-72013686D01*
X87118053Y-72013685D01*
X87070610Y-72008340D01*
X87060303Y-72006737D01*
X87023920Y-71999500D01*
X87023917Y-71999500D01*
X86999110Y-71999500D01*
X86985226Y-71998720D01*
X86950002Y-71994751D01*
X86949998Y-71994751D01*
X86914774Y-71998720D01*
X86900890Y-71999500D01*
X86897479Y-71999500D01*
X86830440Y-71979815D01*
X86784685Y-71927011D01*
X86774741Y-71857853D01*
X86803766Y-71794297D01*
X86809798Y-71787819D01*
X86817617Y-71780000D01*
X86851313Y-71746304D01*
X86898881Y-71663914D01*
X86925565Y-71617697D01*
X86964000Y-71474253D01*
X86964000Y-71325748D01*
X86964000Y-71325747D01*
X86964000Y-71225748D01*
X86964000Y-70449997D01*
X88494751Y-70449997D01*
X88494751Y-70450002D01*
X88513685Y-70618056D01*
X88569545Y-70777694D01*
X88569547Y-70777697D01*
X88659518Y-70920884D01*
X88659523Y-70920890D01*
X88779109Y-71040476D01*
X88779115Y-71040481D01*
X88922302Y-71130452D01*
X88922305Y-71130454D01*
X88922309Y-71130455D01*
X88922310Y-71130456D01*
X88994913Y-71155860D01*
X89081943Y-71186314D01*
X89249997Y-71205249D01*
X89250000Y-71205249D01*
X89250003Y-71205249D01*
X89418056Y-71186314D01*
X89430213Y-71182060D01*
X89577690Y-71130456D01*
X89577692Y-71130454D01*
X89577694Y-71130454D01*
X89577697Y-71130452D01*
X89720884Y-71040481D01*
X89720885Y-71040480D01*
X89720890Y-71040477D01*
X89840477Y-70920890D01*
X89910454Y-70809523D01*
X89930452Y-70777697D01*
X89930454Y-70777694D01*
X89930454Y-70777692D01*
X89930456Y-70777690D01*
X89986313Y-70618059D01*
X89986313Y-70618058D01*
X89986314Y-70618056D01*
X90005249Y-70450002D01*
X90005249Y-70449997D01*
X89986314Y-70281943D01*
X89930454Y-70122305D01*
X89930452Y-70122302D01*
X89853602Y-69999997D01*
X94844751Y-69999997D01*
X94844751Y-70000002D01*
X94863685Y-70168056D01*
X94919545Y-70327694D01*
X94919547Y-70327697D01*
X95009518Y-70470884D01*
X95009523Y-70470890D01*
X95129109Y-70590476D01*
X95129115Y-70590481D01*
X95272302Y-70680452D01*
X95272305Y-70680454D01*
X95272309Y-70680455D01*
X95272310Y-70680456D01*
X95403431Y-70726337D01*
X95431944Y-70736314D01*
X95435349Y-70737091D01*
X95437329Y-70738198D01*
X95438514Y-70738613D01*
X95438441Y-70738820D01*
X95496331Y-70771194D01*
X95529194Y-70832853D01*
X95523504Y-70902491D01*
X95512761Y-70923956D01*
X95419545Y-71072307D01*
X95363685Y-71231943D01*
X95344751Y-71399997D01*
X95344751Y-71400002D01*
X95363685Y-71568056D01*
X95419545Y-71727694D01*
X95419547Y-71727697D01*
X95509518Y-71870884D01*
X95509523Y-71870890D01*
X95629109Y-71990476D01*
X95629115Y-71990481D01*
X95772302Y-72080452D01*
X95772305Y-72080454D01*
X95772309Y-72080455D01*
X95772310Y-72080456D01*
X95844913Y-72105860D01*
X95931943Y-72136314D01*
X96099997Y-72155249D01*
X96100000Y-72155249D01*
X96100003Y-72155249D01*
X96268056Y-72136314D01*
X96268059Y-72136313D01*
X96427690Y-72080456D01*
X96484015Y-72045063D01*
X96551249Y-72026064D01*
X96618084Y-72046431D01*
X96654979Y-72084085D01*
X96709521Y-72170888D01*
X96762220Y-72223587D01*
X96795705Y-72284910D01*
X96791581Y-72352222D01*
X96763686Y-72431943D01*
X96744751Y-72599996D01*
X96744751Y-72600002D01*
X96763685Y-72768056D01*
X96819545Y-72927694D01*
X96819547Y-72927697D01*
X96909518Y-73070884D01*
X96909523Y-73070890D01*
X97029109Y-73190476D01*
X97029115Y-73190481D01*
X97172302Y-73280452D01*
X97172305Y-73280454D01*
X97172309Y-73280455D01*
X97172310Y-73280456D01*
X97205533Y-73292081D01*
X97331943Y-73336314D01*
X97499997Y-73355249D01*
X97500000Y-73355249D01*
X97500003Y-73355249D01*
X97668052Y-73336314D01*
X97668052Y-73336313D01*
X97668059Y-73336313D01*
X97720926Y-73317813D01*
X97790699Y-73314251D01*
X97849558Y-73347174D01*
X102244346Y-77741962D01*
X102244356Y-77741973D01*
X102248686Y-77746303D01*
X102248687Y-77746304D01*
X102353696Y-77851313D01*
X102478499Y-77923368D01*
X102482304Y-77925565D01*
X102625747Y-77964000D01*
X102625748Y-77964000D01*
X104252520Y-77964000D01*
X104319559Y-77983685D01*
X104328469Y-77990075D01*
X104472302Y-78080452D01*
X104472305Y-78080454D01*
X104472309Y-78080455D01*
X104472310Y-78080456D01*
X104544913Y-78105860D01*
X104631943Y-78136314D01*
X104799997Y-78155249D01*
X104800000Y-78155249D01*
X104800003Y-78155249D01*
X104968056Y-78136314D01*
X104979902Y-78132169D01*
X105127690Y-78080456D01*
X105127692Y-78080454D01*
X105127694Y-78080454D01*
X105127697Y-78080452D01*
X105270884Y-77990481D01*
X105270885Y-77990480D01*
X105270890Y-77990477D01*
X105390477Y-77870890D01*
X105390481Y-77870884D01*
X105480452Y-77727697D01*
X105480454Y-77727694D01*
X105480454Y-77727692D01*
X105480456Y-77727690D01*
X105536313Y-77568059D01*
X105536313Y-77568058D01*
X105536314Y-77568056D01*
X105555249Y-77400002D01*
X105555249Y-77399997D01*
X105543982Y-77299997D01*
X109144751Y-77299997D01*
X109144751Y-77300002D01*
X109163685Y-77468056D01*
X109219545Y-77627694D01*
X109219547Y-77627697D01*
X109309518Y-77770884D01*
X109309523Y-77770890D01*
X109429109Y-77890476D01*
X109429115Y-77890481D01*
X109572302Y-77980452D01*
X109572305Y-77980454D01*
X109572309Y-77980455D01*
X109572310Y-77980456D01*
X109599800Y-77990075D01*
X109731943Y-78036314D01*
X109899997Y-78055249D01*
X109900000Y-78055249D01*
X109900003Y-78055249D01*
X110068056Y-78036314D01*
X110080548Y-78031943D01*
X110227690Y-77980456D01*
X110227692Y-77980454D01*
X110227694Y-77980454D01*
X110227697Y-77980452D01*
X110370884Y-77890481D01*
X110370885Y-77890480D01*
X110370890Y-77890477D01*
X110490477Y-77770890D01*
X110490481Y-77770884D01*
X110580452Y-77627697D01*
X110580454Y-77627694D01*
X110580454Y-77627692D01*
X110580456Y-77627690D01*
X110636313Y-77468059D01*
X110636313Y-77468057D01*
X110636314Y-77468055D01*
X110646824Y-77374772D01*
X110662655Y-77326657D01*
X110725565Y-77217696D01*
X110741927Y-77156632D01*
X110764000Y-77074253D01*
X110764000Y-76925747D01*
X110764000Y-74147480D01*
X110783685Y-74080441D01*
X110790075Y-74071530D01*
X110880452Y-73927697D01*
X110880454Y-73927694D01*
X110880454Y-73927692D01*
X110880456Y-73927690D01*
X110936313Y-73768059D01*
X110936313Y-73768058D01*
X110936314Y-73768056D01*
X110955249Y-73600002D01*
X110955249Y-73599997D01*
X110936314Y-73431943D01*
X110895132Y-73314251D01*
X110880456Y-73272310D01*
X110880455Y-73272309D01*
X110880454Y-73272305D01*
X110880452Y-73272302D01*
X110790481Y-73129115D01*
X110790476Y-73129109D01*
X110670890Y-73009523D01*
X110670884Y-73009518D01*
X110527697Y-72919547D01*
X110527694Y-72919545D01*
X110368056Y-72863685D01*
X110200003Y-72844751D01*
X110199997Y-72844751D01*
X110031943Y-72863685D01*
X109872305Y-72919545D01*
X109872302Y-72919547D01*
X109729115Y-73009518D01*
X109729109Y-73009523D01*
X109609523Y-73129109D01*
X109609518Y-73129115D01*
X109519547Y-73272302D01*
X109519545Y-73272305D01*
X109463685Y-73431943D01*
X109444751Y-73599997D01*
X109444751Y-73600002D01*
X109463685Y-73768056D01*
X109519545Y-73927694D01*
X109519547Y-73927697D01*
X109613227Y-74076786D01*
X109611970Y-74077575D01*
X109635355Y-74134849D01*
X109636000Y-74147480D01*
X109636000Y-76510992D01*
X109616315Y-76578031D01*
X109577973Y-76615985D01*
X109429111Y-76709521D01*
X109309523Y-76829109D01*
X109309518Y-76829115D01*
X109219547Y-76972302D01*
X109219545Y-76972305D01*
X109163685Y-77131943D01*
X109144751Y-77299997D01*
X105543982Y-77299997D01*
X105536314Y-77231943D01*
X105481136Y-77074253D01*
X105480456Y-77072310D01*
X105480455Y-77072309D01*
X105480454Y-77072305D01*
X105480452Y-77072302D01*
X105390481Y-76929115D01*
X105390476Y-76929109D01*
X105270890Y-76809523D01*
X105270884Y-76809518D01*
X105127697Y-76719547D01*
X105127694Y-76719545D01*
X104968056Y-76663685D01*
X104800003Y-76644751D01*
X104799997Y-76644751D01*
X104631943Y-76663685D01*
X104472305Y-76719545D01*
X104472302Y-76719547D01*
X104323214Y-76813227D01*
X104322424Y-76811970D01*
X104265151Y-76835355D01*
X104252520Y-76836000D01*
X102984978Y-76836000D01*
X102917939Y-76816315D01*
X102897297Y-76799681D01*
X98573297Y-72475681D01*
X98539812Y-72414358D01*
X98544796Y-72344666D01*
X98586668Y-72288733D01*
X98652132Y-72264316D01*
X98660978Y-72264000D01*
X119685022Y-72264000D01*
X119752061Y-72283685D01*
X119772703Y-72300319D01*
X120678141Y-73205758D01*
X120711626Y-73267081D01*
X120710235Y-73325532D01*
X120664938Y-73494586D01*
X120664936Y-73494596D01*
X120644341Y-73729999D01*
X120644341Y-73730000D01*
X120664936Y-73965403D01*
X120664938Y-73965413D01*
X120726094Y-74193655D01*
X120726096Y-74193659D01*
X120726097Y-74193663D01*
X120821029Y-74397245D01*
X120825965Y-74407830D01*
X120825967Y-74407834D01*
X120919125Y-74540877D01*
X120941452Y-74607083D01*
X120924442Y-74674850D01*
X120873494Y-74722663D01*
X120817550Y-74736000D01*
X115347480Y-74736000D01*
X115280441Y-74716315D01*
X115271530Y-74709924D01*
X115127697Y-74619547D01*
X115127694Y-74619545D01*
X114968056Y-74563685D01*
X114800003Y-74544751D01*
X114799997Y-74544751D01*
X114631943Y-74563685D01*
X114472305Y-74619545D01*
X114472302Y-74619547D01*
X114329115Y-74709518D01*
X114329109Y-74709523D01*
X114209523Y-74829109D01*
X114209518Y-74829115D01*
X114119547Y-74972302D01*
X114119545Y-74972305D01*
X114063685Y-75131943D01*
X114044751Y-75299997D01*
X114044751Y-75300002D01*
X114063685Y-75468056D01*
X114119545Y-75627694D01*
X114119547Y-75627697D01*
X114209518Y-75770884D01*
X114209523Y-75770890D01*
X114329109Y-75890476D01*
X114329115Y-75890481D01*
X114472302Y-75980452D01*
X114472305Y-75980454D01*
X114472309Y-75980455D01*
X114472310Y-75980456D01*
X114544302Y-76005647D01*
X114631943Y-76036314D01*
X114799997Y-76055249D01*
X114800000Y-76055249D01*
X114800003Y-76055249D01*
X114968056Y-76036314D01*
X114968059Y-76036313D01*
X115127690Y-75980456D01*
X115127692Y-75980454D01*
X115127694Y-75980454D01*
X115127697Y-75980452D01*
X115276786Y-75886773D01*
X115277575Y-75888029D01*
X115334849Y-75864645D01*
X115347480Y-75864000D01*
X120549047Y-75864000D01*
X120616086Y-75883685D01*
X120661841Y-75936489D01*
X120671785Y-76005647D01*
X120668822Y-76020093D01*
X120664938Y-76034586D01*
X120664936Y-76034596D01*
X120644341Y-76269999D01*
X120644341Y-76270000D01*
X120664936Y-76505403D01*
X120664938Y-76505413D01*
X120726094Y-76733655D01*
X120726096Y-76733659D01*
X120726097Y-76733663D01*
X120816574Y-76927690D01*
X120825965Y-76947830D01*
X120825967Y-76947834D01*
X120913121Y-77072302D01*
X120954882Y-77131943D01*
X120961501Y-77141395D01*
X120961506Y-77141402D01*
X121128597Y-77308493D01*
X121128603Y-77308498D01*
X121314158Y-77438425D01*
X121357783Y-77493002D01*
X121364977Y-77562500D01*
X121333454Y-77624855D01*
X121314158Y-77641575D01*
X121128597Y-77771505D01*
X120961505Y-77938597D01*
X120825965Y-78132169D01*
X120825962Y-78132175D01*
X120806271Y-78174404D01*
X120760099Y-78226844D01*
X120693889Y-78246000D01*
X115215747Y-78246000D01*
X115072301Y-78284435D01*
X115032839Y-78307220D01*
X114943696Y-78358687D01*
X114943693Y-78358689D01*
X114838685Y-78463698D01*
X114582933Y-78719449D01*
X114521610Y-78752934D01*
X114509138Y-78754988D01*
X114431941Y-78763687D01*
X114272307Y-78819544D01*
X114272302Y-78819547D01*
X114129115Y-78909518D01*
X114129109Y-78909523D01*
X114009523Y-79029109D01*
X114009518Y-79029115D01*
X113919547Y-79172302D01*
X113919545Y-79172305D01*
X113863685Y-79331943D01*
X113844751Y-79499997D01*
X113844751Y-79500002D01*
X113863685Y-79668056D01*
X113919545Y-79827694D01*
X113919547Y-79827697D01*
X114009518Y-79970884D01*
X114009523Y-79970890D01*
X114129109Y-80090476D01*
X114129115Y-80090481D01*
X114272302Y-80180452D01*
X114272305Y-80180454D01*
X114272309Y-80180455D01*
X114272310Y-80180456D01*
X114276377Y-80181879D01*
X114431943Y-80236314D01*
X114599997Y-80255249D01*
X114600000Y-80255249D01*
X114600003Y-80255249D01*
X114768056Y-80236314D01*
X114768059Y-80236313D01*
X114927690Y-80180456D01*
X114927692Y-80180454D01*
X114927694Y-80180454D01*
X114927697Y-80180452D01*
X115070884Y-80090481D01*
X115070885Y-80090480D01*
X115070890Y-80090477D01*
X115190477Y-79970890D01*
X115190481Y-79970884D01*
X115280452Y-79827697D01*
X115280454Y-79827694D01*
X115280454Y-79827692D01*
X115280456Y-79827690D01*
X115336313Y-79668059D01*
X115345011Y-79590861D01*
X115372077Y-79526448D01*
X115380540Y-79517075D01*
X115487298Y-79410318D01*
X115548621Y-79376834D01*
X115574978Y-79374000D01*
X120693888Y-79374000D01*
X120760927Y-79393685D01*
X120806270Y-79445595D01*
X120825964Y-79487829D01*
X120825965Y-79487831D01*
X120931242Y-79638182D01*
X120961505Y-79681401D01*
X121128599Y-79848495D01*
X121303388Y-79970884D01*
X121314594Y-79978730D01*
X121358219Y-80033307D01*
X121365413Y-80102805D01*
X121333890Y-80165160D01*
X121314595Y-80181880D01*
X121128922Y-80311890D01*
X121128920Y-80311891D01*
X120961891Y-80478920D01*
X120961886Y-80478926D01*
X120826400Y-80672420D01*
X120826399Y-80672422D01*
X120726570Y-80886507D01*
X120726567Y-80886513D01*
X120669364Y-81099999D01*
X120669364Y-81100000D01*
X121566988Y-81100000D01*
X121534075Y-81157007D01*
X121500000Y-81284174D01*
X121500000Y-81415826D01*
X121534075Y-81542993D01*
X121566988Y-81600000D01*
X120669364Y-81600000D01*
X120726567Y-81813486D01*
X120726570Y-81813492D01*
X120826399Y-82027578D01*
X120961894Y-82221082D01*
X121128917Y-82388105D01*
X121322421Y-82523600D01*
X121536507Y-82623429D01*
X121536516Y-82623433D01*
X121750000Y-82680634D01*
X121750000Y-81783012D01*
X121807007Y-81815925D01*
X121934174Y-81850000D01*
X122065826Y-81850000D01*
X122192993Y-81815925D01*
X122250000Y-81783012D01*
X122250000Y-82680633D01*
X122463483Y-82623433D01*
X122463492Y-82623429D01*
X122677578Y-82523600D01*
X122871082Y-82388105D01*
X123038105Y-82221082D01*
X123173600Y-82027578D01*
X123273429Y-81813492D01*
X123273432Y-81813486D01*
X123330636Y-81600000D01*
X122433012Y-81600000D01*
X122465925Y-81542993D01*
X122500000Y-81415826D01*
X122500000Y-81284174D01*
X122465925Y-81157007D01*
X122433012Y-81100000D01*
X123330636Y-81100000D01*
X123330635Y-81099999D01*
X123273432Y-80886513D01*
X123273429Y-80886507D01*
X123173600Y-80672422D01*
X123173599Y-80672420D01*
X123038113Y-80478926D01*
X123038108Y-80478920D01*
X122871078Y-80311890D01*
X122685405Y-80181879D01*
X122641780Y-80127302D01*
X122634588Y-80057804D01*
X122666110Y-79995449D01*
X122685406Y-79978730D01*
X122696603Y-79970890D01*
X122871401Y-79848495D01*
X123038495Y-79681401D01*
X123174035Y-79487830D01*
X123273903Y-79273663D01*
X123335063Y-79045408D01*
X123355659Y-78810000D01*
X123335063Y-78574592D01*
X123281943Y-78376344D01*
X123273905Y-78346344D01*
X123273904Y-78346343D01*
X123273903Y-78346337D01*
X123174035Y-78132171D01*
X123138144Y-78080912D01*
X123038494Y-77938597D01*
X122871402Y-77771506D01*
X122871396Y-77771501D01*
X122685842Y-77641575D01*
X122642217Y-77586998D01*
X122635023Y-77517500D01*
X122666546Y-77455145D01*
X122685842Y-77438425D01*
X122708026Y-77422891D01*
X122871401Y-77308495D01*
X123038495Y-77141401D01*
X123174035Y-76947830D01*
X123273903Y-76733663D01*
X123335063Y-76505408D01*
X123355659Y-76270000D01*
X123351816Y-76226081D01*
X123340202Y-76093332D01*
X123335063Y-76034592D01*
X123273903Y-75806337D01*
X123174035Y-75592171D01*
X123164352Y-75578341D01*
X123038494Y-75398597D01*
X122871402Y-75231506D01*
X122871396Y-75231501D01*
X122685842Y-75101575D01*
X122642217Y-75046998D01*
X122635023Y-74977500D01*
X122666546Y-74915145D01*
X122685842Y-74898425D01*
X122711510Y-74880452D01*
X122871401Y-74768495D01*
X123038495Y-74601401D01*
X123174035Y-74407830D01*
X123273903Y-74193663D01*
X123335063Y-73965408D01*
X123355659Y-73730000D01*
X123335063Y-73494592D01*
X123276103Y-73274548D01*
X123273905Y-73266344D01*
X123273904Y-73266343D01*
X123273903Y-73266337D01*
X123174035Y-73052171D01*
X123147668Y-73014514D01*
X123038494Y-72858597D01*
X122871402Y-72691506D01*
X122871396Y-72691501D01*
X122685842Y-72561575D01*
X122642217Y-72506998D01*
X122635023Y-72437500D01*
X122666546Y-72375145D01*
X122685842Y-72358425D01*
X122767980Y-72300911D01*
X122871401Y-72228495D01*
X123038495Y-72061401D01*
X123174035Y-71867830D01*
X123273903Y-71653663D01*
X123335063Y-71425408D01*
X123355659Y-71190000D01*
X123355336Y-71186313D01*
X123335063Y-70954596D01*
X123335063Y-70954592D01*
X123277081Y-70738198D01*
X123273905Y-70726344D01*
X123273904Y-70726343D01*
X123273903Y-70726337D01*
X123174035Y-70512171D01*
X123162568Y-70495795D01*
X123038496Y-70318600D01*
X122977640Y-70257744D01*
X122916567Y-70196671D01*
X122883084Y-70135351D01*
X122888068Y-70065659D01*
X122929939Y-70009725D01*
X122960915Y-69992810D01*
X123092331Y-69943796D01*
X123207546Y-69857546D01*
X123293796Y-69742331D01*
X123344091Y-69607483D01*
X123350500Y-69547873D01*
X123350499Y-67752128D01*
X123344091Y-67692517D01*
X123336554Y-67672310D01*
X123293797Y-67557671D01*
X123293793Y-67557664D01*
X123207547Y-67442455D01*
X123207544Y-67442452D01*
X123092335Y-67356206D01*
X123092328Y-67356202D01*
X122957482Y-67305908D01*
X122957483Y-67305908D01*
X122897883Y-67299501D01*
X122897881Y-67299500D01*
X122897873Y-67299500D01*
X122897864Y-67299500D01*
X121102129Y-67299500D01*
X121102123Y-67299501D01*
X121042516Y-67305908D01*
X120907671Y-67356202D01*
X120907664Y-67356206D01*
X120792455Y-67442452D01*
X120792452Y-67442455D01*
X120706206Y-67557664D01*
X120706202Y-67557671D01*
X120655908Y-67692517D01*
X120649501Y-67752116D01*
X120649501Y-67752123D01*
X120649500Y-67752135D01*
X120649500Y-69547870D01*
X120649501Y-69547876D01*
X120655908Y-69607483D01*
X120706202Y-69742328D01*
X120706206Y-69742335D01*
X120792452Y-69857544D01*
X120792455Y-69857547D01*
X120907664Y-69943793D01*
X120907671Y-69943797D01*
X121039081Y-69992810D01*
X121095015Y-70034681D01*
X121119432Y-70100145D01*
X121104580Y-70168418D01*
X121083430Y-70196673D01*
X120961503Y-70318600D01*
X120825965Y-70512169D01*
X120825962Y-70512175D01*
X120806271Y-70554404D01*
X120760099Y-70606844D01*
X120693889Y-70626000D01*
X110917376Y-70626000D01*
X110850337Y-70606315D01*
X110804582Y-70553511D01*
X110794638Y-70484353D01*
X110812383Y-70436027D01*
X110847587Y-70380000D01*
X110880456Y-70327690D01*
X110936313Y-70168059D01*
X110936313Y-70168058D01*
X110936314Y-70168056D01*
X110955249Y-70000002D01*
X110955249Y-69999997D01*
X110936314Y-69831943D01*
X110880454Y-69672305D01*
X110880452Y-69672302D01*
X110790481Y-69529115D01*
X110790474Y-69529107D01*
X110670890Y-69409523D01*
X110670884Y-69409518D01*
X110527697Y-69319547D01*
X110527694Y-69319545D01*
X110368056Y-69263685D01*
X110200003Y-69244751D01*
X110199997Y-69244751D01*
X110031943Y-69263685D01*
X109872305Y-69319545D01*
X109872302Y-69319547D01*
X109723214Y-69413227D01*
X109722424Y-69411970D01*
X109665151Y-69435355D01*
X109652520Y-69436000D01*
X96147480Y-69436000D01*
X96080441Y-69416315D01*
X96071530Y-69409924D01*
X95927697Y-69319547D01*
X95927694Y-69319545D01*
X95768056Y-69263685D01*
X95600003Y-69244751D01*
X95599997Y-69244751D01*
X95431943Y-69263685D01*
X95272305Y-69319545D01*
X95272302Y-69319547D01*
X95129115Y-69409518D01*
X95129109Y-69409523D01*
X95009526Y-69529107D01*
X95009518Y-69529115D01*
X94919547Y-69672302D01*
X94919545Y-69672305D01*
X94863685Y-69831943D01*
X94844751Y-69999997D01*
X89853602Y-69999997D01*
X89840481Y-69979115D01*
X89840476Y-69979109D01*
X89720890Y-69859523D01*
X89720884Y-69859518D01*
X89577697Y-69769547D01*
X89577694Y-69769545D01*
X89418056Y-69713685D01*
X89250003Y-69694751D01*
X89249997Y-69694751D01*
X89081943Y-69713685D01*
X88922305Y-69769545D01*
X88922302Y-69769547D01*
X88779115Y-69859518D01*
X88779109Y-69859523D01*
X88659523Y-69979109D01*
X88659518Y-69979115D01*
X88569547Y-70122302D01*
X88569545Y-70122305D01*
X88513685Y-70281943D01*
X88494751Y-70449997D01*
X86964000Y-70449997D01*
X86964000Y-69725748D01*
X86964000Y-69725746D01*
X86960770Y-69713690D01*
X86960770Y-69713691D01*
X86960769Y-69713687D01*
X86925565Y-69582303D01*
X86925563Y-69582299D01*
X86894853Y-69529109D01*
X86894852Y-69529107D01*
X86851317Y-69453702D01*
X86851314Y-69453698D01*
X86851313Y-69453696D01*
X86746304Y-69348687D01*
X86746303Y-69348686D01*
X86741973Y-69344356D01*
X86741962Y-69344346D01*
X85380550Y-67982934D01*
X85347065Y-67921611D01*
X85345011Y-67909136D01*
X85336314Y-67831944D01*
X85308385Y-67752127D01*
X85280456Y-67672310D01*
X85280455Y-67672309D01*
X85280454Y-67672305D01*
X85280452Y-67672302D01*
X85190481Y-67529115D01*
X85190476Y-67529109D01*
X85070890Y-67409523D01*
X85070884Y-67409518D01*
X84927697Y-67319547D01*
X84927694Y-67319545D01*
X84768056Y-67263685D01*
X84600003Y-67244751D01*
X84599997Y-67244751D01*
X84431943Y-67263685D01*
X84272305Y-67319545D01*
X84272302Y-67319547D01*
X84129115Y-67409518D01*
X84129109Y-67409523D01*
X84009523Y-67529109D01*
X84009518Y-67529115D01*
X83919547Y-67672302D01*
X83919545Y-67672305D01*
X83863685Y-67831943D01*
X83844751Y-67999997D01*
X83844751Y-68000002D01*
X83863685Y-68168056D01*
X83919545Y-68327694D01*
X83919547Y-68327697D01*
X84009518Y-68470884D01*
X84009523Y-68470890D01*
X84129109Y-68590476D01*
X84129115Y-68590481D01*
X84272302Y-68680452D01*
X84272305Y-68680454D01*
X84272309Y-68680455D01*
X84272310Y-68680456D01*
X84431941Y-68736313D01*
X84431944Y-68736314D01*
X84509136Y-68745011D01*
X84573550Y-68772077D01*
X84582934Y-68780550D01*
X85799681Y-69997297D01*
X85833166Y-70058620D01*
X85836000Y-70084978D01*
X85836000Y-71115021D01*
X85816315Y-71182060D01*
X85799681Y-71202702D01*
X84282933Y-72719449D01*
X84221610Y-72752934D01*
X84209138Y-72754988D01*
X84131941Y-72763687D01*
X83972307Y-72819544D01*
X83972302Y-72819547D01*
X83829115Y-72909518D01*
X83829109Y-72909523D01*
X83709523Y-73029109D01*
X83709518Y-73029115D01*
X83619547Y-73172302D01*
X83619544Y-73172307D01*
X83563686Y-73331945D01*
X83561712Y-73349459D01*
X83534642Y-73413872D01*
X83477046Y-73453424D01*
X83424609Y-73458790D01*
X83300004Y-73444751D01*
X83299997Y-73444751D01*
X83131943Y-73463685D01*
X82972305Y-73519545D01*
X82972302Y-73519547D01*
X82829115Y-73609518D01*
X82829109Y-73609523D01*
X82709523Y-73729109D01*
X82709518Y-73729115D01*
X82619547Y-73872302D01*
X82619545Y-73872305D01*
X82563685Y-74031943D01*
X82544751Y-74199997D01*
X75300500Y-74199997D01*
X75300500Y-71350913D01*
X75320185Y-71283874D01*
X75372989Y-71238119D01*
X75442147Y-71228175D01*
X75505703Y-71257200D01*
X75524819Y-71278028D01*
X75610967Y-71396602D01*
X75733397Y-71519032D01*
X75873475Y-71620804D01*
X76027742Y-71699408D01*
X76192415Y-71752914D01*
X76363429Y-71780000D01*
X76800000Y-71780000D01*
X76800000Y-70980000D01*
X77300000Y-70980000D01*
X77300000Y-71780000D01*
X77736571Y-71780000D01*
X77907584Y-71752914D01*
X78072257Y-71699408D01*
X78226524Y-71620804D01*
X78366602Y-71519032D01*
X78489032Y-71396602D01*
X78590804Y-71256524D01*
X78669408Y-71102255D01*
X78722914Y-70937584D01*
X78724115Y-70930000D01*
X77816988Y-70930000D01*
X77834205Y-70920060D01*
X77890060Y-70864205D01*
X77929556Y-70795796D01*
X77950000Y-70719496D01*
X77950000Y-70640504D01*
X77929556Y-70564204D01*
X77890060Y-70495795D01*
X77834205Y-70439940D01*
X77816988Y-70430000D01*
X78724115Y-70430000D01*
X78724115Y-70429999D01*
X79575884Y-70429999D01*
X79575885Y-70430000D01*
X80483012Y-70430000D01*
X80465795Y-70439940D01*
X80409940Y-70495795D01*
X80370444Y-70564204D01*
X80350000Y-70640504D01*
X80350000Y-70719496D01*
X80370444Y-70795796D01*
X80409940Y-70864205D01*
X80465795Y-70920060D01*
X80483012Y-70930000D01*
X79575885Y-70930000D01*
X79577085Y-70937584D01*
X79630591Y-71102255D01*
X79709195Y-71256524D01*
X79810967Y-71396602D01*
X79933397Y-71519032D01*
X80073478Y-71620805D01*
X80076137Y-71622160D01*
X80076967Y-71622944D01*
X80077628Y-71623349D01*
X80077542Y-71623487D01*
X80126934Y-71670133D01*
X80143731Y-71737953D01*
X80125459Y-71793863D01*
X80126858Y-71794611D01*
X80123986Y-71799982D01*
X80074652Y-71919087D01*
X80074649Y-71919096D01*
X80049500Y-72045532D01*
X80049500Y-72174467D01*
X80074649Y-72300903D01*
X80074652Y-72300912D01*
X80123986Y-72420017D01*
X80123987Y-72420019D01*
X80195616Y-72527219D01*
X80195619Y-72527223D01*
X80286776Y-72618380D01*
X80286780Y-72618383D01*
X80393978Y-72690011D01*
X80393979Y-72690011D01*
X80393980Y-72690012D01*
X80393982Y-72690013D01*
X80465048Y-72719449D01*
X80513089Y-72739348D01*
X80513091Y-72739348D01*
X80513096Y-72739350D01*
X80639532Y-72764499D01*
X80639536Y-72764500D01*
X80639537Y-72764500D01*
X80768464Y-72764500D01*
X80768465Y-72764499D01*
X80816283Y-72754988D01*
X80894903Y-72739350D01*
X80894906Y-72739348D01*
X80894911Y-72739348D01*
X81014022Y-72690011D01*
X81121220Y-72618383D01*
X81212383Y-72527220D01*
X81284011Y-72420022D01*
X81333348Y-72300911D01*
X81335771Y-72288733D01*
X81358499Y-72174467D01*
X81358500Y-72174464D01*
X81358500Y-72045536D01*
X81358499Y-72045532D01*
X81335159Y-71928191D01*
X81341386Y-71858600D01*
X81384249Y-71803422D01*
X81450139Y-71780178D01*
X81456776Y-71780000D01*
X81536571Y-71780000D01*
X81707584Y-71752914D01*
X81872257Y-71699408D01*
X82026524Y-71620804D01*
X82166602Y-71519032D01*
X82289032Y-71396602D01*
X82390804Y-71256524D01*
X82469408Y-71102255D01*
X82522914Y-70937584D01*
X82524115Y-70930000D01*
X81616988Y-70930000D01*
X81634205Y-70920060D01*
X81690060Y-70864205D01*
X81729556Y-70795796D01*
X81750000Y-70719496D01*
X81750000Y-70640504D01*
X81729556Y-70564204D01*
X81690060Y-70495795D01*
X81634205Y-70439940D01*
X81616988Y-70430000D01*
X82524115Y-70430000D01*
X82524115Y-70429999D01*
X82522914Y-70422415D01*
X82469408Y-70257744D01*
X82390804Y-70103475D01*
X82289032Y-69963397D01*
X82166602Y-69840967D01*
X82026524Y-69739195D01*
X81872257Y-69660591D01*
X81707584Y-69607085D01*
X81536571Y-69580000D01*
X81300000Y-69580000D01*
X81300000Y-70380000D01*
X80800000Y-70380000D01*
X80800000Y-69580000D01*
X80563429Y-69580000D01*
X80392415Y-69607085D01*
X80227742Y-69660591D01*
X80073475Y-69739195D01*
X79933397Y-69840967D01*
X79810967Y-69963397D01*
X79709195Y-70103475D01*
X79630591Y-70257744D01*
X79577085Y-70422415D01*
X79575884Y-70429999D01*
X78724115Y-70429999D01*
X78722914Y-70422415D01*
X78669408Y-70257744D01*
X78590804Y-70103475D01*
X78489032Y-69963397D01*
X78366602Y-69840967D01*
X78226524Y-69739195D01*
X78072257Y-69660591D01*
X77907584Y-69607085D01*
X77736571Y-69580000D01*
X77300000Y-69580000D01*
X77300000Y-70380000D01*
X76800000Y-70380000D01*
X76800000Y-69580000D01*
X76363429Y-69580000D01*
X76192415Y-69607085D01*
X76027742Y-69660591D01*
X75873475Y-69739195D01*
X75733397Y-69840967D01*
X75610965Y-69963399D01*
X75610961Y-69963404D01*
X75524818Y-70081971D01*
X75469488Y-70124637D01*
X75399875Y-70130616D01*
X75338080Y-70098011D01*
X75303723Y-70037172D01*
X75300500Y-70009086D01*
X75300500Y-52878456D01*
X76145500Y-52878456D01*
X76145500Y-53121543D01*
X76145501Y-53121559D01*
X76177230Y-53362569D01*
X76240149Y-53597386D01*
X76333175Y-53821972D01*
X76333182Y-53821987D01*
X76454730Y-54032516D01*
X76602722Y-54225380D01*
X76602730Y-54225389D01*
X76774611Y-54397270D01*
X76774619Y-54397277D01*
X76967483Y-54545269D01*
X77178012Y-54666817D01*
X77178027Y-54666824D01*
X77294171Y-54714932D01*
X77402612Y-54759850D01*
X77637429Y-54822769D01*
X77878450Y-54854500D01*
X77878457Y-54854500D01*
X78121543Y-54854500D01*
X78121550Y-54854500D01*
X78362571Y-54822769D01*
X78597388Y-54759850D01*
X78821984Y-54666819D01*
X79032516Y-54545269D01*
X79225380Y-54397278D01*
X79225384Y-54397273D01*
X79225389Y-54397270D01*
X79397270Y-54225389D01*
X79397273Y-54225384D01*
X79397278Y-54225380D01*
X79545269Y-54032516D01*
X79666819Y-53821984D01*
X79759850Y-53597388D01*
X79822769Y-53362571D01*
X79854500Y-53121550D01*
X79854500Y-52878456D01*
X120145500Y-52878456D01*
X120145500Y-53121543D01*
X120145501Y-53121559D01*
X120177230Y-53362569D01*
X120240149Y-53597386D01*
X120333175Y-53821972D01*
X120333182Y-53821987D01*
X120454730Y-54032516D01*
X120602722Y-54225380D01*
X120602730Y-54225389D01*
X120774611Y-54397270D01*
X120774619Y-54397277D01*
X120967483Y-54545269D01*
X121178012Y-54666817D01*
X121178027Y-54666824D01*
X121294171Y-54714932D01*
X121402612Y-54759850D01*
X121637429Y-54822769D01*
X121878450Y-54854500D01*
X121878457Y-54854500D01*
X122121543Y-54854500D01*
X122121550Y-54854500D01*
X122362571Y-54822769D01*
X122597388Y-54759850D01*
X122821984Y-54666819D01*
X123032516Y-54545269D01*
X123225380Y-54397278D01*
X123225384Y-54397273D01*
X123225389Y-54397270D01*
X123397270Y-54225389D01*
X123397273Y-54225384D01*
X123397278Y-54225380D01*
X123545269Y-54032516D01*
X123666819Y-53821984D01*
X123759850Y-53597388D01*
X123822769Y-53362571D01*
X123854500Y-53121550D01*
X123854500Y-52878450D01*
X123822769Y-52637429D01*
X123759850Y-52402612D01*
X123666819Y-52178016D01*
X123666817Y-52178012D01*
X123545269Y-51967483D01*
X123397277Y-51774619D01*
X123397270Y-51774611D01*
X123225389Y-51602730D01*
X123225380Y-51602722D01*
X123032516Y-51454730D01*
X122821987Y-51333182D01*
X122821972Y-51333175D01*
X122597386Y-51240149D01*
X122362569Y-51177230D01*
X122121559Y-51145501D01*
X122121556Y-51145500D01*
X122121550Y-51145500D01*
X121878450Y-51145500D01*
X121878444Y-51145500D01*
X121878440Y-51145501D01*
X121637430Y-51177230D01*
X121402613Y-51240149D01*
X121178027Y-51333175D01*
X121178012Y-51333182D01*
X120967483Y-51454730D01*
X120774619Y-51602722D01*
X120602722Y-51774619D01*
X120454730Y-51967483D01*
X120333182Y-52178012D01*
X120333175Y-52178027D01*
X120240149Y-52402613D01*
X120177230Y-52637430D01*
X120145501Y-52878440D01*
X120145500Y-52878456D01*
X79854500Y-52878456D01*
X79854500Y-52878450D01*
X79822769Y-52637429D01*
X79759850Y-52402612D01*
X79666819Y-52178016D01*
X79666817Y-52178012D01*
X79545269Y-51967483D01*
X79397277Y-51774619D01*
X79397270Y-51774611D01*
X79225389Y-51602730D01*
X79225380Y-51602722D01*
X79032516Y-51454730D01*
X78821987Y-51333182D01*
X78821972Y-51333175D01*
X78597386Y-51240149D01*
X78362569Y-51177230D01*
X78121559Y-51145501D01*
X78121556Y-51145500D01*
X78121550Y-51145500D01*
X77878450Y-51145500D01*
X77878444Y-51145500D01*
X77878440Y-51145501D01*
X77637430Y-51177230D01*
X77402613Y-51240149D01*
X77178027Y-51333175D01*
X77178012Y-51333182D01*
X76967483Y-51454730D01*
X76774619Y-51602722D01*
X76602722Y-51774619D01*
X76454730Y-51967483D01*
X76333182Y-52178012D01*
X76333175Y-52178027D01*
X76240149Y-52402613D01*
X76177230Y-52637430D01*
X76145501Y-52878440D01*
X76145500Y-52878456D01*
X75300500Y-52878456D01*
X75300500Y-50424500D01*
X75320185Y-50357461D01*
X75372989Y-50311706D01*
X75424500Y-50300500D01*
X124575500Y-50300500D01*
X124642539Y-50320185D01*
G37*
%TD.AperFunction*%
%TD*%
M02*
