M48
; DRILL file {KiCad 8.0.2} date 2024-06-01T19:49:29+0900
; FORMAT={-:-/ absolute / inch / decimal}
; #@! TF.CreationDate,2024-06-01T19:49:29+09:00
; #@! TF.GenerationSoftware,Kicad,Pcbnew,8.0.2
; #@! TF.FileFunction,Plated,1,2,PTH
FMAT,2
INCH
; #@! TA.AperFunction,Plated,PTH,ViaDrill
T1C0.0118
; #@! TA.AperFunction,Plated,PTH,ComponentDrill
T2C0.0236
; #@! TA.AperFunction,Plated,PTH,ComponentDrill
T3C0.0394
%
G90
G05
T1
X3.0341Y-2.2498
X3.0341Y-2.3498
X3.0341Y-2.4498
X3.0341Y-2.5498
X3.0341Y-2.6498
X3.0341Y-3.2498
X3.0341Y-3.3498
X3.0341Y-3.4498
X3.0341Y-3.5498
X3.0341Y-3.6498
X3.1341Y-2.2498
X3.1341Y-2.3498
X3.1341Y-2.4498
X3.1341Y-2.5498
X3.1341Y-2.6498
X3.1341Y-2.9498
X3.1341Y-3.2498
X3.1341Y-3.3498
X3.1341Y-3.4498
X3.1341Y-3.5498
X3.1341Y-3.6498
X3.2341Y-2.0498
X3.2341Y-2.1498
X3.2341Y-2.2498
X3.2341Y-2.3498
X3.2341Y-2.4498
X3.2341Y-2.5498
X3.2341Y-2.6498
X3.2341Y-3.2498
X3.2341Y-3.3498
X3.2341Y-3.4498
X3.2341Y-3.5498
X3.2341Y-3.6498
X3.2341Y-3.7498
X3.2341Y-3.8498
X3.2795Y-2.9213
X3.2953Y-3.0157
X3.3189Y-2.8937
X3.3307Y-2.6772
X3.3307Y-2.9646
X3.3341Y-2.0498
X3.3341Y-2.1498
X3.3341Y-2.2498
X3.3341Y-2.3498
X3.3341Y-2.4498
X3.3341Y-2.5498
X3.3341Y-3.4498
X3.3341Y-3.5498
X3.3341Y-3.6498
X3.3341Y-3.7498
X3.3341Y-3.8498
X3.3799Y-3.0413
X3.3819Y-3.0787
X3.4232Y-2.8642
X3.4331Y-2.9882
X3.4331Y-2.9882
X3.4341Y-2.0498
X3.4341Y-2.1498
X3.4341Y-2.2498
X3.4341Y-2.3498
X3.4341Y-2.4498
X3.4341Y-2.5498
X3.4341Y-3.2498
X3.4341Y-3.4498
X3.4341Y-3.5498
X3.4341Y-3.6498
X3.4341Y-3.7498
X3.4341Y-3.8498
X3.4764Y-3.0039
X3.5Y-3.3268
X3.5138Y-2.7736
X3.5315Y-3.1142
X3.5341Y-2.0498
X3.5341Y-2.1498
X3.5341Y-2.2498
X3.5341Y-2.3498
X3.5341Y-2.4498
X3.5341Y-2.8498
X3.5341Y-3.4498
X3.5341Y-3.5498
X3.5341Y-3.6498
X3.5341Y-3.7498
X3.5341Y-3.8498
X3.6341Y-2.0498
X3.6341Y-2.1498
X3.6341Y-2.2498
X3.6341Y-2.3498
X3.6341Y-2.7498
X3.6341Y-2.8498
X3.6341Y-3.4498
X3.6341Y-3.5498
X3.6341Y-3.6498
X3.6341Y-3.7498
X3.6341Y-3.8498
X3.7283Y-2.5
X3.7303Y-3.2224
X3.7341Y-2.0498
X3.7341Y-2.1498
X3.7341Y-2.2498
X3.7341Y-2.3498
X3.7341Y-2.4498
X3.7341Y-3.4498
X3.7341Y-3.5498
X3.7341Y-3.6498
X3.7341Y-3.7498
X3.7341Y-3.8498
X3.7362Y-2.937
X3.7638Y-2.7559
X3.7835Y-2.811
X3.8307Y-2.8228
X3.8341Y-2.0498
X3.8341Y-2.1498
X3.8341Y-2.2498
X3.8341Y-2.3498
X3.8341Y-2.4498
X3.8341Y-3.4498
X3.8341Y-3.5498
X3.8341Y-3.6498
X3.8341Y-3.7498
X3.8341Y-3.8498
X3.8386Y-2.8583
X3.9341Y-2.0498
X3.9341Y-2.1498
X3.9341Y-2.2498
X3.9341Y-2.3498
X3.9341Y-2.4498
X3.9341Y-3.4498
X3.9341Y-3.5498
X3.9341Y-3.6498
X3.9341Y-3.7498
X3.9341Y-3.8498
X3.9665Y-2.7244
X4.0341Y-2.0498
X4.0341Y-2.1498
X4.0341Y-2.2498
X4.0341Y-2.3498
X4.0341Y-2.4498
X4.0341Y-2.5498
X4.0341Y-2.6498
X4.0341Y-3.4498
X4.0341Y-3.5498
X4.0341Y-3.6498
X4.0341Y-3.7498
X4.0341Y-3.8498
X4.126Y-3.0472
X4.1341Y-2.0498
X4.1341Y-2.1498
X4.1341Y-2.2498
X4.1341Y-2.3498
X4.1341Y-2.4498
X4.1341Y-2.5498
X4.1341Y-2.9498
X4.1341Y-3.1498
X4.1341Y-3.4498
X4.1341Y-3.5498
X4.1341Y-3.6498
X4.1341Y-3.7498
X4.1341Y-3.8498
X4.2341Y-2.0498
X4.2341Y-2.1498
X4.2341Y-2.2498
X4.2341Y-2.3498
X4.2341Y-2.4498
X4.2341Y-2.5498
X4.2341Y-3.4498
X4.2341Y-3.5498
X4.2341Y-3.6498
X4.2341Y-3.7498
X4.2341Y-3.8498
X4.3268Y-3.0433
X4.3341Y-2.0498
X4.3341Y-2.1498
X4.3341Y-2.2498
X4.3341Y-2.3498
X4.3341Y-2.4498
X4.3341Y-2.5498
X4.3341Y-2.6498
X4.3341Y-3.1498
X4.3341Y-3.4498
X4.3341Y-3.5498
X4.3341Y-3.6498
X4.3341Y-3.7498
X4.3341Y-3.8498
X4.3386Y-2.7559
X4.3386Y-2.8976
X4.4341Y-2.0498
X4.4341Y-2.1498
X4.4341Y-2.2498
X4.4341Y-2.3498
X4.4341Y-2.4498
X4.4341Y-2.5498
X4.4341Y-2.6498
X4.4341Y-2.7498
X4.4341Y-3.0498
X4.4341Y-3.3498
X4.4341Y-3.4498
X4.4341Y-3.5498
X4.4341Y-3.6498
X4.4341Y-3.7498
X4.4341Y-3.8498
X4.5118Y-3.1299
X4.5197Y-2.9646
X4.5341Y-2.0498
X4.5341Y-2.1498
X4.5341Y-2.2498
X4.5341Y-2.3498
X4.5341Y-2.4498
X4.5341Y-2.5498
X4.5341Y-2.6498
X4.5341Y-2.7498
X4.5341Y-3.0498
X4.5341Y-3.3498
X4.5341Y-3.4498
X4.5341Y-3.5498
X4.5341Y-3.6498
X4.5341Y-3.7498
X4.5341Y-3.8498
X4.6341Y-2.0498
X4.6341Y-2.1498
X4.6341Y-2.2498
X4.6341Y-2.3498
X4.6341Y-2.4498
X4.6341Y-2.5498
X4.6341Y-2.6498
X4.6341Y-2.7498
X4.6341Y-3.3498
X4.6341Y-3.4498
X4.6341Y-3.5498
X4.6341Y-3.6498
X4.6341Y-3.7498
X4.6341Y-3.8498
X4.7341Y-2.2498
X4.7341Y-2.3498
X4.7341Y-2.4498
X4.7341Y-2.5498
X4.7341Y-2.6498
X4.7341Y-2.7498
X4.7341Y-3.0498
X4.7341Y-3.1498
X4.7341Y-3.2498
X4.7341Y-3.3498
X4.7341Y-3.4498
X4.7341Y-3.5498
X4.7341Y-3.6498
X4.8341Y-2.2498
X4.8341Y-2.3498
X4.8341Y-2.4498
X4.8341Y-2.5498
X4.8341Y-3.3498
X4.8341Y-3.4498
X4.8341Y-3.5498
X4.8341Y-3.6498
T3
X4.8031Y-2.7028
X4.8031Y-2.8028
X4.8031Y-2.9028
X4.8031Y-3.0028
X4.8031Y-3.1028
X4.8031Y-3.2028
T2
G00X3.0571Y-2.7827
M15
G01X3.0098Y-2.7827
M16
G05
G00X3.0571Y-3.1228
M15
G01X3.0098Y-3.1228
M16
G05
G00X3.2067Y-2.7827
M15
G01X3.1752Y-2.7827
M16
G05
G00X3.2067Y-3.1228
M15
G01X3.1752Y-3.1228
M16
G05
M30
