%TF.GenerationSoftware,KiCad,Pcbnew,8.0.2*%
%TF.CreationDate,2024-06-01T19:49:29+09:00*%
%TF.ProjectId,esp8266writer,65737038-3236-4367-9772-697465722e6b,rev?*%
%TF.SameCoordinates,Original*%
%TF.FileFunction,Paste,Top*%
%TF.FilePolarity,Positive*%
%FSLAX46Y46*%
G04 Gerber Fmt 4.6, Leading zero omitted, Abs format (unit mm)*
G04 Created by KiCad (PCBNEW 8.0.2) date 2024-06-01 19:49:29*
%MOMM*%
%LPD*%
G01*
G04 APERTURE LIST*
G04 Aperture macros list*
%AMRoundRect*
0 Rectangle with rounded corners*
0 $1 Rounding radius*
0 $2 $3 $4 $5 $6 $7 $8 $9 X,Y pos of 4 corners*
0 Add a 4 corners polygon primitive as box body*
4,1,4,$2,$3,$4,$5,$6,$7,$8,$9,$2,$3,0*
0 Add four circle primitives for the rounded corners*
1,1,$1+$1,$2,$3*
1,1,$1+$1,$4,$5*
1,1,$1+$1,$6,$7*
1,1,$1+$1,$8,$9*
0 Add four rect primitives between the rounded corners*
20,1,$1+$1,$2,$3,$4,$5,0*
20,1,$1+$1,$4,$5,$6,$7,0*
20,1,$1+$1,$6,$7,$8,$9,0*
20,1,$1+$1,$8,$9,$2,$3,0*%
G04 Aperture macros list end*
%ADD10RoundRect,0.225000X-0.250000X0.225000X-0.250000X-0.225000X0.250000X-0.225000X0.250000X0.225000X0*%
%ADD11RoundRect,0.200000X0.275000X-0.200000X0.275000X0.200000X-0.275000X0.200000X-0.275000X-0.200000X0*%
%ADD12RoundRect,0.200000X-0.275000X0.200000X-0.275000X-0.200000X0.275000X-0.200000X0.275000X0.200000X0*%
%ADD13RoundRect,0.200000X0.200000X0.800000X-0.200000X0.800000X-0.200000X-0.800000X0.200000X-0.800000X0*%
%ADD14RoundRect,0.200000X0.200000X0.275000X-0.200000X0.275000X-0.200000X-0.275000X0.200000X-0.275000X0*%
%ADD15RoundRect,0.250000X-0.275000X-0.275000X0.275000X-0.275000X0.275000X0.275000X-0.275000X0.275000X0*%
%ADD16RoundRect,0.062500X-0.350000X-0.062500X0.350000X-0.062500X0.350000X0.062500X-0.350000X0.062500X0*%
%ADD17RoundRect,0.062500X-0.062500X-0.350000X0.062500X-0.350000X0.062500X0.350000X-0.062500X0.350000X0*%
%ADD18RoundRect,0.218750X-0.256250X0.218750X-0.256250X-0.218750X0.256250X-0.218750X0.256250X0.218750X0*%
%ADD19RoundRect,0.150000X0.150000X-0.587500X0.150000X0.587500X-0.150000X0.587500X-0.150000X-0.587500X0*%
%ADD20RoundRect,0.250000X0.475000X-0.250000X0.475000X0.250000X-0.475000X0.250000X-0.475000X-0.250000X0*%
%ADD21R,1.270000X0.300000*%
%ADD22RoundRect,0.250000X-0.475000X0.250000X-0.475000X-0.250000X0.475000X-0.250000X0.475000X0.250000X0*%
%ADD23RoundRect,0.225000X-0.225000X-0.250000X0.225000X-0.250000X0.225000X0.250000X-0.225000X0.250000X0*%
%ADD24RoundRect,0.375000X-0.625000X-0.375000X0.625000X-0.375000X0.625000X0.375000X-0.625000X0.375000X0*%
%ADD25RoundRect,0.500000X-0.500000X-1.400000X0.500000X-1.400000X0.500000X1.400000X-0.500000X1.400000X0*%
%ADD26RoundRect,0.150000X-0.150000X0.587500X-0.150000X-0.587500X0.150000X-0.587500X0.150000X0.587500X0*%
%ADD27RoundRect,0.225000X0.250000X-0.225000X0.250000X0.225000X-0.250000X0.225000X-0.250000X-0.225000X0*%
G04 APERTURE END LIST*
D10*
%TO.C,C3*%
X91500000Y-75762500D03*
X91500000Y-77312500D03*
%TD*%
D11*
%TO.C,R4*%
X93000000Y-81362500D03*
X93000000Y-79712500D03*
%TD*%
D12*
%TO.C,R5*%
X94750000Y-78212500D03*
X94750000Y-79862500D03*
%TD*%
D13*
%TO.C,SW1*%
X116850000Y-79500000D03*
X112650000Y-79500000D03*
%TD*%
D11*
%TO.C,R1*%
X84400000Y-80225000D03*
X84400000Y-78575000D03*
%TD*%
D13*
%TO.C,SW2*%
X116850000Y-75250000D03*
X112650000Y-75250000D03*
%TD*%
D14*
%TO.C,R8*%
X107800000Y-72312500D03*
X106150000Y-72312500D03*
%TD*%
D15*
%TO.C,U1*%
X94287500Y-73887500D03*
X94287500Y-75187500D03*
X95587500Y-73887500D03*
X95587500Y-75187500D03*
D16*
X93000000Y-73287500D03*
X93000000Y-73787500D03*
X93000000Y-74287500D03*
X93000000Y-74787500D03*
X93000000Y-75287500D03*
X93000000Y-75787500D03*
D17*
X93687500Y-76475000D03*
X94187500Y-76475000D03*
X94687500Y-76475000D03*
X95187500Y-76475000D03*
X95687500Y-76475000D03*
X96187500Y-76475000D03*
D16*
X96875000Y-75787500D03*
X96875000Y-75287500D03*
X96875000Y-74787500D03*
X96875000Y-74287500D03*
X96875000Y-73787500D03*
X96875000Y-73287500D03*
D17*
X96187500Y-72600000D03*
X95687500Y-72600000D03*
X95187500Y-72600000D03*
X94687500Y-72600000D03*
X94187500Y-72600000D03*
X93687500Y-72600000D03*
%TD*%
D18*
%TO.C,D1*%
X101000000Y-78212500D03*
X101000000Y-79787500D03*
%TD*%
D12*
%TO.C,R6*%
X101000000Y-81425000D03*
X101000000Y-83075000D03*
%TD*%
D10*
%TO.C,C2*%
X89750000Y-75762500D03*
X89750000Y-77312500D03*
%TD*%
D19*
%TO.C,Q2*%
X106800000Y-76250000D03*
X108700000Y-76250000D03*
X107750000Y-74375000D03*
%TD*%
D12*
%TO.C,R3*%
X91250000Y-79712500D03*
X91250000Y-81362500D03*
%TD*%
D20*
%TO.C,C5*%
X89250000Y-68200000D03*
X89250000Y-66300000D03*
%TD*%
D21*
%TO.C,J1*%
X81950000Y-71650000D03*
X81950000Y-72450000D03*
X81950000Y-73750000D03*
X81950000Y-74750000D03*
X81950000Y-75250000D03*
X81950000Y-76250000D03*
X81950000Y-77550000D03*
X81950000Y-78350000D03*
X81950000Y-78050000D03*
X81950000Y-77250000D03*
X81950000Y-76750000D03*
X81950000Y-75750000D03*
X81950000Y-74250000D03*
X81950000Y-73250000D03*
X81950000Y-72750000D03*
X81950000Y-71950000D03*
%TD*%
D14*
%TO.C,R9*%
X107800000Y-82562500D03*
X106150000Y-82562500D03*
%TD*%
D22*
%TO.C,C6*%
X100750000Y-65800000D03*
X100750000Y-67700000D03*
%TD*%
D23*
%TO.C,C4*%
X109450000Y-82562500D03*
X111000000Y-82562500D03*
%TD*%
D11*
%TO.C,R2*%
X84100000Y-71025000D03*
X84100000Y-69375000D03*
%TD*%
D24*
%TO.C,U2*%
X91850000Y-63450000D03*
X91850000Y-65750000D03*
D25*
X98150000Y-65750000D03*
D24*
X91850000Y-68050000D03*
%TD*%
D26*
%TO.C,Q1*%
X108700000Y-78562500D03*
X106800000Y-78562500D03*
X107750000Y-80437500D03*
%TD*%
D18*
%TO.C,D2*%
X97750000Y-78212500D03*
X97750000Y-79787500D03*
%TD*%
D27*
%TO.C,C1*%
X98500000Y-74312500D03*
X98500000Y-72762500D03*
%TD*%
D12*
%TO.C,R7*%
X97750000Y-81425000D03*
X97750000Y-83075000D03*
%TD*%
M02*
