%TF.GenerationSoftware,KiCad,Pcbnew,8.0.2*%
%TF.CreationDate,2024-05-29T00:31:01+09:00*%
%TF.ProjectId,smartlight,736d6172-746c-4696-9768-742e6b696361,rev?*%
%TF.SameCoordinates,Original*%
%TF.FileFunction,Other,Comment*%
%FSLAX46Y46*%
G04 Gerber Fmt 4.6, Leading zero omitted, Abs format (unit mm)*
G04 Created by KiCad (PCBNEW 8.0.2) date 2024-05-29 00:31:01*
%MOMM*%
%LPD*%
G01*
G04 APERTURE LIST*
%ADD10C,0.150000*%
G04 APERTURE END LIST*
D10*
X87178095Y-42919104D02*
X87654285Y-42919104D01*
X87082857Y-43204819D02*
X87416190Y-42204819D01*
X87416190Y-42204819D02*
X87749523Y-43204819D01*
X88082857Y-42538152D02*
X88082857Y-43204819D01*
X88082857Y-42633390D02*
X88130476Y-42585771D01*
X88130476Y-42585771D02*
X88225714Y-42538152D01*
X88225714Y-42538152D02*
X88368571Y-42538152D01*
X88368571Y-42538152D02*
X88463809Y-42585771D01*
X88463809Y-42585771D02*
X88511428Y-42681009D01*
X88511428Y-42681009D02*
X88511428Y-43204819D01*
X88844762Y-42538152D02*
X89225714Y-42538152D01*
X88987619Y-42204819D02*
X88987619Y-43061961D01*
X88987619Y-43061961D02*
X89035238Y-43157200D01*
X89035238Y-43157200D02*
X89130476Y-43204819D01*
X89130476Y-43204819D02*
X89225714Y-43204819D01*
X89940000Y-43157200D02*
X89844762Y-43204819D01*
X89844762Y-43204819D02*
X89654286Y-43204819D01*
X89654286Y-43204819D02*
X89559048Y-43157200D01*
X89559048Y-43157200D02*
X89511429Y-43061961D01*
X89511429Y-43061961D02*
X89511429Y-42681009D01*
X89511429Y-42681009D02*
X89559048Y-42585771D01*
X89559048Y-42585771D02*
X89654286Y-42538152D01*
X89654286Y-42538152D02*
X89844762Y-42538152D01*
X89844762Y-42538152D02*
X89940000Y-42585771D01*
X89940000Y-42585771D02*
X89987619Y-42681009D01*
X89987619Y-42681009D02*
X89987619Y-42776247D01*
X89987619Y-42776247D02*
X89511429Y-42871485D01*
X90416191Y-42538152D02*
X90416191Y-43204819D01*
X90416191Y-42633390D02*
X90463810Y-42585771D01*
X90463810Y-42585771D02*
X90559048Y-42538152D01*
X90559048Y-42538152D02*
X90701905Y-42538152D01*
X90701905Y-42538152D02*
X90797143Y-42585771D01*
X90797143Y-42585771D02*
X90844762Y-42681009D01*
X90844762Y-42681009D02*
X90844762Y-43204819D01*
X91320953Y-42538152D02*
X91320953Y-43204819D01*
X91320953Y-42633390D02*
X91368572Y-42585771D01*
X91368572Y-42585771D02*
X91463810Y-42538152D01*
X91463810Y-42538152D02*
X91606667Y-42538152D01*
X91606667Y-42538152D02*
X91701905Y-42585771D01*
X91701905Y-42585771D02*
X91749524Y-42681009D01*
X91749524Y-42681009D02*
X91749524Y-43204819D01*
X92654286Y-43204819D02*
X92654286Y-42681009D01*
X92654286Y-42681009D02*
X92606667Y-42585771D01*
X92606667Y-42585771D02*
X92511429Y-42538152D01*
X92511429Y-42538152D02*
X92320953Y-42538152D01*
X92320953Y-42538152D02*
X92225715Y-42585771D01*
X92654286Y-43157200D02*
X92559048Y-43204819D01*
X92559048Y-43204819D02*
X92320953Y-43204819D01*
X92320953Y-43204819D02*
X92225715Y-43157200D01*
X92225715Y-43157200D02*
X92178096Y-43061961D01*
X92178096Y-43061961D02*
X92178096Y-42966723D01*
X92178096Y-42966723D02*
X92225715Y-42871485D01*
X92225715Y-42871485D02*
X92320953Y-42823866D01*
X92320953Y-42823866D02*
X92559048Y-42823866D01*
X92559048Y-42823866D02*
X92654286Y-42776247D01*
X83958571Y-40654819D02*
X83958571Y-39654819D01*
X84529999Y-40654819D02*
X84101428Y-40083390D01*
X84529999Y-39654819D02*
X83958571Y-40226247D01*
X84958571Y-40131009D02*
X85291904Y-40131009D01*
X85434761Y-40654819D02*
X84958571Y-40654819D01*
X84958571Y-40654819D02*
X84958571Y-39654819D01*
X84958571Y-39654819D02*
X85434761Y-39654819D01*
X85863333Y-40131009D02*
X86196666Y-40131009D01*
X86339523Y-40654819D02*
X85863333Y-40654819D01*
X85863333Y-40654819D02*
X85863333Y-39654819D01*
X85863333Y-39654819D02*
X86339523Y-39654819D01*
X86768095Y-40654819D02*
X86768095Y-39654819D01*
X86768095Y-39654819D02*
X87149047Y-39654819D01*
X87149047Y-39654819D02*
X87244285Y-39702438D01*
X87244285Y-39702438D02*
X87291904Y-39750057D01*
X87291904Y-39750057D02*
X87339523Y-39845295D01*
X87339523Y-39845295D02*
X87339523Y-39988152D01*
X87339523Y-39988152D02*
X87291904Y-40083390D01*
X87291904Y-40083390D02*
X87244285Y-40131009D01*
X87244285Y-40131009D02*
X87149047Y-40178628D01*
X87149047Y-40178628D02*
X86768095Y-40178628D01*
X87768095Y-40273866D02*
X88530000Y-40273866D01*
X89196666Y-39654819D02*
X89387142Y-39654819D01*
X89387142Y-39654819D02*
X89482380Y-39702438D01*
X89482380Y-39702438D02*
X89577618Y-39797676D01*
X89577618Y-39797676D02*
X89625237Y-39988152D01*
X89625237Y-39988152D02*
X89625237Y-40321485D01*
X89625237Y-40321485D02*
X89577618Y-40511961D01*
X89577618Y-40511961D02*
X89482380Y-40607200D01*
X89482380Y-40607200D02*
X89387142Y-40654819D01*
X89387142Y-40654819D02*
X89196666Y-40654819D01*
X89196666Y-40654819D02*
X89101428Y-40607200D01*
X89101428Y-40607200D02*
X89006190Y-40511961D01*
X89006190Y-40511961D02*
X88958571Y-40321485D01*
X88958571Y-40321485D02*
X88958571Y-39988152D01*
X88958571Y-39988152D02*
X89006190Y-39797676D01*
X89006190Y-39797676D02*
X89101428Y-39702438D01*
X89101428Y-39702438D02*
X89196666Y-39654819D01*
X90053809Y-39654819D02*
X90053809Y-40464342D01*
X90053809Y-40464342D02*
X90101428Y-40559580D01*
X90101428Y-40559580D02*
X90149047Y-40607200D01*
X90149047Y-40607200D02*
X90244285Y-40654819D01*
X90244285Y-40654819D02*
X90434761Y-40654819D01*
X90434761Y-40654819D02*
X90529999Y-40607200D01*
X90529999Y-40607200D02*
X90577618Y-40559580D01*
X90577618Y-40559580D02*
X90625237Y-40464342D01*
X90625237Y-40464342D02*
X90625237Y-39654819D01*
X90958571Y-39654819D02*
X91529999Y-39654819D01*
X91244285Y-40654819D02*
X91244285Y-39654819D01*
X92530000Y-39654819D02*
X93196666Y-39654819D01*
X93196666Y-39654819D02*
X92530000Y-40654819D01*
X92530000Y-40654819D02*
X93196666Y-40654819D01*
X93768095Y-39654819D02*
X93958571Y-39654819D01*
X93958571Y-39654819D02*
X94053809Y-39702438D01*
X94053809Y-39702438D02*
X94149047Y-39797676D01*
X94149047Y-39797676D02*
X94196666Y-39988152D01*
X94196666Y-39988152D02*
X94196666Y-40321485D01*
X94196666Y-40321485D02*
X94149047Y-40511961D01*
X94149047Y-40511961D02*
X94053809Y-40607200D01*
X94053809Y-40607200D02*
X93958571Y-40654819D01*
X93958571Y-40654819D02*
X93768095Y-40654819D01*
X93768095Y-40654819D02*
X93672857Y-40607200D01*
X93672857Y-40607200D02*
X93577619Y-40511961D01*
X93577619Y-40511961D02*
X93530000Y-40321485D01*
X93530000Y-40321485D02*
X93530000Y-39988152D01*
X93530000Y-39988152D02*
X93577619Y-39797676D01*
X93577619Y-39797676D02*
X93672857Y-39702438D01*
X93672857Y-39702438D02*
X93768095Y-39654819D01*
X94625238Y-40654819D02*
X94625238Y-39654819D01*
X94625238Y-39654819D02*
X95196666Y-40654819D01*
X95196666Y-40654819D02*
X95196666Y-39654819D01*
X95672857Y-40131009D02*
X96006190Y-40131009D01*
X96149047Y-40654819D02*
X95672857Y-40654819D01*
X95672857Y-40654819D02*
X95672857Y-39654819D01*
X95672857Y-39654819D02*
X96149047Y-39654819D01*
M02*
