%TF.GenerationSoftware,KiCad,Pcbnew,8.0.2*%
%TF.CreationDate,2024-06-11T21:25:35+09:00*%
%TF.ProjectId,smartlight,736d6172-746c-4696-9768-742e6b696361,rev?*%
%TF.SameCoordinates,Original*%
%TF.FileFunction,Paste,Top*%
%TF.FilePolarity,Positive*%
%FSLAX46Y46*%
G04 Gerber Fmt 4.6, Leading zero omitted, Abs format (unit mm)*
G04 Created by KiCad (PCBNEW 8.0.2) date 2024-06-11 21:25:35*
%MOMM*%
%LPD*%
G01*
G04 APERTURE LIST*
G04 Aperture macros list*
%AMRoundRect*
0 Rectangle with rounded corners*
0 $1 Rounding radius*
0 $2 $3 $4 $5 $6 $7 $8 $9 X,Y pos of 4 corners*
0 Add a 4 corners polygon primitive as box body*
4,1,4,$2,$3,$4,$5,$6,$7,$8,$9,$2,$3,0*
0 Add four circle primitives for the rounded corners*
1,1,$1+$1,$2,$3*
1,1,$1+$1,$4,$5*
1,1,$1+$1,$6,$7*
1,1,$1+$1,$8,$9*
0 Add four rect primitives between the rounded corners*
20,1,$1+$1,$2,$3,$4,$5,0*
20,1,$1+$1,$4,$5,$6,$7,0*
20,1,$1+$1,$6,$7,$8,$9,0*
20,1,$1+$1,$8,$9,$2,$3,0*%
G04 Aperture macros list end*
%ADD10RoundRect,0.225000X-0.225000X-0.250000X0.225000X-0.250000X0.225000X0.250000X-0.225000X0.250000X0*%
%ADD11RoundRect,0.135000X0.135000X0.185000X-0.135000X0.185000X-0.135000X-0.185000X0.135000X-0.185000X0*%
%ADD12R,2.500000X1.000000*%
%ADD13R,1.000000X1.800000*%
%ADD14RoundRect,0.135000X-0.135000X-0.185000X0.135000X-0.185000X0.135000X0.185000X-0.135000X0.185000X0*%
%ADD15RoundRect,0.135000X-0.185000X0.135000X-0.185000X-0.135000X0.185000X-0.135000X0.185000X0.135000X0*%
G04 APERTURE END LIST*
D10*
%TO.C,C1*%
X81725000Y-63750000D03*
X83275000Y-63750000D03*
%TD*%
D11*
%TO.C,R6*%
X85760000Y-63750000D03*
X84740000Y-63750000D03*
%TD*%
D10*
%TO.C,C2*%
X84965000Y-67600000D03*
X86515000Y-67600000D03*
%TD*%
D12*
%TO.C,U1*%
X82400000Y-46250000D03*
X82400000Y-48250000D03*
X82400000Y-50250000D03*
X82400000Y-52250000D03*
X82400000Y-54250000D03*
X82400000Y-56250000D03*
X82400000Y-58250000D03*
X82400000Y-60250000D03*
D13*
X85000000Y-61750000D03*
X87000000Y-61750000D03*
X89000000Y-61750000D03*
X91000000Y-61750000D03*
X93000000Y-61750000D03*
X95000000Y-61750000D03*
D12*
X97600000Y-60250000D03*
X97600000Y-58250000D03*
X97600000Y-56250000D03*
X97600000Y-54250000D03*
X97600000Y-52250000D03*
X97600000Y-50250000D03*
X97600000Y-48250000D03*
X97600000Y-46250000D03*
%TD*%
D14*
%TO.C,R7*%
X93490000Y-67000000D03*
X94510000Y-67000000D03*
%TD*%
D15*
%TO.C,R4*%
X81500000Y-66240000D03*
X81500000Y-67260000D03*
%TD*%
D11*
%TO.C,R3*%
X98510000Y-67000000D03*
X97490000Y-67000000D03*
%TD*%
D14*
%TO.C,R1*%
X85740000Y-66100000D03*
X86760000Y-66100000D03*
%TD*%
D15*
%TO.C,R2*%
X88750000Y-65190000D03*
X88750000Y-66210000D03*
%TD*%
D14*
%TO.C,R5*%
X84740000Y-65000000D03*
X85760000Y-65000000D03*
%TD*%
M02*
