M48
; DRILL file {KiCad 8.0.2} date 2024-06-11T21:25:35+0900
; FORMAT={-:-/ absolute / inch / decimal}
; #@! TF.CreationDate,2024-06-11T21:25:36+09:00
; #@! TF.GenerationSoftware,Kicad,Pcbnew,8.0.2
; #@! TF.FileFunction,Plated,1,2,PTH
FMAT,2
INCH
; #@! TA.AperFunction,Plated,PTH,ViaDrill
T1C0.0118
; #@! TA.AperFunction,Plated,PTH,ComponentDrill
T2C0.0256
%
G90
G05
T1
X3.248Y-2.6713
X3.2795Y-2.4567
X3.3071Y-2.815
X3.3268Y-2.0079
X3.3268Y-2.1752
X3.3333Y-1.8898
X3.3333Y-1.9292
X3.3333Y-2.0867
X3.3333Y-2.2835
X3.3406Y-2.372
X3.3661Y-2.1752
X3.3727Y-1.8898
X3.3727Y-1.9292
X3.3727Y-2.0867
X3.3727Y-2.2835
X3.4055Y-2.815
X3.412Y-1.8898
X3.412Y-1.9292
X3.412Y-1.9686
X3.412Y-2.0079
X3.412Y-2.0473
X3.412Y-2.0867
X3.412Y-2.2835
X3.412Y-2.3229
X3.4252Y-2.1457
X3.4252Y-2.2244
X3.4331Y-2.5589
X3.4331Y-2.6618
X3.4514Y-1.8898
X3.4514Y-1.9292
X3.4514Y-1.9686
X3.4514Y-2.0079
X3.4514Y-2.0473
X3.4514Y-2.0867
X3.4551Y-2.5843
X3.4606Y-2.6161
X3.4908Y-1.8898
X3.4908Y-1.9292
X3.4908Y-1.9686
X3.4908Y-2.0079
X3.4908Y-2.0473
X3.4908Y-2.0867
X3.4908Y-2.1261
X3.5Y-2.5315
X3.5039Y-2.5
X3.5177Y-2.3091
X3.522Y-2.6402
X3.5301Y-1.8898
X3.5301Y-1.9292
X3.5301Y-1.9686
X3.5301Y-2.0079
X3.5301Y-2.0473
X3.5301Y-2.0867
X3.5301Y-2.1261
X3.5301Y-2.1654
X3.5301Y-2.2048
X3.5301Y-2.2442
X3.5433Y-2.5827
X3.5433Y-2.7126
X3.5695Y-1.8898
X3.5695Y-1.9292
X3.5695Y-1.9686
X3.5695Y-2.0079
X3.5695Y-2.0473
X3.5695Y-2.0867
X3.5695Y-2.1261
X3.5695Y-2.1654
X3.5695Y-2.2048
X3.5787Y-2.7087
X3.5906Y-2.6772
X3.6089Y-1.8898
X3.6089Y-1.9292
X3.6089Y-1.9686
X3.6089Y-2.0079
X3.6089Y-2.0473
X3.6089Y-2.0867
X3.6089Y-2.1261
X3.6089Y-2.1654
X3.6181Y-2.7126
X3.622Y-2.2343
X3.6319Y-1.8209
X3.6482Y-1.8898
X3.6482Y-1.9292
X3.6482Y-1.9686
X3.6516Y-2.6378
X3.7057Y-2.0522
X3.7106Y-2.0079
X3.7106Y-2.0965
X3.7106Y-2.1555
X3.7283Y-2.685
X3.7303Y-2.372
X3.7303Y-2.7165
X3.75Y-2.0965
X3.75Y-2.3327
X3.7598Y-2.0571
X3.7598Y-2.3622
X3.7598Y-2.7126
X3.7697Y-1.939
X3.7697Y-1.9882
X3.7697Y-2.0276
X3.7835Y-2.6654
X3.7894Y-2.4213
X3.7894Y-2.4803
X3.811Y-2.7126
X3.8681Y-2.5984
X3.8878Y-2.4213
X3.8878Y-2.4606
X3.8937Y-2.5945
T2
X3.6197Y-2.5492
X3.6697Y-2.5492
X3.7197Y-2.5492
X3.7697Y-2.5492
X3.8197Y-2.5492
X3.8697Y-2.5492
M30
