%TF.GenerationSoftware,KiCad,Pcbnew,8.0.2*%
%TF.CreationDate,2024-06-11T21:25:35+09:00*%
%TF.ProjectId,smartlight,736d6172-746c-4696-9768-742e6b696361,rev?*%
%TF.SameCoordinates,Original*%
%TF.FileFunction,Copper,L2,Bot*%
%TF.FilePolarity,Positive*%
%FSLAX46Y46*%
G04 Gerber Fmt 4.6, Leading zero omitted, Abs format (unit mm)*
G04 Created by KiCad (PCBNEW 8.0.2) date 2024-06-11 21:25:35*
%MOMM*%
%LPD*%
G01*
G04 APERTURE LIST*
%TA.AperFunction,ComponentPad*%
%ADD10R,1.000000X1.000000*%
%TD*%
%TA.AperFunction,ComponentPad*%
%ADD11O,1.000000X1.000000*%
%TD*%
%TA.AperFunction,ViaPad*%
%ADD12C,0.500000*%
%TD*%
%TA.AperFunction,Conductor*%
%ADD13C,0.500000*%
%TD*%
%TA.AperFunction,Conductor*%
%ADD14C,0.127000*%
%TD*%
G04 APERTURE END LIST*
D10*
%TO.P,J1,1,Pin_1*%
%TO.N,+3V3*%
X91940000Y-64750000D03*
D11*
%TO.P,J1,2,Pin_2*%
%TO.N,ESP12F_TX*%
X93210000Y-64750000D03*
%TO.P,J1,3,Pin_3*%
%TO.N,ESP12F_RX*%
X94480000Y-64750000D03*
%TO.P,J1,4,Pin_4*%
%TO.N,IO0*%
X95750000Y-64750000D03*
%TO.P,J1,5,Pin_5*%
%TO.N,RESET*%
X97020000Y-64750000D03*
%TO.P,J1,6,Pin_6*%
%TO.N,GND*%
X98290000Y-64750000D03*
%TD*%
D12*
%TO.N,+3V3*%
X92750000Y-67000000D03*
X96100000Y-67700000D03*
%TO.N,GND*%
X88665477Y-53001750D03*
X89665477Y-54001750D03*
X87665477Y-49001750D03*
X90665477Y-56001750D03*
X87665477Y-50001750D03*
X84665477Y-48001750D03*
X91200000Y-68000000D03*
X95250000Y-53250000D03*
X85665477Y-53001750D03*
X86665477Y-50001750D03*
X91665477Y-53001750D03*
X88665477Y-48001750D03*
X92665477Y-48001750D03*
X86665477Y-48001750D03*
X94750000Y-69000000D03*
X85665477Y-49001750D03*
X87665477Y-52001750D03*
X86665477Y-53001750D03*
X96250000Y-61500000D03*
X94700000Y-68200000D03*
X90900000Y-68800000D03*
X86665477Y-52001750D03*
X86665477Y-51001750D03*
X91665477Y-51001750D03*
X94750000Y-60250000D03*
X90000000Y-68900000D03*
X95750000Y-51500000D03*
X90665477Y-54001750D03*
X88665477Y-52001750D03*
X95500000Y-60000000D03*
X91665477Y-52001750D03*
X95750000Y-49250000D03*
X96800000Y-68900000D03*
X84665477Y-53001750D03*
X92665477Y-50001750D03*
X87665477Y-51001750D03*
X84665477Y-49001750D03*
X89665477Y-57001750D03*
X96250000Y-63000000D03*
X83300000Y-62400000D03*
X84500000Y-55250000D03*
X90665477Y-53001750D03*
X89665477Y-55001750D03*
X89665477Y-50001750D03*
X85665477Y-58001750D03*
X88665477Y-50001750D03*
X89665477Y-49001750D03*
X86665477Y-59001750D03*
X98900000Y-65900000D03*
X90665477Y-51001750D03*
X91665477Y-49001750D03*
X90665477Y-50001750D03*
X94250000Y-53250000D03*
X90665477Y-55001750D03*
X91665477Y-55001750D03*
X95750000Y-50500000D03*
X88665477Y-51001750D03*
X87665477Y-53001750D03*
X89460000Y-67060000D03*
X89665477Y-53001750D03*
X95250000Y-59250000D03*
X91665477Y-48001750D03*
X91665477Y-54001750D03*
X88665477Y-54001750D03*
X89665477Y-51001750D03*
X89665477Y-52001750D03*
X98250000Y-66000000D03*
X89665477Y-56001750D03*
X95500000Y-68900000D03*
X88665477Y-49001750D03*
X85665477Y-48001750D03*
X90665477Y-52001750D03*
X95500000Y-52250000D03*
X98750000Y-61500000D03*
X86665477Y-58001750D03*
X85500000Y-55250000D03*
X84665477Y-58001750D03*
X90665477Y-49001750D03*
X86665477Y-49001750D03*
X92665477Y-49001750D03*
X89665477Y-48001750D03*
X91665477Y-50001750D03*
X91900000Y-68900000D03*
X84850000Y-60250000D03*
X98750000Y-62500000D03*
X90665477Y-48001750D03*
X87200000Y-67610000D03*
X87665477Y-48001750D03*
%TO.N,IO0*%
X94250000Y-54750000D03*
%TO.N,RESET*%
X92250000Y-46250000D03*
%TO.N,ESP12F_TX*%
X94250000Y-51000000D03*
%TO.N,ESP12F_RX*%
X94125000Y-52125000D03*
%TO.N,PWM*%
X87900000Y-66450000D03*
X87000000Y-54500000D03*
%TO.N,ON{slash}OFF*%
X87000000Y-56500000D03*
X87760000Y-65640000D03*
%TO.N,Net-(U1-EN)*%
X84500000Y-51000000D03*
X82500000Y-67850000D03*
%TO.N,Net-(U1-GPIO2)*%
X88900000Y-64300000D03*
X92000000Y-56750000D03*
%TO.N,Net-(U1-GPIO15)*%
X89350000Y-58650000D03*
X89000000Y-63500000D03*
%TO.N,Net-(J2-Pin_5)*%
X84000000Y-71500000D03*
X90000000Y-65600000D03*
%TO.N,Net-(J2-Pin_4)*%
X87200000Y-64995115D03*
X86500000Y-71500000D03*
%TD*%
D13*
%TO.N,+3V3*%
X96100000Y-67700000D02*
X95400000Y-67000000D01*
X95400000Y-67000000D02*
X92750000Y-67000000D01*
%TO.N,GND*%
X84850000Y-60250000D02*
X83300000Y-61800000D01*
X96750000Y-69650000D02*
X96400000Y-70000000D01*
X83800000Y-67000000D02*
X83800000Y-62900000D01*
X90050000Y-67650000D02*
X90050000Y-67950000D01*
X87200000Y-67610000D02*
X87200000Y-67334529D01*
X91400000Y-70000000D02*
X90900000Y-69500000D01*
X83300000Y-61800000D02*
X83300000Y-62400000D01*
X83800000Y-62900000D02*
X83300000Y-62400000D01*
X96400000Y-70000000D02*
X91400000Y-70000000D01*
X98290000Y-66710000D02*
X96750000Y-68250000D01*
X90900000Y-69500000D02*
X90900000Y-68800000D01*
X86865471Y-67000000D02*
X83800000Y-67000000D01*
X98290000Y-64750000D02*
X98290000Y-66710000D01*
X89460000Y-67060000D02*
X90050000Y-67650000D01*
X90900000Y-68800000D02*
X90050000Y-67950000D01*
X87200000Y-67334529D02*
X86865471Y-67000000D01*
X96750000Y-68250000D02*
X96750000Y-69650000D01*
D14*
%TO.N,IO0*%
X94000000Y-55000000D02*
X94000000Y-63000000D01*
X94500000Y-63500000D02*
X95250000Y-63500000D01*
X94000000Y-63000000D02*
X94500000Y-63500000D01*
X94250000Y-54750000D02*
X94000000Y-55000000D01*
X95250000Y-63500000D02*
X95750000Y-64000000D01*
X95750000Y-64000000D02*
X95750000Y-64750000D01*
%TO.N,RESET*%
X95500000Y-46250000D02*
X92250000Y-46250000D01*
X97020000Y-62730000D02*
X97500000Y-62250000D01*
X97500000Y-48250000D02*
X95500000Y-46250000D01*
X97020000Y-64750000D02*
X97020000Y-62730000D01*
X97500000Y-62250000D02*
X97500000Y-48250000D01*
%TO.N,ESP12F_TX*%
X93210000Y-52040000D02*
X93210000Y-64750000D01*
X94250000Y-51000000D02*
X93210000Y-52040000D01*
%TO.N,ESP12F_RX*%
X93500000Y-63770000D02*
X94480000Y-64750000D01*
X94125000Y-52125000D02*
X93500000Y-52750000D01*
X93500000Y-52750000D02*
X93500000Y-63770000D01*
%TO.N,PWM*%
X88304605Y-65850000D02*
X88304605Y-66045395D01*
X88304605Y-65850000D02*
X88304605Y-55804605D01*
X88304605Y-66045395D02*
X87900000Y-66450000D01*
X88304605Y-55804605D02*
X87000000Y-54500000D01*
%TO.N,ON{slash}OFF*%
X87760000Y-65640000D02*
X88000000Y-65400000D01*
X88000000Y-65400000D02*
X88000000Y-57500000D01*
X88000000Y-57500000D02*
X87000000Y-56500000D01*
%TO.N,Net-(U1-EN)*%
X82750000Y-66000000D02*
X82750000Y-52750000D01*
X82750000Y-52750000D02*
X84500000Y-51000000D01*
X82500000Y-67850000D02*
X83000000Y-67350000D01*
X83000000Y-67350000D02*
X83000000Y-66250000D01*
X83000000Y-66250000D02*
X82750000Y-66000000D01*
%TO.N,Net-(U1-GPIO2)*%
X88900000Y-64300000D02*
X89200000Y-64300000D01*
X89900000Y-63600000D02*
X89900000Y-58850000D01*
X89900000Y-58850000D02*
X92000000Y-56750000D01*
X89200000Y-64300000D02*
X89900000Y-63600000D01*
%TO.N,Net-(U1-GPIO15)*%
X89350000Y-58650000D02*
X89000000Y-59000000D01*
X89000000Y-59000000D02*
X89000000Y-63500000D01*
%TO.N,Net-(J2-Pin_5)*%
X87886500Y-68349433D02*
X87886500Y-68713500D01*
X87200000Y-72700000D02*
X85200000Y-72700000D01*
X88916500Y-66683500D02*
X88916500Y-67883500D01*
X88099433Y-68136500D02*
X87886500Y-68349433D01*
X88663500Y-68136500D02*
X88099433Y-68136500D01*
X88916500Y-67883500D02*
X88663500Y-68136500D01*
X87200000Y-69400000D02*
X87200000Y-72700000D01*
X87886500Y-68713500D02*
X87200000Y-69400000D01*
X90000000Y-65600000D02*
X88916500Y-66683500D01*
X85200000Y-72700000D02*
X84000000Y-71500000D01*
%TO.N,Net-(J2-Pin_4)*%
X87200000Y-64995115D02*
X87216500Y-65011615D01*
X87994223Y-67882500D02*
X86500000Y-69376723D01*
X88662500Y-67262500D02*
X88662500Y-67537501D01*
X87216500Y-66545126D02*
X87794874Y-67123500D01*
X87216500Y-65011615D02*
X87216500Y-66545126D01*
X88523500Y-67123500D02*
X88662500Y-67262500D01*
X88662500Y-67537501D02*
X88317501Y-67882500D01*
X88317501Y-67882500D02*
X87994223Y-67882500D01*
X86500000Y-69376723D02*
X86500000Y-71500000D01*
X87794874Y-67123500D02*
X88523500Y-67123500D01*
%TD*%
%TA.AperFunction,Conductor*%
%TO.N,GND*%
G36*
X98540000Y-65719159D02*
G01*
X98674534Y-65678349D01*
X98848260Y-65585491D01*
X98996835Y-65463559D01*
X99061145Y-65436246D01*
X99130012Y-65448037D01*
X99181572Y-65495189D01*
X99199500Y-65559412D01*
X99199500Y-68075500D01*
X99179815Y-68142539D01*
X99127011Y-68188294D01*
X99075500Y-68199500D01*
X97789562Y-68199500D01*
X97710438Y-68199500D01*
X97672224Y-68209739D01*
X97634009Y-68219979D01*
X97634004Y-68219982D01*
X97565495Y-68259535D01*
X97565487Y-68259541D01*
X97509541Y-68315487D01*
X97509535Y-68315495D01*
X97469982Y-68384004D01*
X97469979Y-68384009D01*
X97459238Y-68424095D01*
X97450891Y-68455249D01*
X97449500Y-68460439D01*
X97449500Y-70075500D01*
X97429815Y-70142539D01*
X97377011Y-70188294D01*
X97325500Y-70199500D01*
X97039562Y-70199500D01*
X96960438Y-70199500D01*
X96922224Y-70209739D01*
X96884009Y-70219979D01*
X96884004Y-70219982D01*
X96815495Y-70259535D01*
X96815487Y-70259541D01*
X96759541Y-70315487D01*
X96759535Y-70315495D01*
X96719982Y-70384004D01*
X96719979Y-70384009D01*
X96706326Y-70434962D01*
X96699500Y-70460438D01*
X96699500Y-71960438D01*
X96699500Y-72039562D01*
X96702642Y-72051286D01*
X96719979Y-72115990D01*
X96719982Y-72115995D01*
X96759535Y-72184504D01*
X96759539Y-72184509D01*
X96759540Y-72184511D01*
X96815489Y-72240460D01*
X96815491Y-72240461D01*
X96815495Y-72240464D01*
X96884004Y-72280017D01*
X96884011Y-72280021D01*
X96960438Y-72300500D01*
X97325500Y-72300500D01*
X97392539Y-72320185D01*
X97438294Y-72372989D01*
X97449500Y-72424500D01*
X97449500Y-73075500D01*
X97429815Y-73142539D01*
X97377011Y-73188294D01*
X97325500Y-73199500D01*
X89674500Y-73199500D01*
X89607461Y-73179815D01*
X89561706Y-73127011D01*
X89550500Y-73075500D01*
X89550500Y-68460439D01*
X89550500Y-68460438D01*
X89530021Y-68384011D01*
X89519091Y-68365080D01*
X89490464Y-68315495D01*
X89490458Y-68315487D01*
X89448622Y-68273651D01*
X89415137Y-68212328D01*
X89420121Y-68142636D01*
X89428912Y-68123976D01*
X89442065Y-68101196D01*
X89467968Y-68004523D01*
X89480500Y-67957753D01*
X89480500Y-67809247D01*
X89480500Y-66968478D01*
X89500185Y-66901439D01*
X89516819Y-66880797D01*
X89861297Y-66536319D01*
X89922620Y-66502834D01*
X89948978Y-66500000D01*
X91955179Y-66500000D01*
X92022218Y-66519685D01*
X92067973Y-66572489D01*
X92077917Y-66641647D01*
X92070698Y-66665338D01*
X92071843Y-66665739D01*
X92049715Y-66728974D01*
X92047237Y-66735466D01*
X92028341Y-66781088D01*
X92028339Y-66781097D01*
X92025903Y-66793341D01*
X92021330Y-66810097D01*
X92013687Y-66831939D01*
X92013687Y-66831940D01*
X92008341Y-66879382D01*
X92006739Y-66889685D01*
X91999500Y-66926081D01*
X91999500Y-66950890D01*
X91998720Y-66964774D01*
X91994751Y-66999997D01*
X91994751Y-67000000D01*
X91998720Y-67035223D01*
X91999500Y-67049108D01*
X91999500Y-67073916D01*
X92006739Y-67110312D01*
X92008341Y-67120616D01*
X92013687Y-67168059D01*
X92021330Y-67189902D01*
X92025906Y-67206665D01*
X92028341Y-67218910D01*
X92047235Y-67264525D01*
X92049708Y-67271003D01*
X92069543Y-67327687D01*
X92069546Y-67327694D01*
X92075295Y-67336844D01*
X92084851Y-67355340D01*
X92084912Y-67355488D01*
X92084916Y-67355495D01*
X92119169Y-67406760D01*
X92121060Y-67409677D01*
X92158840Y-67469804D01*
X92159523Y-67470890D01*
X92279110Y-67590477D01*
X92286641Y-67595209D01*
X92340338Y-67628949D01*
X92343247Y-67630834D01*
X92394505Y-67665084D01*
X92394648Y-67665143D01*
X92413162Y-67674708D01*
X92422310Y-67680456D01*
X92467602Y-67696304D01*
X92478979Y-67700285D01*
X92485477Y-67702766D01*
X92531087Y-67721658D01*
X92531095Y-67721660D01*
X92543332Y-67724094D01*
X92560101Y-67728671D01*
X92581938Y-67736312D01*
X92581941Y-67736313D01*
X92629398Y-67741659D01*
X92639689Y-67743260D01*
X92651926Y-67745694D01*
X92676081Y-67750500D01*
X92676082Y-67750500D01*
X92700890Y-67750500D01*
X92714774Y-67751280D01*
X92749998Y-67755249D01*
X92750000Y-67755249D01*
X92750002Y-67755249D01*
X92785226Y-67751280D01*
X92799110Y-67750500D01*
X95037770Y-67750500D01*
X95104809Y-67770185D01*
X95125451Y-67786819D01*
X95343156Y-68004523D01*
X95509523Y-68170890D01*
X95629110Y-68290477D01*
X95677512Y-68320890D01*
X95690338Y-68328949D01*
X95693247Y-68330834D01*
X95744505Y-68365084D01*
X95744648Y-68365143D01*
X95763162Y-68374708D01*
X95763168Y-68374712D01*
X95772312Y-68380457D01*
X95803161Y-68391251D01*
X95828984Y-68400287D01*
X95835456Y-68402756D01*
X95881087Y-68421658D01*
X95891348Y-68423698D01*
X95893339Y-68424095D01*
X95910094Y-68428668D01*
X95931941Y-68436313D01*
X95979411Y-68441661D01*
X95989692Y-68443260D01*
X96026082Y-68450499D01*
X96050881Y-68450499D01*
X96064765Y-68451279D01*
X96099998Y-68455249D01*
X96100000Y-68455249D01*
X96100002Y-68455249D01*
X96135235Y-68451279D01*
X96149119Y-68450499D01*
X96173919Y-68450499D01*
X96186856Y-68447924D01*
X96210309Y-68443259D01*
X96220575Y-68441662D01*
X96268059Y-68436313D01*
X96289900Y-68428670D01*
X96306658Y-68424095D01*
X96318912Y-68421658D01*
X96364547Y-68402753D01*
X96370987Y-68400295D01*
X96427690Y-68380456D01*
X96436838Y-68374706D01*
X96455355Y-68365141D01*
X96455494Y-68365084D01*
X96506765Y-68330824D01*
X96509644Y-68328959D01*
X96509660Y-68328949D01*
X96570890Y-68290477D01*
X96690477Y-68170890D01*
X96728967Y-68109631D01*
X96730824Y-68106765D01*
X96765084Y-68055494D01*
X96765141Y-68055355D01*
X96774706Y-68036838D01*
X96780456Y-68027690D01*
X96800295Y-67970988D01*
X96802766Y-67964518D01*
X96805569Y-67957753D01*
X96821658Y-67918912D01*
X96824095Y-67906658D01*
X96828667Y-67889909D01*
X96836313Y-67868059D01*
X96841662Y-67820575D01*
X96843259Y-67810309D01*
X96850499Y-67773917D01*
X96850499Y-67749117D01*
X96851279Y-67735232D01*
X96855249Y-67700000D01*
X96855249Y-67699997D01*
X96851279Y-67664765D01*
X96850499Y-67650881D01*
X96850499Y-67626082D01*
X96843260Y-67589692D01*
X96841661Y-67579411D01*
X96836313Y-67531941D01*
X96828668Y-67510094D01*
X96824095Y-67493339D01*
X96823698Y-67491348D01*
X96821658Y-67481087D01*
X96802756Y-67435456D01*
X96800284Y-67428977D01*
X96780457Y-67372312D01*
X96774709Y-67363164D01*
X96765143Y-67344648D01*
X96765084Y-67344505D01*
X96730834Y-67293247D01*
X96728949Y-67290338D01*
X96719781Y-67275747D01*
X96690477Y-67229110D01*
X96570890Y-67109523D01*
X96340749Y-66879382D01*
X96036319Y-66574951D01*
X96002834Y-66513628D01*
X96000000Y-66487270D01*
X96000000Y-65811647D01*
X96019685Y-65744608D01*
X96072489Y-65698853D01*
X96087997Y-65692989D01*
X96134727Y-65678814D01*
X96308538Y-65585910D01*
X96308544Y-65585904D01*
X96313607Y-65582523D01*
X96314703Y-65584164D01*
X96370639Y-65560405D01*
X96439507Y-65572194D01*
X96456148Y-65582888D01*
X96456393Y-65582523D01*
X96461458Y-65585907D01*
X96461462Y-65585910D01*
X96635273Y-65678814D01*
X96823868Y-65736024D01*
X97020000Y-65755341D01*
X97216132Y-65736024D01*
X97404727Y-65678814D01*
X97578538Y-65585910D01*
X97578544Y-65585904D01*
X97583607Y-65582523D01*
X97584624Y-65584045D01*
X97641021Y-65560084D01*
X97709890Y-65571866D01*
X97726424Y-65582489D01*
X97726678Y-65582110D01*
X97731738Y-65585491D01*
X97905465Y-65678349D01*
X98040000Y-65719159D01*
X98040000Y-64959618D01*
X98090446Y-65010064D01*
X98164555Y-65052851D01*
X98247213Y-65075000D01*
X98332787Y-65075000D01*
X98415445Y-65052851D01*
X98489554Y-65010064D01*
X98540000Y-64959618D01*
X98540000Y-65719159D01*
G37*
%TD.AperFunction*%
%TA.AperFunction,Conductor*%
G36*
X99142539Y-45019685D02*
G01*
X99188294Y-45072489D01*
X99199500Y-45124000D01*
X99199500Y-47107761D01*
X99234974Y-47320350D01*
X99304952Y-47524187D01*
X99304958Y-47524201D01*
X99386189Y-47674303D01*
X99400784Y-47742631D01*
X99376121Y-47808003D01*
X99364817Y-47821000D01*
X99306287Y-47879531D01*
X99306286Y-47879532D01*
X99233289Y-48005968D01*
X99233288Y-48005971D01*
X99195500Y-48146999D01*
X99195500Y-48293000D01*
X99233288Y-48434028D01*
X99233289Y-48434031D01*
X99306286Y-48560467D01*
X99306291Y-48560473D01*
X99323138Y-48577321D01*
X99356622Y-48638645D01*
X99351636Y-48708336D01*
X99323138Y-48752679D01*
X99306291Y-48769526D01*
X99306286Y-48769532D01*
X99233289Y-48895968D01*
X99233288Y-48895971D01*
X99195500Y-49036999D01*
X99195500Y-49183001D01*
X99228519Y-49306228D01*
X99233288Y-49324028D01*
X99233289Y-49324031D01*
X99306286Y-49450467D01*
X99306291Y-49450473D01*
X99323138Y-49467321D01*
X99356622Y-49528645D01*
X99351636Y-49598336D01*
X99323138Y-49642679D01*
X99306291Y-49659526D01*
X99306286Y-49659532D01*
X99233289Y-49785968D01*
X99233288Y-49785971D01*
X99195500Y-49926999D01*
X99195500Y-50073000D01*
X99233288Y-50214028D01*
X99233289Y-50214031D01*
X99306286Y-50340467D01*
X99306291Y-50340473D01*
X99323138Y-50357321D01*
X99356622Y-50418645D01*
X99351636Y-50488336D01*
X99323138Y-50532679D01*
X99306291Y-50549526D01*
X99306286Y-50549532D01*
X99233289Y-50675968D01*
X99233288Y-50675971D01*
X99195500Y-50816999D01*
X99195500Y-50963001D01*
X99205415Y-51000002D01*
X99233288Y-51104028D01*
X99233289Y-51104031D01*
X99306286Y-51230467D01*
X99306291Y-51230473D01*
X99323138Y-51247321D01*
X99356622Y-51308645D01*
X99351636Y-51378336D01*
X99323138Y-51422679D01*
X99306291Y-51439526D01*
X99306286Y-51439532D01*
X99233289Y-51565968D01*
X99233288Y-51565971D01*
X99195500Y-51706999D01*
X99195500Y-51853001D01*
X99223351Y-51956941D01*
X99233288Y-51994028D01*
X99233289Y-51994031D01*
X99306286Y-52120467D01*
X99306290Y-52120472D01*
X99364815Y-52178997D01*
X99398300Y-52240320D01*
X99393316Y-52310012D01*
X99386189Y-52325695D01*
X99304958Y-52475798D01*
X99304952Y-52475812D01*
X99234974Y-52679649D01*
X99199500Y-52892238D01*
X99199500Y-59607761D01*
X99234974Y-59820350D01*
X99304952Y-60024187D01*
X99304958Y-60024201D01*
X99386189Y-60174303D01*
X99400784Y-60242631D01*
X99376121Y-60308003D01*
X99364817Y-60321000D01*
X99306287Y-60379531D01*
X99306286Y-60379532D01*
X99233289Y-60505968D01*
X99233288Y-60505971D01*
X99195500Y-60646999D01*
X99195500Y-60793000D01*
X99233288Y-60934028D01*
X99233289Y-60934031D01*
X99306286Y-61060467D01*
X99306291Y-61060473D01*
X99323138Y-61077321D01*
X99356622Y-61138645D01*
X99351636Y-61208336D01*
X99323138Y-61252679D01*
X99306291Y-61269526D01*
X99306286Y-61269532D01*
X99233289Y-61395968D01*
X99233288Y-61395971D01*
X99195500Y-61536999D01*
X99195500Y-61683001D01*
X99228519Y-61806228D01*
X99233288Y-61824028D01*
X99233289Y-61824031D01*
X99306286Y-61950467D01*
X99306291Y-61950473D01*
X99323138Y-61967321D01*
X99356622Y-62028645D01*
X99351636Y-62098336D01*
X99323138Y-62142679D01*
X99306291Y-62159526D01*
X99306286Y-62159532D01*
X99233289Y-62285968D01*
X99233288Y-62285971D01*
X99195500Y-62426999D01*
X99195500Y-62573001D01*
X99209701Y-62626000D01*
X99233288Y-62714028D01*
X99233289Y-62714031D01*
X99306286Y-62840467D01*
X99306291Y-62840473D01*
X99323138Y-62857321D01*
X99356622Y-62918645D01*
X99351636Y-62988336D01*
X99323138Y-63032679D01*
X99306291Y-63049526D01*
X99306286Y-63049532D01*
X99233289Y-63175968D01*
X99233288Y-63175971D01*
X99195500Y-63316999D01*
X99195500Y-63463001D01*
X99218460Y-63548687D01*
X99233288Y-63604028D01*
X99233289Y-63604031D01*
X99306286Y-63730467D01*
X99306291Y-63730473D01*
X99323138Y-63747321D01*
X99356622Y-63808645D01*
X99351636Y-63878336D01*
X99323138Y-63922679D01*
X99306291Y-63939526D01*
X99306286Y-63939532D01*
X99235726Y-64061747D01*
X99185159Y-64109963D01*
X99116552Y-64123186D01*
X99051687Y-64097218D01*
X99032486Y-64078412D01*
X99000528Y-64039471D01*
X98848260Y-63914507D01*
X98848253Y-63914503D01*
X98674541Y-63821652D01*
X98540000Y-63780839D01*
X98540000Y-64540382D01*
X98489554Y-64489936D01*
X98415445Y-64447149D01*
X98332787Y-64425000D01*
X98247213Y-64425000D01*
X98164555Y-64447149D01*
X98090446Y-64489936D01*
X98040000Y-64540382D01*
X98040000Y-63780839D01*
X98039999Y-63780839D01*
X97905463Y-63821651D01*
X97766453Y-63895953D01*
X97698050Y-63910194D01*
X97632806Y-63885194D01*
X97591436Y-63828888D01*
X97584000Y-63786594D01*
X97584000Y-63014978D01*
X97603685Y-62947939D01*
X97620319Y-62927297D01*
X97707149Y-62840467D01*
X97951313Y-62596304D01*
X98025565Y-62467696D01*
X98064001Y-62324252D01*
X98064001Y-62175747D01*
X98064001Y-62168152D01*
X98064000Y-62168134D01*
X98064000Y-48175750D01*
X98064000Y-48175748D01*
X98025565Y-48032304D01*
X97951313Y-47903696D01*
X97846304Y-47798687D01*
X97846303Y-47798686D01*
X97841973Y-47794356D01*
X97841962Y-47794346D01*
X95958383Y-45910767D01*
X95958381Y-45910764D01*
X95846306Y-45798689D01*
X95846304Y-45798687D01*
X95717698Y-45724436D01*
X95717697Y-45724435D01*
X95692097Y-45717576D01*
X95666499Y-45710717D01*
X95666498Y-45710716D01*
X95598969Y-45692622D01*
X95574253Y-45686000D01*
X95574252Y-45686000D01*
X92797480Y-45686000D01*
X92730441Y-45666315D01*
X92721530Y-45659924D01*
X92577697Y-45569547D01*
X92577694Y-45569545D01*
X92418056Y-45513685D01*
X92250003Y-45494751D01*
X92249997Y-45494751D01*
X92081943Y-45513685D01*
X91922305Y-45569545D01*
X91922302Y-45569547D01*
X91779115Y-45659518D01*
X91779109Y-45659523D01*
X91659523Y-45779109D01*
X91659518Y-45779115D01*
X91569547Y-45922302D01*
X91569545Y-45922305D01*
X91513685Y-46081943D01*
X91494751Y-46249997D01*
X91494751Y-46250002D01*
X91513685Y-46418056D01*
X91569545Y-46577694D01*
X91569547Y-46577697D01*
X91659518Y-46720884D01*
X91659523Y-46720890D01*
X91779109Y-46840476D01*
X91779115Y-46840481D01*
X91922302Y-46930452D01*
X91922305Y-46930454D01*
X91922309Y-46930455D01*
X91922310Y-46930456D01*
X91985037Y-46952405D01*
X92081943Y-46986314D01*
X92249997Y-47005249D01*
X92250000Y-47005249D01*
X92250003Y-47005249D01*
X92418056Y-46986314D01*
X92418059Y-46986313D01*
X92577690Y-46930456D01*
X92577692Y-46930454D01*
X92577694Y-46930454D01*
X92577697Y-46930452D01*
X92726786Y-46836773D01*
X92727575Y-46838029D01*
X92784849Y-46814645D01*
X92797480Y-46814000D01*
X95215022Y-46814000D01*
X95282061Y-46833685D01*
X95302703Y-46850319D01*
X96899681Y-48447297D01*
X96933166Y-48508620D01*
X96936000Y-48534978D01*
X96936000Y-61965020D01*
X96916315Y-62032059D01*
X96899681Y-62052701D01*
X96666626Y-62285755D01*
X96666627Y-62285756D01*
X96568684Y-62383699D01*
X96516299Y-62474434D01*
X96516299Y-62474435D01*
X96494433Y-62512305D01*
X96478172Y-62572999D01*
X96478172Y-62573000D01*
X96456000Y-62655748D01*
X96456000Y-63632052D01*
X96436315Y-63699091D01*
X96383511Y-63744846D01*
X96314353Y-63754790D01*
X96250797Y-63725765D01*
X96224613Y-63694053D01*
X96201313Y-63653696D01*
X96091973Y-63544356D01*
X96091962Y-63544346D01*
X96036319Y-63488703D01*
X96002834Y-63427380D01*
X96000000Y-63401022D01*
X96000000Y-62750000D01*
X94688000Y-62750000D01*
X94620961Y-62730315D01*
X94575206Y-62677511D01*
X94564000Y-62626000D01*
X94564000Y-55507590D01*
X94583685Y-55440551D01*
X94622026Y-55402597D01*
X94720890Y-55340477D01*
X94840477Y-55220890D01*
X94922419Y-55090481D01*
X94930452Y-55077697D01*
X94930454Y-55077694D01*
X94930454Y-55077692D01*
X94930456Y-55077690D01*
X94986313Y-54918059D01*
X94986313Y-54918058D01*
X94986314Y-54918056D01*
X95005249Y-54750002D01*
X95005249Y-54749997D01*
X94986314Y-54581943D01*
X94930454Y-54422305D01*
X94930452Y-54422302D01*
X94840481Y-54279115D01*
X94840476Y-54279109D01*
X94720890Y-54159523D01*
X94720884Y-54159518D01*
X94577697Y-54069547D01*
X94577694Y-54069545D01*
X94418056Y-54013685D01*
X94250003Y-53994751D01*
X94249996Y-53994751D01*
X94201883Y-54000172D01*
X94133062Y-53988117D01*
X94081682Y-53940768D01*
X94064000Y-53876952D01*
X94064000Y-53034978D01*
X94083685Y-52967939D01*
X94100319Y-52947297D01*
X94142066Y-52905550D01*
X94203389Y-52872065D01*
X94215864Y-52870011D01*
X94293053Y-52861314D01*
X94293056Y-52861313D01*
X94293059Y-52861313D01*
X94452690Y-52805456D01*
X94452692Y-52805454D01*
X94452694Y-52805454D01*
X94452697Y-52805452D01*
X94595884Y-52715481D01*
X94595885Y-52715480D01*
X94595890Y-52715477D01*
X94715477Y-52595890D01*
X94715481Y-52595884D01*
X94805452Y-52452697D01*
X94805454Y-52452694D01*
X94805454Y-52452692D01*
X94805456Y-52452690D01*
X94861313Y-52293059D01*
X94861313Y-52293058D01*
X94861314Y-52293056D01*
X94880249Y-52125002D01*
X94880249Y-52124997D01*
X94861314Y-51956943D01*
X94824943Y-51853001D01*
X94805456Y-51797310D01*
X94772594Y-51745011D01*
X94745622Y-51702085D01*
X94726622Y-51634849D01*
X94746990Y-51568013D01*
X94762935Y-51548432D01*
X94840477Y-51470890D01*
X94860184Y-51439527D01*
X94930452Y-51327697D01*
X94930454Y-51327694D01*
X94930454Y-51327692D01*
X94930456Y-51327690D01*
X94986313Y-51168059D01*
X94986313Y-51168058D01*
X94986314Y-51168056D01*
X95005249Y-51000002D01*
X95005249Y-50999997D01*
X94986314Y-50831943D01*
X94930454Y-50672305D01*
X94930452Y-50672302D01*
X94840481Y-50529115D01*
X94840476Y-50529109D01*
X94720890Y-50409523D01*
X94720884Y-50409518D01*
X94577697Y-50319547D01*
X94577694Y-50319545D01*
X94418056Y-50263685D01*
X94250003Y-50244751D01*
X94249997Y-50244751D01*
X94081943Y-50263685D01*
X93922305Y-50319545D01*
X93922302Y-50319547D01*
X93779115Y-50409518D01*
X93779109Y-50409523D01*
X93659523Y-50529109D01*
X93659518Y-50529115D01*
X93569547Y-50672302D01*
X93569544Y-50672307D01*
X93513687Y-50831941D01*
X93504988Y-50909138D01*
X93477920Y-50973551D01*
X93469449Y-50982933D01*
X92863698Y-51588685D01*
X92758689Y-51693693D01*
X92758685Y-51693699D01*
X92684436Y-51822301D01*
X92684435Y-51822304D01*
X92646000Y-51965748D01*
X92646000Y-56045190D01*
X92626315Y-56112229D01*
X92573511Y-56157984D01*
X92504353Y-56167928D01*
X92456028Y-56150184D01*
X92327692Y-56069545D01*
X92327691Y-56069544D01*
X92327690Y-56069544D01*
X92289370Y-56056135D01*
X92168056Y-56013685D01*
X92000003Y-55994751D01*
X91999997Y-55994751D01*
X91831943Y-56013685D01*
X91672305Y-56069545D01*
X91672302Y-56069547D01*
X91529115Y-56159518D01*
X91529109Y-56159523D01*
X91409523Y-56279109D01*
X91409518Y-56279115D01*
X91319547Y-56422302D01*
X91319544Y-56422307D01*
X91263687Y-56581941D01*
X91254988Y-56659138D01*
X91227920Y-56723551D01*
X91219449Y-56732933D01*
X89935011Y-58017371D01*
X89873688Y-58050856D01*
X89803996Y-58045872D01*
X89781359Y-58034684D01*
X89677692Y-57969545D01*
X89677694Y-57969545D01*
X89518056Y-57913685D01*
X89350003Y-57894751D01*
X89349997Y-57894751D01*
X89181942Y-57913686D01*
X89033559Y-57965607D01*
X88963780Y-57969168D01*
X88903153Y-57934439D01*
X88870926Y-57872445D01*
X88868605Y-57848565D01*
X88868605Y-55730355D01*
X88868605Y-55730353D01*
X88830170Y-55586909D01*
X88755918Y-55458301D01*
X88650909Y-55353292D01*
X88650908Y-55353291D01*
X88646578Y-55348961D01*
X88646567Y-55348951D01*
X87780550Y-54482934D01*
X87747065Y-54421611D01*
X87745011Y-54409136D01*
X87736314Y-54331944D01*
X87680454Y-54172305D01*
X87680452Y-54172302D01*
X87590481Y-54029115D01*
X87590476Y-54029109D01*
X87470890Y-53909523D01*
X87470884Y-53909518D01*
X87327697Y-53819547D01*
X87327694Y-53819545D01*
X87168056Y-53763685D01*
X87000003Y-53744751D01*
X86999997Y-53744751D01*
X86831943Y-53763685D01*
X86672305Y-53819545D01*
X86672302Y-53819547D01*
X86529115Y-53909518D01*
X86529109Y-53909523D01*
X86409523Y-54029109D01*
X86409518Y-54029115D01*
X86319547Y-54172302D01*
X86319545Y-54172305D01*
X86263685Y-54331943D01*
X86244751Y-54499997D01*
X86244751Y-54500002D01*
X86263685Y-54668056D01*
X86319545Y-54827694D01*
X86319547Y-54827697D01*
X86409518Y-54970884D01*
X86409523Y-54970890D01*
X86529109Y-55090476D01*
X86529115Y-55090481D01*
X86672302Y-55180452D01*
X86672305Y-55180454D01*
X86672309Y-55180455D01*
X86672310Y-55180456D01*
X86831941Y-55236313D01*
X86831944Y-55236314D01*
X86909136Y-55245011D01*
X86973550Y-55272077D01*
X86982934Y-55280550D01*
X87253333Y-55550949D01*
X87286818Y-55612272D01*
X87281834Y-55681964D01*
X87239962Y-55737897D01*
X87174498Y-55762314D01*
X87151769Y-55761850D01*
X87000004Y-55744751D01*
X86999997Y-55744751D01*
X86831943Y-55763685D01*
X86672305Y-55819545D01*
X86672302Y-55819547D01*
X86529115Y-55909518D01*
X86529109Y-55909523D01*
X86409523Y-56029109D01*
X86409518Y-56029115D01*
X86319547Y-56172302D01*
X86319545Y-56172305D01*
X86263685Y-56331943D01*
X86244751Y-56499997D01*
X86244751Y-56500002D01*
X86263685Y-56668056D01*
X86319545Y-56827694D01*
X86319547Y-56827697D01*
X86409518Y-56970884D01*
X86409523Y-56970890D01*
X86529109Y-57090476D01*
X86529115Y-57090481D01*
X86672302Y-57180452D01*
X86672305Y-57180454D01*
X86672309Y-57180455D01*
X86672310Y-57180456D01*
X86831941Y-57236313D01*
X86831944Y-57236314D01*
X86909135Y-57245011D01*
X86973549Y-57272077D01*
X86982933Y-57280550D01*
X87399681Y-57697297D01*
X87433166Y-57758620D01*
X87436000Y-57784978D01*
X87436000Y-64127700D01*
X87416315Y-64194739D01*
X87363511Y-64240494D01*
X87298117Y-64250920D01*
X87200004Y-64239866D01*
X87199997Y-64239866D01*
X87031943Y-64258800D01*
X86872305Y-64314660D01*
X86872302Y-64314662D01*
X86729115Y-64404633D01*
X86729109Y-64404638D01*
X86609523Y-64524224D01*
X86609518Y-64524230D01*
X86519547Y-64667417D01*
X86519545Y-64667420D01*
X86463685Y-64827058D01*
X86444751Y-64995112D01*
X86444751Y-64995117D01*
X86463685Y-65163171D01*
X86519545Y-65322809D01*
X86519547Y-65322812D01*
X86609518Y-65465999D01*
X86609523Y-65466005D01*
X86616181Y-65472663D01*
X86649666Y-65533986D01*
X86652500Y-65560344D01*
X86652500Y-66619378D01*
X86666650Y-66672187D01*
X86690935Y-66762823D01*
X86690936Y-66762824D01*
X86765187Y-66891430D01*
X86765189Y-66891432D01*
X86877261Y-67003504D01*
X86877267Y-67003509D01*
X87339220Y-67465462D01*
X87339241Y-67465485D01*
X87388749Y-67514992D01*
X87422235Y-67576315D01*
X87417251Y-67646006D01*
X87388750Y-67690355D01*
X86153698Y-68925408D01*
X86048689Y-69030416D01*
X86048685Y-69030422D01*
X85974436Y-69159024D01*
X85974435Y-69159027D01*
X85936000Y-69302471D01*
X85936000Y-70952519D01*
X85916315Y-71019558D01*
X85909924Y-71028469D01*
X85819547Y-71172302D01*
X85819545Y-71172305D01*
X85763685Y-71331943D01*
X85744751Y-71499997D01*
X85744751Y-71500002D01*
X85763685Y-71668056D01*
X85819545Y-71827692D01*
X85893901Y-71946028D01*
X85912901Y-72013264D01*
X85892533Y-72080100D01*
X85839266Y-72125314D01*
X85788907Y-72136000D01*
X85484978Y-72136000D01*
X85417939Y-72116315D01*
X85397297Y-72099681D01*
X84780550Y-71482934D01*
X84747065Y-71421611D01*
X84745011Y-71409136D01*
X84736314Y-71331944D01*
X84736313Y-71331941D01*
X84680456Y-71172310D01*
X84680455Y-71172309D01*
X84680454Y-71172305D01*
X84680452Y-71172302D01*
X84590481Y-71029115D01*
X84590476Y-71029109D01*
X84470890Y-70909523D01*
X84470884Y-70909518D01*
X84327697Y-70819547D01*
X84327694Y-70819545D01*
X84168056Y-70763685D01*
X84000003Y-70744751D01*
X83999997Y-70744751D01*
X83831943Y-70763685D01*
X83672305Y-70819545D01*
X83672302Y-70819547D01*
X83529115Y-70909518D01*
X83529109Y-70909523D01*
X83512181Y-70926452D01*
X83450858Y-70959937D01*
X83381166Y-70954953D01*
X83325233Y-70913081D01*
X83300816Y-70847617D01*
X83300500Y-70838771D01*
X83300500Y-70460439D01*
X83280020Y-70384009D01*
X83280017Y-70384004D01*
X83240464Y-70315495D01*
X83240458Y-70315487D01*
X83184512Y-70259541D01*
X83184504Y-70259535D01*
X83115995Y-70219982D01*
X83115990Y-70219979D01*
X83090513Y-70213152D01*
X83039562Y-70199500D01*
X83039560Y-70199500D01*
X82674500Y-70199500D01*
X82607461Y-70179815D01*
X82561706Y-70127011D01*
X82550500Y-70075500D01*
X82550500Y-68710372D01*
X82570185Y-68643333D01*
X82622989Y-68597578D01*
X82660615Y-68587151D01*
X82668059Y-68586313D01*
X82827690Y-68530456D01*
X82827693Y-68530453D01*
X82827697Y-68530452D01*
X82970884Y-68440481D01*
X82970885Y-68440480D01*
X82970890Y-68440477D01*
X83090477Y-68320890D01*
X83109587Y-68290477D01*
X83180452Y-68177697D01*
X83180454Y-68177694D01*
X83180454Y-68177692D01*
X83180456Y-68177690D01*
X83236313Y-68018059D01*
X83241984Y-67967732D01*
X83245011Y-67940862D01*
X83272077Y-67876448D01*
X83280540Y-67867074D01*
X83336094Y-67811521D01*
X83336099Y-67811517D01*
X83346302Y-67801313D01*
X83346304Y-67801313D01*
X83451313Y-67696304D01*
X83525565Y-67567696D01*
X83564001Y-67424252D01*
X83564001Y-67275747D01*
X83564001Y-67268152D01*
X83564000Y-67268134D01*
X83564000Y-66175749D01*
X83563999Y-66175743D01*
X83554230Y-66139284D01*
X83554230Y-66139283D01*
X83525565Y-66032303D01*
X83488260Y-65967690D01*
X83451313Y-65903696D01*
X83350318Y-65802701D01*
X83316834Y-65741378D01*
X83314000Y-65715020D01*
X83314000Y-53034978D01*
X83333685Y-52967939D01*
X83350319Y-52947297D01*
X83927844Y-52369772D01*
X84517067Y-51780548D01*
X84578388Y-51747065D01*
X84590863Y-51745011D01*
X84668055Y-51736314D01*
X84668057Y-51736313D01*
X84668059Y-51736313D01*
X84827690Y-51680456D01*
X84827692Y-51680454D01*
X84827694Y-51680454D01*
X84827697Y-51680452D01*
X84970884Y-51590481D01*
X84970885Y-51590480D01*
X84970890Y-51590477D01*
X85090477Y-51470890D01*
X85110184Y-51439527D01*
X85180452Y-51327697D01*
X85180454Y-51327694D01*
X85180454Y-51327692D01*
X85180456Y-51327690D01*
X85236313Y-51168059D01*
X85236313Y-51168058D01*
X85236314Y-51168056D01*
X85255249Y-51000002D01*
X85255249Y-50999997D01*
X85236314Y-50831943D01*
X85180454Y-50672305D01*
X85180452Y-50672302D01*
X85090481Y-50529115D01*
X85090476Y-50529109D01*
X84970890Y-50409523D01*
X84970884Y-50409518D01*
X84827697Y-50319547D01*
X84827694Y-50319545D01*
X84668056Y-50263685D01*
X84500003Y-50244751D01*
X84499997Y-50244751D01*
X84331943Y-50263685D01*
X84172305Y-50319545D01*
X84172302Y-50319547D01*
X84029115Y-50409518D01*
X84029109Y-50409523D01*
X83909523Y-50529109D01*
X83909518Y-50529115D01*
X83819547Y-50672302D01*
X83819544Y-50672307D01*
X83763687Y-50831941D01*
X83754988Y-50909137D01*
X83727920Y-50973550D01*
X83719449Y-50982932D01*
X82403698Y-52298685D01*
X82298689Y-52403693D01*
X82298685Y-52403699D01*
X82224436Y-52532301D01*
X82224435Y-52532304D01*
X82186000Y-52675748D01*
X82186000Y-66074249D01*
X82185999Y-66074249D01*
X82186000Y-66074252D01*
X82186000Y-66074253D01*
X82193889Y-66103696D01*
X82203425Y-66139284D01*
X82224435Y-66217697D01*
X82224436Y-66217698D01*
X82298687Y-66346304D01*
X82298689Y-66346306D01*
X82399681Y-66447298D01*
X82433166Y-66508621D01*
X82436000Y-66534979D01*
X82436000Y-66991148D01*
X82416315Y-67058187D01*
X82363511Y-67103942D01*
X82338454Y-67110896D01*
X82338737Y-67112135D01*
X82331949Y-67113684D01*
X82172307Y-67169544D01*
X82172302Y-67169547D01*
X82029115Y-67259518D01*
X82029109Y-67259523D01*
X81909523Y-67379109D01*
X81909518Y-67379115D01*
X81819547Y-67522302D01*
X81819545Y-67522305D01*
X81763685Y-67681943D01*
X81744751Y-67849997D01*
X81744751Y-67850002D01*
X81763686Y-68018058D01*
X81769455Y-68034544D01*
X81773018Y-68104323D01*
X81738289Y-68164951D01*
X81676296Y-68197178D01*
X81652414Y-68199500D01*
X80924500Y-68199500D01*
X80857461Y-68179815D01*
X80811706Y-68127011D01*
X80800500Y-68075500D01*
X80800500Y-65392238D01*
X80786533Y-65308538D01*
X80765026Y-65179652D01*
X80695045Y-64975805D01*
X80637663Y-64869772D01*
X80613810Y-64825695D01*
X80599215Y-64757367D01*
X80623878Y-64691995D01*
X80635170Y-64679011D01*
X80693711Y-64620471D01*
X80766712Y-64494029D01*
X80804500Y-64353001D01*
X80804500Y-64206999D01*
X80766712Y-64065971D01*
X80693711Y-63939529D01*
X80676863Y-63922681D01*
X80643378Y-63861358D01*
X80648362Y-63791666D01*
X80676863Y-63747319D01*
X80679336Y-63744846D01*
X80693711Y-63730471D01*
X80766712Y-63604029D01*
X80804500Y-63463001D01*
X80804500Y-63316999D01*
X80766712Y-63175971D01*
X80693711Y-63049529D01*
X80676863Y-63032681D01*
X80643378Y-62971358D01*
X80648362Y-62901666D01*
X80676863Y-62857319D01*
X80693711Y-62840471D01*
X80766712Y-62714029D01*
X80804500Y-62573001D01*
X80804500Y-62426999D01*
X80766712Y-62285971D01*
X80730211Y-62222750D01*
X80693713Y-62159532D01*
X80693709Y-62159527D01*
X80666526Y-62132344D01*
X80633041Y-62071021D01*
X80638025Y-62001329D01*
X80666523Y-61956985D01*
X80690839Y-61932670D01*
X80763840Y-61806228D01*
X80801628Y-61665200D01*
X80801628Y-61519198D01*
X80763840Y-61378170D01*
X80701118Y-61269532D01*
X80690841Y-61251731D01*
X80690837Y-61251726D01*
X80684327Y-61245216D01*
X80650842Y-61183893D01*
X80655826Y-61114201D01*
X80684331Y-61069850D01*
X80693711Y-61060471D01*
X80766712Y-60934029D01*
X80804500Y-60793001D01*
X80804500Y-60646999D01*
X80766712Y-60505971D01*
X80693711Y-60379529D01*
X80635182Y-60321000D01*
X80601699Y-60259677D01*
X80606684Y-60189986D01*
X80613811Y-60174302D01*
X80695040Y-60024205D01*
X80695042Y-60024201D01*
X80695045Y-60024195D01*
X80765026Y-59820348D01*
X80800500Y-59607762D01*
X80800500Y-59500000D01*
X80800500Y-59452405D01*
X80800500Y-52960438D01*
X80800500Y-52892238D01*
X80765026Y-52679652D01*
X80695045Y-52475805D01*
X80656023Y-52403699D01*
X80613810Y-52325695D01*
X80599215Y-52257367D01*
X80623878Y-52191995D01*
X80635170Y-52179011D01*
X80693711Y-52120471D01*
X80766712Y-51994029D01*
X80804500Y-51853001D01*
X80804500Y-51706999D01*
X80766712Y-51565971D01*
X80693711Y-51439529D01*
X80676863Y-51422681D01*
X80643378Y-51361358D01*
X80648362Y-51291666D01*
X80676863Y-51247319D01*
X80693711Y-51230471D01*
X80766712Y-51104029D01*
X80804500Y-50963001D01*
X80804500Y-50816999D01*
X80766712Y-50675971D01*
X80693711Y-50549529D01*
X80676863Y-50532681D01*
X80643378Y-50471358D01*
X80648362Y-50401666D01*
X80676863Y-50357319D01*
X80693711Y-50340471D01*
X80766712Y-50214029D01*
X80804500Y-50073001D01*
X80804500Y-49926999D01*
X80766712Y-49785971D01*
X80693711Y-49659529D01*
X80666526Y-49632344D01*
X80633041Y-49571021D01*
X80638025Y-49501329D01*
X80666523Y-49456985D01*
X80690839Y-49432670D01*
X80763840Y-49306228D01*
X80801628Y-49165200D01*
X80801628Y-49019198D01*
X80763840Y-48878170D01*
X80701118Y-48769532D01*
X80690841Y-48751731D01*
X80690837Y-48751726D01*
X80684327Y-48745216D01*
X80650842Y-48683893D01*
X80655826Y-48614201D01*
X80684331Y-48569850D01*
X80693711Y-48560471D01*
X80766712Y-48434029D01*
X80804500Y-48293001D01*
X80804500Y-48146999D01*
X80766712Y-48005971D01*
X80730211Y-47942750D01*
X80693713Y-47879532D01*
X80693712Y-47879531D01*
X80693711Y-47879529D01*
X80635182Y-47821000D01*
X80601699Y-47759677D01*
X80606684Y-47689986D01*
X80613811Y-47674302D01*
X80695040Y-47524205D01*
X80695042Y-47524201D01*
X80695045Y-47524195D01*
X80765026Y-47320348D01*
X80800500Y-47107762D01*
X80800500Y-47000000D01*
X80800500Y-46952405D01*
X80800500Y-45124000D01*
X80820185Y-45056961D01*
X80872989Y-45011206D01*
X80924500Y-45000000D01*
X99075500Y-45000000D01*
X99142539Y-45019685D01*
G37*
%TD.AperFunction*%
%TD*%
M02*
