M48
; DRILL file {KiCad 8.0.2} date 2024-05-29T00:31:01+0900
; FORMAT={-:-/ absolute / inch / decimal}
; #@! TF.CreationDate,2024-05-29T00:31:01+09:00
; #@! TF.GenerationSoftware,Kicad,Pcbnew,8.0.2
; #@! TF.FileFunction,Plated,1,2,PTH
FMAT,2
INCH
; #@! TA.AperFunction,Plated,PTH,ViaDrill
T1C0.0079
; #@! TA.AperFunction,Plated,PTH,ComponentDrill
T2C0.0256
%
G90
G05
T1
X3.2185Y-2.676
X3.2677Y-2.7559
X3.2677Y-2.7854
X3.2874Y-2.5492
X3.2972Y-2.6476
X3.3071Y-2.5689
X3.3268Y-2.0079
X3.3333Y-1.8701
X3.3333Y-1.9292
X3.3563Y-2.2638
X3.3563Y-2.3228
X3.3661Y-2.6476
X3.3661Y-2.7756
X3.376Y-2.7559
X3.3858Y-2.3228
X3.3923Y-1.8701
X3.3923Y-1.9292
X3.3923Y-2.0473
X3.3923Y-2.2835
X3.4055Y-2.5394
X3.4154Y-2.3228
X3.4252Y-2.1457
X3.4252Y-2.2244
X3.4252Y-2.6083
X3.4514Y-1.8701
X3.4514Y-1.9292
X3.4514Y-2.0473
X3.5039Y-2.5
X3.5105Y-1.8701
X3.5105Y-1.9292
X3.5105Y-2.0473
X3.5105Y-2.1064
X3.5105Y-2.1654
X3.5105Y-2.2245
X3.5335Y-2.2933
X3.5335Y-2.7264
X3.5695Y-1.8701
X3.5695Y-1.9292
X3.5695Y-2.0473
X3.5695Y-2.1064
X3.5695Y-2.1654
X3.6024Y-2.6673
X3.6024Y-2.7756
X3.622Y-2.2343
X3.6286Y-1.8701
X3.6286Y-1.9292
X3.6286Y-2.0473
X3.6286Y-2.1064
X3.6286Y-2.1654
X3.6319Y-1.8209
X3.6417Y-2.6969
X3.6417Y-2.7756
X3.6516Y-2.6378
X3.7106Y-2.0079
X3.7106Y-2.1555
X3.7303Y-2.0276
X3.75Y-2.3327
X3.7598Y-1.9783
X3.7697Y-2.6673
X3.7894Y-2.4705
X3.7992Y-2.4213
X3.878Y-2.4311
X3.878Y-2.4606
X3.878Y-2.6673
T2
X3.6197Y-2.5492
X3.6697Y-2.5492
X3.7197Y-2.5492
X3.7697Y-2.5492
X3.8197Y-2.5492
X3.8697Y-2.5492
M30
