M48
; DRILL file {KiCad 8.0.2} date 2024-05-29T00:31:01+0900
; FORMAT={-:-/ absolute / inch / decimal}
; #@! TF.CreationDate,2024-05-29T00:31:01+09:00
; #@! TF.GenerationSoftware,Kicad,Pcbnew,8.0.2
; #@! TF.FileFunction,NonPlated,1,2,NPTH
FMAT,2
INCH
; #@! TA.AperFunction,NonPlated,NPTH,ComponentDrill
T1C0.0236
%
G90
G05
T1
X3.1004Y-1.8984
X3.1004Y-1.9335
X3.1004Y-1.9685
X3.1004Y-2.0035
X3.1004Y-2.0386
X3.1004Y-2.3906
X3.1004Y-2.4256
X3.1004Y-2.4606
X3.1004Y-2.4957
X3.1004Y-2.5307
X3.1593Y-1.9328
X3.1593Y-2.4249
X3.1594Y-1.8984
X3.1594Y-1.9685
X3.1594Y-2.0035
X3.1594Y-2.0386
X3.1594Y-2.3906
X3.1594Y-2.4606
X3.1594Y-2.4957
X3.1594Y-2.5307
X3.9272Y-1.8984
X3.9272Y-1.9335
X3.9272Y-1.9685
X3.9272Y-2.0035
X3.9272Y-2.0386
X3.9272Y-2.3906
X3.9272Y-2.4256
X3.9272Y-2.4606
X3.9272Y-2.4957
X3.9272Y-2.5307
X3.9861Y-1.9328
X3.9861Y-2.4249
X3.9862Y-1.8984
X3.9862Y-1.9685
X3.9862Y-2.0035
X3.9862Y-2.0386
X3.9862Y-2.3906
X3.9862Y-2.4606
X3.9862Y-2.4957
X3.9862Y-2.5307
M30
