%TF.GenerationSoftware,KiCad,Pcbnew,8.0.2*%
%TF.CreationDate,2024-06-11T21:25:35+09:00*%
%TF.ProjectId,smartlight,736d6172-746c-4696-9768-742e6b696361,rev?*%
%TF.SameCoordinates,Original*%
%TF.FileFunction,Legend,Top*%
%TF.FilePolarity,Positive*%
%FSLAX46Y46*%
G04 Gerber Fmt 4.6, Leading zero omitted, Abs format (unit mm)*
G04 Created by KiCad (PCBNEW 8.0.2) date 2024-06-11 21:25:35*
%MOMM*%
%LPD*%
G01*
G04 APERTURE LIST*
G04 Aperture macros list*
%AMRoundRect*
0 Rectangle with rounded corners*
0 $1 Rounding radius*
0 $2 $3 $4 $5 $6 $7 $8 $9 X,Y pos of 4 corners*
0 Add a 4 corners polygon primitive as box body*
4,1,4,$2,$3,$4,$5,$6,$7,$8,$9,$2,$3,0*
0 Add four circle primitives for the rounded corners*
1,1,$1+$1,$2,$3*
1,1,$1+$1,$4,$5*
1,1,$1+$1,$6,$7*
1,1,$1+$1,$8,$9*
0 Add four rect primitives between the rounded corners*
20,1,$1+$1,$2,$3,$4,$5,0*
20,1,$1+$1,$4,$5,$6,$7,0*
20,1,$1+$1,$6,$7,$8,$9,0*
20,1,$1+$1,$8,$9,$2,$3,0*%
G04 Aperture macros list end*
%ADD10C,0.150000*%
%ADD11C,0.100000*%
%ADD12C,0.120000*%
%ADD13RoundRect,0.225000X-0.225000X-0.250000X0.225000X-0.250000X0.225000X0.250000X-0.225000X0.250000X0*%
%ADD14RoundRect,0.135000X0.135000X0.185000X-0.135000X0.185000X-0.135000X-0.185000X0.135000X-0.185000X0*%
%ADD15C,2.000000*%
%ADD16R,2.500000X1.000000*%
%ADD17R,1.000000X1.800000*%
%ADD18RoundRect,0.135000X-0.135000X-0.185000X0.135000X-0.185000X0.135000X0.185000X-0.135000X0.185000X0*%
%ADD19RoundRect,0.135000X-0.185000X0.135000X-0.185000X-0.135000X0.185000X-0.135000X0.185000X0.135000X0*%
%ADD20R,1.700000X3.500000*%
%ADD21C,0.600000*%
%ADD22R,1.000000X1.000000*%
%ADD23O,1.000000X1.000000*%
G04 APERTURE END LIST*
D10*
X70717731Y-45369819D02*
X70717731Y-44607914D01*
X70527255Y-44798390D02*
X70717731Y-44607914D01*
X70717731Y-44607914D02*
X70908207Y-44798390D01*
X71432017Y-44703152D02*
X71812969Y-44703152D01*
X71574874Y-45369819D02*
X71574874Y-44512676D01*
X71574874Y-44512676D02*
X71622493Y-44417438D01*
X71622493Y-44417438D02*
X71717731Y-44369819D01*
X71717731Y-44369819D02*
X71812969Y-44369819D01*
X72146303Y-45369819D02*
X72146303Y-44703152D01*
X72146303Y-44369819D02*
X72098684Y-44417438D01*
X72098684Y-44417438D02*
X72146303Y-44465057D01*
X72146303Y-44465057D02*
X72193922Y-44417438D01*
X72193922Y-44417438D02*
X72146303Y-44369819D01*
X72146303Y-44369819D02*
X72146303Y-44465057D01*
X73051064Y-45369819D02*
X73051064Y-44369819D01*
X73051064Y-45322200D02*
X72955826Y-45369819D01*
X72955826Y-45369819D02*
X72765350Y-45369819D01*
X72765350Y-45369819D02*
X72670112Y-45322200D01*
X72670112Y-45322200D02*
X72622493Y-45274580D01*
X72622493Y-45274580D02*
X72574874Y-45179342D01*
X72574874Y-45179342D02*
X72574874Y-44893628D01*
X72574874Y-44893628D02*
X72622493Y-44798390D01*
X72622493Y-44798390D02*
X72670112Y-44750771D01*
X72670112Y-44750771D02*
X72765350Y-44703152D01*
X72765350Y-44703152D02*
X72955826Y-44703152D01*
X72955826Y-44703152D02*
X73051064Y-44750771D01*
X73955826Y-44703152D02*
X73955826Y-45369819D01*
X73527255Y-44703152D02*
X73527255Y-45226961D01*
X73527255Y-45226961D02*
X73574874Y-45322200D01*
X73574874Y-45322200D02*
X73670112Y-45369819D01*
X73670112Y-45369819D02*
X73812969Y-45369819D01*
X73812969Y-45369819D02*
X73908207Y-45322200D01*
X73908207Y-45322200D02*
X73955826Y-45274580D01*
X74860588Y-45322200D02*
X74765350Y-45369819D01*
X74765350Y-45369819D02*
X74574874Y-45369819D01*
X74574874Y-45369819D02*
X74479636Y-45322200D01*
X74479636Y-45322200D02*
X74432017Y-45274580D01*
X74432017Y-45274580D02*
X74384398Y-45179342D01*
X74384398Y-45179342D02*
X74384398Y-44893628D01*
X74384398Y-44893628D02*
X74432017Y-44798390D01*
X74432017Y-44798390D02*
X74479636Y-44750771D01*
X74479636Y-44750771D02*
X74574874Y-44703152D01*
X74574874Y-44703152D02*
X74765350Y-44703152D01*
X74765350Y-44703152D02*
X74860588Y-44750771D01*
X75289160Y-45369819D02*
X75289160Y-44703152D01*
X75289160Y-44369819D02*
X75241541Y-44417438D01*
X75241541Y-44417438D02*
X75289160Y-44465057D01*
X75289160Y-44465057D02*
X75336779Y-44417438D01*
X75336779Y-44417438D02*
X75289160Y-44369819D01*
X75289160Y-44369819D02*
X75289160Y-44465057D01*
X76193921Y-45369819D02*
X76193921Y-44846009D01*
X76193921Y-44846009D02*
X76146302Y-44750771D01*
X76146302Y-44750771D02*
X76051064Y-44703152D01*
X76051064Y-44703152D02*
X75860588Y-44703152D01*
X75860588Y-44703152D02*
X75765350Y-44750771D01*
X76193921Y-45322200D02*
X76098683Y-45369819D01*
X76098683Y-45369819D02*
X75860588Y-45369819D01*
X75860588Y-45369819D02*
X75765350Y-45322200D01*
X75765350Y-45322200D02*
X75717731Y-45226961D01*
X75717731Y-45226961D02*
X75717731Y-45131723D01*
X75717731Y-45131723D02*
X75765350Y-45036485D01*
X75765350Y-45036485D02*
X75860588Y-44988866D01*
X75860588Y-44988866D02*
X76098683Y-44988866D01*
X76098683Y-44988866D02*
X76193921Y-44941247D01*
X76812969Y-45369819D02*
X76717731Y-45322200D01*
X76717731Y-45322200D02*
X76670112Y-45226961D01*
X76670112Y-45226961D02*
X76670112Y-44369819D01*
X77146303Y-45322200D02*
X77241541Y-45369819D01*
X77241541Y-45369819D02*
X77432017Y-45369819D01*
X77432017Y-45369819D02*
X77527255Y-45322200D01*
X77527255Y-45322200D02*
X77574874Y-45226961D01*
X77574874Y-45226961D02*
X77574874Y-45179342D01*
X77574874Y-45179342D02*
X77527255Y-45084104D01*
X77527255Y-45084104D02*
X77432017Y-45036485D01*
X77432017Y-45036485D02*
X77289160Y-45036485D01*
X77289160Y-45036485D02*
X77193922Y-44988866D01*
X77193922Y-44988866D02*
X77146303Y-44893628D01*
X77146303Y-44893628D02*
X77146303Y-44846009D01*
X77146303Y-44846009D02*
X77193922Y-44750771D01*
X77193922Y-44750771D02*
X77289160Y-44703152D01*
X77289160Y-44703152D02*
X77432017Y-44703152D01*
X77432017Y-44703152D02*
X77527255Y-44750771D01*
X70717731Y-72869819D02*
X70717731Y-72107914D01*
X70527255Y-72298390D02*
X70717731Y-72107914D01*
X70717731Y-72107914D02*
X70908207Y-72298390D01*
X71432017Y-72203152D02*
X71812969Y-72203152D01*
X71574874Y-72869819D02*
X71574874Y-72012676D01*
X71574874Y-72012676D02*
X71622493Y-71917438D01*
X71622493Y-71917438D02*
X71717731Y-71869819D01*
X71717731Y-71869819D02*
X71812969Y-71869819D01*
X72146303Y-72869819D02*
X72146303Y-72203152D01*
X72146303Y-71869819D02*
X72098684Y-71917438D01*
X72098684Y-71917438D02*
X72146303Y-71965057D01*
X72146303Y-71965057D02*
X72193922Y-71917438D01*
X72193922Y-71917438D02*
X72146303Y-71869819D01*
X72146303Y-71869819D02*
X72146303Y-71965057D01*
X73051064Y-72869819D02*
X73051064Y-71869819D01*
X73051064Y-72822200D02*
X72955826Y-72869819D01*
X72955826Y-72869819D02*
X72765350Y-72869819D01*
X72765350Y-72869819D02*
X72670112Y-72822200D01*
X72670112Y-72822200D02*
X72622493Y-72774580D01*
X72622493Y-72774580D02*
X72574874Y-72679342D01*
X72574874Y-72679342D02*
X72574874Y-72393628D01*
X72574874Y-72393628D02*
X72622493Y-72298390D01*
X72622493Y-72298390D02*
X72670112Y-72250771D01*
X72670112Y-72250771D02*
X72765350Y-72203152D01*
X72765350Y-72203152D02*
X72955826Y-72203152D01*
X72955826Y-72203152D02*
X73051064Y-72250771D01*
X73955826Y-72203152D02*
X73955826Y-72869819D01*
X73527255Y-72203152D02*
X73527255Y-72726961D01*
X73527255Y-72726961D02*
X73574874Y-72822200D01*
X73574874Y-72822200D02*
X73670112Y-72869819D01*
X73670112Y-72869819D02*
X73812969Y-72869819D01*
X73812969Y-72869819D02*
X73908207Y-72822200D01*
X73908207Y-72822200D02*
X73955826Y-72774580D01*
X74860588Y-72822200D02*
X74765350Y-72869819D01*
X74765350Y-72869819D02*
X74574874Y-72869819D01*
X74574874Y-72869819D02*
X74479636Y-72822200D01*
X74479636Y-72822200D02*
X74432017Y-72774580D01*
X74432017Y-72774580D02*
X74384398Y-72679342D01*
X74384398Y-72679342D02*
X74384398Y-72393628D01*
X74384398Y-72393628D02*
X74432017Y-72298390D01*
X74432017Y-72298390D02*
X74479636Y-72250771D01*
X74479636Y-72250771D02*
X74574874Y-72203152D01*
X74574874Y-72203152D02*
X74765350Y-72203152D01*
X74765350Y-72203152D02*
X74860588Y-72250771D01*
X75289160Y-72869819D02*
X75289160Y-72203152D01*
X75289160Y-71869819D02*
X75241541Y-71917438D01*
X75241541Y-71917438D02*
X75289160Y-71965057D01*
X75289160Y-71965057D02*
X75336779Y-71917438D01*
X75336779Y-71917438D02*
X75289160Y-71869819D01*
X75289160Y-71869819D02*
X75289160Y-71965057D01*
X76193921Y-72869819D02*
X76193921Y-72346009D01*
X76193921Y-72346009D02*
X76146302Y-72250771D01*
X76146302Y-72250771D02*
X76051064Y-72203152D01*
X76051064Y-72203152D02*
X75860588Y-72203152D01*
X75860588Y-72203152D02*
X75765350Y-72250771D01*
X76193921Y-72822200D02*
X76098683Y-72869819D01*
X76098683Y-72869819D02*
X75860588Y-72869819D01*
X75860588Y-72869819D02*
X75765350Y-72822200D01*
X75765350Y-72822200D02*
X75717731Y-72726961D01*
X75717731Y-72726961D02*
X75717731Y-72631723D01*
X75717731Y-72631723D02*
X75765350Y-72536485D01*
X75765350Y-72536485D02*
X75860588Y-72488866D01*
X75860588Y-72488866D02*
X76098683Y-72488866D01*
X76098683Y-72488866D02*
X76193921Y-72441247D01*
X76812969Y-72869819D02*
X76717731Y-72822200D01*
X76717731Y-72822200D02*
X76670112Y-72726961D01*
X76670112Y-72726961D02*
X76670112Y-71869819D01*
X77146303Y-72822200D02*
X77241541Y-72869819D01*
X77241541Y-72869819D02*
X77432017Y-72869819D01*
X77432017Y-72869819D02*
X77527255Y-72822200D01*
X77527255Y-72822200D02*
X77574874Y-72726961D01*
X77574874Y-72726961D02*
X77574874Y-72679342D01*
X77574874Y-72679342D02*
X77527255Y-72584104D01*
X77527255Y-72584104D02*
X77432017Y-72536485D01*
X77432017Y-72536485D02*
X77289160Y-72536485D01*
X77289160Y-72536485D02*
X77193922Y-72488866D01*
X77193922Y-72488866D02*
X77146303Y-72393628D01*
X77146303Y-72393628D02*
X77146303Y-72346009D01*
X77146303Y-72346009D02*
X77193922Y-72250771D01*
X77193922Y-72250771D02*
X77289160Y-72203152D01*
X77289160Y-72203152D02*
X77432017Y-72203152D01*
X77432017Y-72203152D02*
X77527255Y-72250771D01*
X103717731Y-45369819D02*
X103717731Y-44607914D01*
X103527255Y-44798390D02*
X103717731Y-44607914D01*
X103717731Y-44607914D02*
X103908207Y-44798390D01*
X104432017Y-44703152D02*
X104812969Y-44703152D01*
X104574874Y-45369819D02*
X104574874Y-44512676D01*
X104574874Y-44512676D02*
X104622493Y-44417438D01*
X104622493Y-44417438D02*
X104717731Y-44369819D01*
X104717731Y-44369819D02*
X104812969Y-44369819D01*
X105146303Y-45369819D02*
X105146303Y-44703152D01*
X105146303Y-44369819D02*
X105098684Y-44417438D01*
X105098684Y-44417438D02*
X105146303Y-44465057D01*
X105146303Y-44465057D02*
X105193922Y-44417438D01*
X105193922Y-44417438D02*
X105146303Y-44369819D01*
X105146303Y-44369819D02*
X105146303Y-44465057D01*
X106051064Y-45369819D02*
X106051064Y-44369819D01*
X106051064Y-45322200D02*
X105955826Y-45369819D01*
X105955826Y-45369819D02*
X105765350Y-45369819D01*
X105765350Y-45369819D02*
X105670112Y-45322200D01*
X105670112Y-45322200D02*
X105622493Y-45274580D01*
X105622493Y-45274580D02*
X105574874Y-45179342D01*
X105574874Y-45179342D02*
X105574874Y-44893628D01*
X105574874Y-44893628D02*
X105622493Y-44798390D01*
X105622493Y-44798390D02*
X105670112Y-44750771D01*
X105670112Y-44750771D02*
X105765350Y-44703152D01*
X105765350Y-44703152D02*
X105955826Y-44703152D01*
X105955826Y-44703152D02*
X106051064Y-44750771D01*
X106955826Y-44703152D02*
X106955826Y-45369819D01*
X106527255Y-44703152D02*
X106527255Y-45226961D01*
X106527255Y-45226961D02*
X106574874Y-45322200D01*
X106574874Y-45322200D02*
X106670112Y-45369819D01*
X106670112Y-45369819D02*
X106812969Y-45369819D01*
X106812969Y-45369819D02*
X106908207Y-45322200D01*
X106908207Y-45322200D02*
X106955826Y-45274580D01*
X107860588Y-45322200D02*
X107765350Y-45369819D01*
X107765350Y-45369819D02*
X107574874Y-45369819D01*
X107574874Y-45369819D02*
X107479636Y-45322200D01*
X107479636Y-45322200D02*
X107432017Y-45274580D01*
X107432017Y-45274580D02*
X107384398Y-45179342D01*
X107384398Y-45179342D02*
X107384398Y-44893628D01*
X107384398Y-44893628D02*
X107432017Y-44798390D01*
X107432017Y-44798390D02*
X107479636Y-44750771D01*
X107479636Y-44750771D02*
X107574874Y-44703152D01*
X107574874Y-44703152D02*
X107765350Y-44703152D01*
X107765350Y-44703152D02*
X107860588Y-44750771D01*
X108289160Y-45369819D02*
X108289160Y-44703152D01*
X108289160Y-44369819D02*
X108241541Y-44417438D01*
X108241541Y-44417438D02*
X108289160Y-44465057D01*
X108289160Y-44465057D02*
X108336779Y-44417438D01*
X108336779Y-44417438D02*
X108289160Y-44369819D01*
X108289160Y-44369819D02*
X108289160Y-44465057D01*
X109193921Y-45369819D02*
X109193921Y-44846009D01*
X109193921Y-44846009D02*
X109146302Y-44750771D01*
X109146302Y-44750771D02*
X109051064Y-44703152D01*
X109051064Y-44703152D02*
X108860588Y-44703152D01*
X108860588Y-44703152D02*
X108765350Y-44750771D01*
X109193921Y-45322200D02*
X109098683Y-45369819D01*
X109098683Y-45369819D02*
X108860588Y-45369819D01*
X108860588Y-45369819D02*
X108765350Y-45322200D01*
X108765350Y-45322200D02*
X108717731Y-45226961D01*
X108717731Y-45226961D02*
X108717731Y-45131723D01*
X108717731Y-45131723D02*
X108765350Y-45036485D01*
X108765350Y-45036485D02*
X108860588Y-44988866D01*
X108860588Y-44988866D02*
X109098683Y-44988866D01*
X109098683Y-44988866D02*
X109193921Y-44941247D01*
X109812969Y-45369819D02*
X109717731Y-45322200D01*
X109717731Y-45322200D02*
X109670112Y-45226961D01*
X109670112Y-45226961D02*
X109670112Y-44369819D01*
X110146303Y-45322200D02*
X110241541Y-45369819D01*
X110241541Y-45369819D02*
X110432017Y-45369819D01*
X110432017Y-45369819D02*
X110527255Y-45322200D01*
X110527255Y-45322200D02*
X110574874Y-45226961D01*
X110574874Y-45226961D02*
X110574874Y-45179342D01*
X110574874Y-45179342D02*
X110527255Y-45084104D01*
X110527255Y-45084104D02*
X110432017Y-45036485D01*
X110432017Y-45036485D02*
X110289160Y-45036485D01*
X110289160Y-45036485D02*
X110193922Y-44988866D01*
X110193922Y-44988866D02*
X110146303Y-44893628D01*
X110146303Y-44893628D02*
X110146303Y-44846009D01*
X110146303Y-44846009D02*
X110193922Y-44750771D01*
X110193922Y-44750771D02*
X110289160Y-44703152D01*
X110289160Y-44703152D02*
X110432017Y-44703152D01*
X110432017Y-44703152D02*
X110527255Y-44750771D01*
X103717731Y-72869819D02*
X103717731Y-72107914D01*
X103527255Y-72298390D02*
X103717731Y-72107914D01*
X103717731Y-72107914D02*
X103908207Y-72298390D01*
X104432017Y-72203152D02*
X104812969Y-72203152D01*
X104574874Y-72869819D02*
X104574874Y-72012676D01*
X104574874Y-72012676D02*
X104622493Y-71917438D01*
X104622493Y-71917438D02*
X104717731Y-71869819D01*
X104717731Y-71869819D02*
X104812969Y-71869819D01*
X105146303Y-72869819D02*
X105146303Y-72203152D01*
X105146303Y-71869819D02*
X105098684Y-71917438D01*
X105098684Y-71917438D02*
X105146303Y-71965057D01*
X105146303Y-71965057D02*
X105193922Y-71917438D01*
X105193922Y-71917438D02*
X105146303Y-71869819D01*
X105146303Y-71869819D02*
X105146303Y-71965057D01*
X106051064Y-72869819D02*
X106051064Y-71869819D01*
X106051064Y-72822200D02*
X105955826Y-72869819D01*
X105955826Y-72869819D02*
X105765350Y-72869819D01*
X105765350Y-72869819D02*
X105670112Y-72822200D01*
X105670112Y-72822200D02*
X105622493Y-72774580D01*
X105622493Y-72774580D02*
X105574874Y-72679342D01*
X105574874Y-72679342D02*
X105574874Y-72393628D01*
X105574874Y-72393628D02*
X105622493Y-72298390D01*
X105622493Y-72298390D02*
X105670112Y-72250771D01*
X105670112Y-72250771D02*
X105765350Y-72203152D01*
X105765350Y-72203152D02*
X105955826Y-72203152D01*
X105955826Y-72203152D02*
X106051064Y-72250771D01*
X106955826Y-72203152D02*
X106955826Y-72869819D01*
X106527255Y-72203152D02*
X106527255Y-72726961D01*
X106527255Y-72726961D02*
X106574874Y-72822200D01*
X106574874Y-72822200D02*
X106670112Y-72869819D01*
X106670112Y-72869819D02*
X106812969Y-72869819D01*
X106812969Y-72869819D02*
X106908207Y-72822200D01*
X106908207Y-72822200D02*
X106955826Y-72774580D01*
X107860588Y-72822200D02*
X107765350Y-72869819D01*
X107765350Y-72869819D02*
X107574874Y-72869819D01*
X107574874Y-72869819D02*
X107479636Y-72822200D01*
X107479636Y-72822200D02*
X107432017Y-72774580D01*
X107432017Y-72774580D02*
X107384398Y-72679342D01*
X107384398Y-72679342D02*
X107384398Y-72393628D01*
X107384398Y-72393628D02*
X107432017Y-72298390D01*
X107432017Y-72298390D02*
X107479636Y-72250771D01*
X107479636Y-72250771D02*
X107574874Y-72203152D01*
X107574874Y-72203152D02*
X107765350Y-72203152D01*
X107765350Y-72203152D02*
X107860588Y-72250771D01*
X108289160Y-72869819D02*
X108289160Y-72203152D01*
X108289160Y-71869819D02*
X108241541Y-71917438D01*
X108241541Y-71917438D02*
X108289160Y-71965057D01*
X108289160Y-71965057D02*
X108336779Y-71917438D01*
X108336779Y-71917438D02*
X108289160Y-71869819D01*
X108289160Y-71869819D02*
X108289160Y-71965057D01*
X109193921Y-72869819D02*
X109193921Y-72346009D01*
X109193921Y-72346009D02*
X109146302Y-72250771D01*
X109146302Y-72250771D02*
X109051064Y-72203152D01*
X109051064Y-72203152D02*
X108860588Y-72203152D01*
X108860588Y-72203152D02*
X108765350Y-72250771D01*
X109193921Y-72822200D02*
X109098683Y-72869819D01*
X109098683Y-72869819D02*
X108860588Y-72869819D01*
X108860588Y-72869819D02*
X108765350Y-72822200D01*
X108765350Y-72822200D02*
X108717731Y-72726961D01*
X108717731Y-72726961D02*
X108717731Y-72631723D01*
X108717731Y-72631723D02*
X108765350Y-72536485D01*
X108765350Y-72536485D02*
X108860588Y-72488866D01*
X108860588Y-72488866D02*
X109098683Y-72488866D01*
X109098683Y-72488866D02*
X109193921Y-72441247D01*
X109812969Y-72869819D02*
X109717731Y-72822200D01*
X109717731Y-72822200D02*
X109670112Y-72726961D01*
X109670112Y-72726961D02*
X109670112Y-71869819D01*
X110146303Y-72822200D02*
X110241541Y-72869819D01*
X110241541Y-72869819D02*
X110432017Y-72869819D01*
X110432017Y-72869819D02*
X110527255Y-72822200D01*
X110527255Y-72822200D02*
X110574874Y-72726961D01*
X110574874Y-72726961D02*
X110574874Y-72679342D01*
X110574874Y-72679342D02*
X110527255Y-72584104D01*
X110527255Y-72584104D02*
X110432017Y-72536485D01*
X110432017Y-72536485D02*
X110289160Y-72536485D01*
X110289160Y-72536485D02*
X110193922Y-72488866D01*
X110193922Y-72488866D02*
X110146303Y-72393628D01*
X110146303Y-72393628D02*
X110146303Y-72346009D01*
X110146303Y-72346009D02*
X110193922Y-72250771D01*
X110193922Y-72250771D02*
X110289160Y-72203152D01*
X110289160Y-72203152D02*
X110432017Y-72203152D01*
X110432017Y-72203152D02*
X110527255Y-72250771D01*
X82333333Y-65609580D02*
X82285714Y-65657200D01*
X82285714Y-65657200D02*
X82142857Y-65704819D01*
X82142857Y-65704819D02*
X82047619Y-65704819D01*
X82047619Y-65704819D02*
X81904762Y-65657200D01*
X81904762Y-65657200D02*
X81809524Y-65561961D01*
X81809524Y-65561961D02*
X81761905Y-65466723D01*
X81761905Y-65466723D02*
X81714286Y-65276247D01*
X81714286Y-65276247D02*
X81714286Y-65133390D01*
X81714286Y-65133390D02*
X81761905Y-64942914D01*
X81761905Y-64942914D02*
X81809524Y-64847676D01*
X81809524Y-64847676D02*
X81904762Y-64752438D01*
X81904762Y-64752438D02*
X82047619Y-64704819D01*
X82047619Y-64704819D02*
X82142857Y-64704819D01*
X82142857Y-64704819D02*
X82285714Y-64752438D01*
X82285714Y-64752438D02*
X82333333Y-64800057D01*
X83285714Y-65704819D02*
X82714286Y-65704819D01*
X83000000Y-65704819D02*
X83000000Y-64704819D01*
X83000000Y-64704819D02*
X82904762Y-64847676D01*
X82904762Y-64847676D02*
X82809524Y-64942914D01*
X82809524Y-64942914D02*
X82714286Y-64990533D01*
X87083333Y-64204819D02*
X86750000Y-63728628D01*
X86511905Y-64204819D02*
X86511905Y-63204819D01*
X86511905Y-63204819D02*
X86892857Y-63204819D01*
X86892857Y-63204819D02*
X86988095Y-63252438D01*
X86988095Y-63252438D02*
X87035714Y-63300057D01*
X87035714Y-63300057D02*
X87083333Y-63395295D01*
X87083333Y-63395295D02*
X87083333Y-63538152D01*
X87083333Y-63538152D02*
X87035714Y-63633390D01*
X87035714Y-63633390D02*
X86988095Y-63681009D01*
X86988095Y-63681009D02*
X86892857Y-63728628D01*
X86892857Y-63728628D02*
X86511905Y-63728628D01*
X87940476Y-63204819D02*
X87750000Y-63204819D01*
X87750000Y-63204819D02*
X87654762Y-63252438D01*
X87654762Y-63252438D02*
X87607143Y-63300057D01*
X87607143Y-63300057D02*
X87511905Y-63442914D01*
X87511905Y-63442914D02*
X87464286Y-63633390D01*
X87464286Y-63633390D02*
X87464286Y-64014342D01*
X87464286Y-64014342D02*
X87511905Y-64109580D01*
X87511905Y-64109580D02*
X87559524Y-64157200D01*
X87559524Y-64157200D02*
X87654762Y-64204819D01*
X87654762Y-64204819D02*
X87845238Y-64204819D01*
X87845238Y-64204819D02*
X87940476Y-64157200D01*
X87940476Y-64157200D02*
X87988095Y-64109580D01*
X87988095Y-64109580D02*
X88035714Y-64014342D01*
X88035714Y-64014342D02*
X88035714Y-63776247D01*
X88035714Y-63776247D02*
X87988095Y-63681009D01*
X87988095Y-63681009D02*
X87940476Y-63633390D01*
X87940476Y-63633390D02*
X87845238Y-63585771D01*
X87845238Y-63585771D02*
X87654762Y-63585771D01*
X87654762Y-63585771D02*
X87559524Y-63633390D01*
X87559524Y-63633390D02*
X87511905Y-63681009D01*
X87511905Y-63681009D02*
X87464286Y-63776247D01*
X88073333Y-67959580D02*
X88025714Y-68007200D01*
X88025714Y-68007200D02*
X87882857Y-68054819D01*
X87882857Y-68054819D02*
X87787619Y-68054819D01*
X87787619Y-68054819D02*
X87644762Y-68007200D01*
X87644762Y-68007200D02*
X87549524Y-67911961D01*
X87549524Y-67911961D02*
X87501905Y-67816723D01*
X87501905Y-67816723D02*
X87454286Y-67626247D01*
X87454286Y-67626247D02*
X87454286Y-67483390D01*
X87454286Y-67483390D02*
X87501905Y-67292914D01*
X87501905Y-67292914D02*
X87549524Y-67197676D01*
X87549524Y-67197676D02*
X87644762Y-67102438D01*
X87644762Y-67102438D02*
X87787619Y-67054819D01*
X87787619Y-67054819D02*
X87882857Y-67054819D01*
X87882857Y-67054819D02*
X88025714Y-67102438D01*
X88025714Y-67102438D02*
X88073333Y-67150057D01*
X88454286Y-67150057D02*
X88501905Y-67102438D01*
X88501905Y-67102438D02*
X88597143Y-67054819D01*
X88597143Y-67054819D02*
X88835238Y-67054819D01*
X88835238Y-67054819D02*
X88930476Y-67102438D01*
X88930476Y-67102438D02*
X88978095Y-67150057D01*
X88978095Y-67150057D02*
X89025714Y-67245295D01*
X89025714Y-67245295D02*
X89025714Y-67340533D01*
X89025714Y-67340533D02*
X88978095Y-67483390D01*
X88978095Y-67483390D02*
X88406667Y-68054819D01*
X88406667Y-68054819D02*
X89025714Y-68054819D01*
X105928571Y-39931009D02*
X105595238Y-39931009D01*
X105595238Y-40454819D02*
X105595238Y-39454819D01*
X105595238Y-39454819D02*
X106071428Y-39454819D01*
X106452381Y-40454819D02*
X106452381Y-39454819D01*
X106928571Y-40454819D02*
X106928571Y-39454819D01*
X106928571Y-39454819D02*
X107166666Y-39454819D01*
X107166666Y-39454819D02*
X107309523Y-39502438D01*
X107309523Y-39502438D02*
X107404761Y-39597676D01*
X107404761Y-39597676D02*
X107452380Y-39692914D01*
X107452380Y-39692914D02*
X107499999Y-39883390D01*
X107499999Y-39883390D02*
X107499999Y-40026247D01*
X107499999Y-40026247D02*
X107452380Y-40216723D01*
X107452380Y-40216723D02*
X107404761Y-40311961D01*
X107404761Y-40311961D02*
X107309523Y-40407200D01*
X107309523Y-40407200D02*
X107166666Y-40454819D01*
X107166666Y-40454819D02*
X106928571Y-40454819D01*
X107880952Y-39550057D02*
X107928571Y-39502438D01*
X107928571Y-39502438D02*
X108023809Y-39454819D01*
X108023809Y-39454819D02*
X108261904Y-39454819D01*
X108261904Y-39454819D02*
X108357142Y-39502438D01*
X108357142Y-39502438D02*
X108404761Y-39550057D01*
X108404761Y-39550057D02*
X108452380Y-39645295D01*
X108452380Y-39645295D02*
X108452380Y-39740533D01*
X108452380Y-39740533D02*
X108404761Y-39883390D01*
X108404761Y-39883390D02*
X107833333Y-40454819D01*
X107833333Y-40454819D02*
X108452380Y-40454819D01*
X96738095Y-62154819D02*
X96738095Y-62964342D01*
X96738095Y-62964342D02*
X96785714Y-63059580D01*
X96785714Y-63059580D02*
X96833333Y-63107200D01*
X96833333Y-63107200D02*
X96928571Y-63154819D01*
X96928571Y-63154819D02*
X97119047Y-63154819D01*
X97119047Y-63154819D02*
X97214285Y-63107200D01*
X97214285Y-63107200D02*
X97261904Y-63059580D01*
X97261904Y-63059580D02*
X97309523Y-62964342D01*
X97309523Y-62964342D02*
X97309523Y-62154819D01*
X98309523Y-63154819D02*
X97738095Y-63154819D01*
X98023809Y-63154819D02*
X98023809Y-62154819D01*
X98023809Y-62154819D02*
X97928571Y-62297676D01*
X97928571Y-62297676D02*
X97833333Y-62392914D01*
X97833333Y-62392914D02*
X97738095Y-62440533D01*
X105928571Y-67931009D02*
X105595238Y-67931009D01*
X105595238Y-68454819D02*
X105595238Y-67454819D01*
X105595238Y-67454819D02*
X106071428Y-67454819D01*
X106452381Y-68454819D02*
X106452381Y-67454819D01*
X106928571Y-68454819D02*
X106928571Y-67454819D01*
X106928571Y-67454819D02*
X107166666Y-67454819D01*
X107166666Y-67454819D02*
X107309523Y-67502438D01*
X107309523Y-67502438D02*
X107404761Y-67597676D01*
X107404761Y-67597676D02*
X107452380Y-67692914D01*
X107452380Y-67692914D02*
X107499999Y-67883390D01*
X107499999Y-67883390D02*
X107499999Y-68026247D01*
X107499999Y-68026247D02*
X107452380Y-68216723D01*
X107452380Y-68216723D02*
X107404761Y-68311961D01*
X107404761Y-68311961D02*
X107309523Y-68407200D01*
X107309523Y-68407200D02*
X107166666Y-68454819D01*
X107166666Y-68454819D02*
X106928571Y-68454819D01*
X108357142Y-67788152D02*
X108357142Y-68454819D01*
X108119047Y-67407200D02*
X107880952Y-68121485D01*
X107880952Y-68121485D02*
X108499999Y-68121485D01*
X91833333Y-67454819D02*
X91500000Y-66978628D01*
X91261905Y-67454819D02*
X91261905Y-66454819D01*
X91261905Y-66454819D02*
X91642857Y-66454819D01*
X91642857Y-66454819D02*
X91738095Y-66502438D01*
X91738095Y-66502438D02*
X91785714Y-66550057D01*
X91785714Y-66550057D02*
X91833333Y-66645295D01*
X91833333Y-66645295D02*
X91833333Y-66788152D01*
X91833333Y-66788152D02*
X91785714Y-66883390D01*
X91785714Y-66883390D02*
X91738095Y-66931009D01*
X91738095Y-66931009D02*
X91642857Y-66978628D01*
X91642857Y-66978628D02*
X91261905Y-66978628D01*
X92166667Y-66454819D02*
X92833333Y-66454819D01*
X92833333Y-66454819D02*
X92404762Y-67454819D01*
X83124819Y-66916666D02*
X82648628Y-67249999D01*
X83124819Y-67488094D02*
X82124819Y-67488094D01*
X82124819Y-67488094D02*
X82124819Y-67107142D01*
X82124819Y-67107142D02*
X82172438Y-67011904D01*
X82172438Y-67011904D02*
X82220057Y-66964285D01*
X82220057Y-66964285D02*
X82315295Y-66916666D01*
X82315295Y-66916666D02*
X82458152Y-66916666D01*
X82458152Y-66916666D02*
X82553390Y-66964285D01*
X82553390Y-66964285D02*
X82601009Y-67011904D01*
X82601009Y-67011904D02*
X82648628Y-67107142D01*
X82648628Y-67107142D02*
X82648628Y-67488094D01*
X82458152Y-66059523D02*
X83124819Y-66059523D01*
X82077200Y-66297618D02*
X82791485Y-66535713D01*
X82791485Y-66535713D02*
X82791485Y-65916666D01*
X95833333Y-67454819D02*
X95500000Y-66978628D01*
X95261905Y-67454819D02*
X95261905Y-66454819D01*
X95261905Y-66454819D02*
X95642857Y-66454819D01*
X95642857Y-66454819D02*
X95738095Y-66502438D01*
X95738095Y-66502438D02*
X95785714Y-66550057D01*
X95785714Y-66550057D02*
X95833333Y-66645295D01*
X95833333Y-66645295D02*
X95833333Y-66788152D01*
X95833333Y-66788152D02*
X95785714Y-66883390D01*
X95785714Y-66883390D02*
X95738095Y-66931009D01*
X95738095Y-66931009D02*
X95642857Y-66978628D01*
X95642857Y-66978628D02*
X95261905Y-66978628D01*
X96166667Y-66454819D02*
X96785714Y-66454819D01*
X96785714Y-66454819D02*
X96452381Y-66835771D01*
X96452381Y-66835771D02*
X96595238Y-66835771D01*
X96595238Y-66835771D02*
X96690476Y-66883390D01*
X96690476Y-66883390D02*
X96738095Y-66931009D01*
X96738095Y-66931009D02*
X96785714Y-67026247D01*
X96785714Y-67026247D02*
X96785714Y-67264342D01*
X96785714Y-67264342D02*
X96738095Y-67359580D01*
X96738095Y-67359580D02*
X96690476Y-67407200D01*
X96690476Y-67407200D02*
X96595238Y-67454819D01*
X96595238Y-67454819D02*
X96309524Y-67454819D01*
X96309524Y-67454819D02*
X96214286Y-67407200D01*
X96214286Y-67407200D02*
X96166667Y-67359580D01*
D11*
X89083333Y-75292580D02*
X89083333Y-74578295D01*
X89083333Y-74578295D02*
X89130952Y-74435438D01*
X89130952Y-74435438D02*
X89226190Y-74340200D01*
X89226190Y-74340200D02*
X89369047Y-74292580D01*
X89369047Y-74292580D02*
X89464285Y-74292580D01*
X88654761Y-75197342D02*
X88607142Y-75244961D01*
X88607142Y-75244961D02*
X88511904Y-75292580D01*
X88511904Y-75292580D02*
X88273809Y-75292580D01*
X88273809Y-75292580D02*
X88178571Y-75244961D01*
X88178571Y-75244961D02*
X88130952Y-75197342D01*
X88130952Y-75197342D02*
X88083333Y-75102104D01*
X88083333Y-75102104D02*
X88083333Y-75006866D01*
X88083333Y-75006866D02*
X88130952Y-74864009D01*
X88130952Y-74864009D02*
X88702380Y-74292580D01*
X88702380Y-74292580D02*
X88083333Y-74292580D01*
D10*
X84133333Y-66554819D02*
X83800000Y-66078628D01*
X83561905Y-66554819D02*
X83561905Y-65554819D01*
X83561905Y-65554819D02*
X83942857Y-65554819D01*
X83942857Y-65554819D02*
X84038095Y-65602438D01*
X84038095Y-65602438D02*
X84085714Y-65650057D01*
X84085714Y-65650057D02*
X84133333Y-65745295D01*
X84133333Y-65745295D02*
X84133333Y-65888152D01*
X84133333Y-65888152D02*
X84085714Y-65983390D01*
X84085714Y-65983390D02*
X84038095Y-66031009D01*
X84038095Y-66031009D02*
X83942857Y-66078628D01*
X83942857Y-66078628D02*
X83561905Y-66078628D01*
X85085714Y-66554819D02*
X84514286Y-66554819D01*
X84800000Y-66554819D02*
X84800000Y-65554819D01*
X84800000Y-65554819D02*
X84704762Y-65697676D01*
X84704762Y-65697676D02*
X84609524Y-65792914D01*
X84609524Y-65792914D02*
X84514286Y-65840533D01*
X89454819Y-64083333D02*
X90169104Y-64083333D01*
X90169104Y-64083333D02*
X90311961Y-64130952D01*
X90311961Y-64130952D02*
X90407200Y-64226190D01*
X90407200Y-64226190D02*
X90454819Y-64369047D01*
X90454819Y-64369047D02*
X90454819Y-64464285D01*
X90454819Y-63083333D02*
X90454819Y-63654761D01*
X90454819Y-63369047D02*
X89454819Y-63369047D01*
X89454819Y-63369047D02*
X89597676Y-63464285D01*
X89597676Y-63464285D02*
X89692914Y-63559523D01*
X89692914Y-63559523D02*
X89740533Y-63654761D01*
X90454819Y-65866666D02*
X89978628Y-66199999D01*
X90454819Y-66438094D02*
X89454819Y-66438094D01*
X89454819Y-66438094D02*
X89454819Y-66057142D01*
X89454819Y-66057142D02*
X89502438Y-65961904D01*
X89502438Y-65961904D02*
X89550057Y-65914285D01*
X89550057Y-65914285D02*
X89645295Y-65866666D01*
X89645295Y-65866666D02*
X89788152Y-65866666D01*
X89788152Y-65866666D02*
X89883390Y-65914285D01*
X89883390Y-65914285D02*
X89931009Y-65961904D01*
X89931009Y-65961904D02*
X89978628Y-66057142D01*
X89978628Y-66057142D02*
X89978628Y-66438094D01*
X89550057Y-65485713D02*
X89502438Y-65438094D01*
X89502438Y-65438094D02*
X89454819Y-65342856D01*
X89454819Y-65342856D02*
X89454819Y-65104761D01*
X89454819Y-65104761D02*
X89502438Y-65009523D01*
X89502438Y-65009523D02*
X89550057Y-64961904D01*
X89550057Y-64961904D02*
X89645295Y-64914285D01*
X89645295Y-64914285D02*
X89740533Y-64914285D01*
X89740533Y-64914285D02*
X89883390Y-64961904D01*
X89883390Y-64961904D02*
X90454819Y-65533332D01*
X90454819Y-65533332D02*
X90454819Y-64914285D01*
X71928571Y-39931009D02*
X71595238Y-39931009D01*
X71595238Y-40454819D02*
X71595238Y-39454819D01*
X71595238Y-39454819D02*
X72071428Y-39454819D01*
X72452381Y-40454819D02*
X72452381Y-39454819D01*
X72928571Y-40454819D02*
X72928571Y-39454819D01*
X72928571Y-39454819D02*
X73166666Y-39454819D01*
X73166666Y-39454819D02*
X73309523Y-39502438D01*
X73309523Y-39502438D02*
X73404761Y-39597676D01*
X73404761Y-39597676D02*
X73452380Y-39692914D01*
X73452380Y-39692914D02*
X73499999Y-39883390D01*
X73499999Y-39883390D02*
X73499999Y-40026247D01*
X73499999Y-40026247D02*
X73452380Y-40216723D01*
X73452380Y-40216723D02*
X73404761Y-40311961D01*
X73404761Y-40311961D02*
X73309523Y-40407200D01*
X73309523Y-40407200D02*
X73166666Y-40454819D01*
X73166666Y-40454819D02*
X72928571Y-40454819D01*
X74452380Y-40454819D02*
X73880952Y-40454819D01*
X74166666Y-40454819D02*
X74166666Y-39454819D01*
X74166666Y-39454819D02*
X74071428Y-39597676D01*
X74071428Y-39597676D02*
X73976190Y-39692914D01*
X73976190Y-39692914D02*
X73880952Y-39740533D01*
X87083333Y-65454819D02*
X86750000Y-64978628D01*
X86511905Y-65454819D02*
X86511905Y-64454819D01*
X86511905Y-64454819D02*
X86892857Y-64454819D01*
X86892857Y-64454819D02*
X86988095Y-64502438D01*
X86988095Y-64502438D02*
X87035714Y-64550057D01*
X87035714Y-64550057D02*
X87083333Y-64645295D01*
X87083333Y-64645295D02*
X87083333Y-64788152D01*
X87083333Y-64788152D02*
X87035714Y-64883390D01*
X87035714Y-64883390D02*
X86988095Y-64931009D01*
X86988095Y-64931009D02*
X86892857Y-64978628D01*
X86892857Y-64978628D02*
X86511905Y-64978628D01*
X87988095Y-64454819D02*
X87511905Y-64454819D01*
X87511905Y-64454819D02*
X87464286Y-64931009D01*
X87464286Y-64931009D02*
X87511905Y-64883390D01*
X87511905Y-64883390D02*
X87607143Y-64835771D01*
X87607143Y-64835771D02*
X87845238Y-64835771D01*
X87845238Y-64835771D02*
X87940476Y-64883390D01*
X87940476Y-64883390D02*
X87988095Y-64931009D01*
X87988095Y-64931009D02*
X88035714Y-65026247D01*
X88035714Y-65026247D02*
X88035714Y-65264342D01*
X88035714Y-65264342D02*
X87988095Y-65359580D01*
X87988095Y-65359580D02*
X87940476Y-65407200D01*
X87940476Y-65407200D02*
X87845238Y-65454819D01*
X87845238Y-65454819D02*
X87607143Y-65454819D01*
X87607143Y-65454819D02*
X87511905Y-65407200D01*
X87511905Y-65407200D02*
X87464286Y-65359580D01*
X71928571Y-67931009D02*
X71595238Y-67931009D01*
X71595238Y-68454819D02*
X71595238Y-67454819D01*
X71595238Y-67454819D02*
X72071428Y-67454819D01*
X72452381Y-68454819D02*
X72452381Y-67454819D01*
X72928571Y-68454819D02*
X72928571Y-67454819D01*
X72928571Y-67454819D02*
X73166666Y-67454819D01*
X73166666Y-67454819D02*
X73309523Y-67502438D01*
X73309523Y-67502438D02*
X73404761Y-67597676D01*
X73404761Y-67597676D02*
X73452380Y-67692914D01*
X73452380Y-67692914D02*
X73499999Y-67883390D01*
X73499999Y-67883390D02*
X73499999Y-68026247D01*
X73499999Y-68026247D02*
X73452380Y-68216723D01*
X73452380Y-68216723D02*
X73404761Y-68311961D01*
X73404761Y-68311961D02*
X73309523Y-68407200D01*
X73309523Y-68407200D02*
X73166666Y-68454819D01*
X73166666Y-68454819D02*
X72928571Y-68454819D01*
X73833333Y-67454819D02*
X74452380Y-67454819D01*
X74452380Y-67454819D02*
X74119047Y-67835771D01*
X74119047Y-67835771D02*
X74261904Y-67835771D01*
X74261904Y-67835771D02*
X74357142Y-67883390D01*
X74357142Y-67883390D02*
X74404761Y-67931009D01*
X74404761Y-67931009D02*
X74452380Y-68026247D01*
X74452380Y-68026247D02*
X74452380Y-68264342D01*
X74452380Y-68264342D02*
X74404761Y-68359580D01*
X74404761Y-68359580D02*
X74357142Y-68407200D01*
X74357142Y-68407200D02*
X74261904Y-68454819D01*
X74261904Y-68454819D02*
X73976190Y-68454819D01*
X73976190Y-68454819D02*
X73880952Y-68407200D01*
X73880952Y-68407200D02*
X73833333Y-68359580D01*
D12*
%TO.C,C1*%
X82359420Y-63240000D02*
X82640580Y-63240000D01*
X82359420Y-64260000D02*
X82640580Y-64260000D01*
%TO.C,R6*%
X85403641Y-63370000D02*
X85096359Y-63370000D01*
X85403641Y-64130000D02*
X85096359Y-64130000D01*
%TO.C,C2*%
X85599420Y-67090000D02*
X85880580Y-67090000D01*
X85599420Y-68110000D02*
X85880580Y-68110000D01*
%TO.C,U1*%
X81880000Y-37630000D02*
X98120000Y-37630000D01*
X81880000Y-45250000D02*
X81880000Y-37630000D01*
X81880000Y-61870000D02*
X81880000Y-61250000D01*
X84000000Y-61870000D02*
X81880000Y-61870000D01*
X98120000Y-37630000D02*
X98120000Y-45250000D01*
X98120000Y-61250000D02*
X98120000Y-61870000D01*
X98120000Y-61870000D02*
X96000000Y-61870000D01*
X81450000Y-45250000D02*
X81210000Y-44914000D01*
X81690000Y-44914000D01*
X81450000Y-45250000D01*
G36*
X81450000Y-45250000D02*
G01*
X81210000Y-44914000D01*
X81690000Y-44914000D01*
X81450000Y-45250000D01*
G37*
%TO.C,R7*%
X93846359Y-66620000D02*
X94153641Y-66620000D01*
X93846359Y-67380000D02*
X94153641Y-67380000D01*
%TO.C,R4*%
X81120000Y-66596359D02*
X81120000Y-66903641D01*
X81880000Y-66596359D02*
X81880000Y-66903641D01*
%TO.C,R3*%
X98153641Y-66620000D02*
X97846359Y-66620000D01*
X98153641Y-67380000D02*
X97846359Y-67380000D01*
%TO.C,R1*%
X86096359Y-65720000D02*
X86403641Y-65720000D01*
X86096359Y-66480000D02*
X86403641Y-66480000D01*
%TO.C,J1*%
X91180000Y-65860000D02*
X91180000Y-64750000D01*
X91940000Y-65860000D02*
X91180000Y-65860000D01*
X92700000Y-63640000D02*
X98985000Y-63640000D01*
X92700000Y-64186529D02*
X92700000Y-63640000D01*
X92700000Y-65860000D02*
X92700000Y-65313471D01*
X92700000Y-65860000D02*
X98985000Y-65860000D01*
X98985000Y-64442470D02*
X98985000Y-63640000D01*
X98985000Y-65860000D02*
X98985000Y-65057530D01*
%TO.C,R2*%
X88370000Y-65546359D02*
X88370000Y-65853641D01*
X89130000Y-65546359D02*
X89130000Y-65853641D01*
%TO.C,R5*%
X85096359Y-64620000D02*
X85403641Y-64620000D01*
X85096359Y-65380000D02*
X85403641Y-65380000D01*
%TD*%
%LPC*%
D13*
%TO.C,C1*%
X81725000Y-63750000D03*
X83275000Y-63750000D03*
%TD*%
D14*
%TO.C,R6*%
X85760000Y-63750000D03*
X84740000Y-63750000D03*
%TD*%
D13*
%TO.C,C2*%
X84965000Y-67600000D03*
X86515000Y-67600000D03*
%TD*%
D15*
%TO.C,FID2*%
X107000000Y-42000000D03*
%TD*%
D16*
%TO.C,U1*%
X82400000Y-46250000D03*
X82400000Y-48250000D03*
X82400000Y-50250000D03*
X82400000Y-52250000D03*
X82400000Y-54250000D03*
X82400000Y-56250000D03*
X82400000Y-58250000D03*
X82400000Y-60250000D03*
D17*
X85000000Y-61750000D03*
X87000000Y-61750000D03*
X89000000Y-61750000D03*
X91000000Y-61750000D03*
X93000000Y-61750000D03*
X95000000Y-61750000D03*
D16*
X97600000Y-60250000D03*
X97600000Y-58250000D03*
X97600000Y-56250000D03*
X97600000Y-54250000D03*
X97600000Y-52250000D03*
X97600000Y-50250000D03*
X97600000Y-48250000D03*
X97600000Y-46250000D03*
%TD*%
D15*
%TO.C,FID4*%
X107000000Y-70000000D03*
%TD*%
D18*
%TO.C,R7*%
X93490000Y-67000000D03*
X94510000Y-67000000D03*
%TD*%
D19*
%TO.C,R4*%
X81500000Y-66240000D03*
X81500000Y-67260000D03*
%TD*%
D14*
%TO.C,R3*%
X98510000Y-67000000D03*
X97490000Y-67000000D03*
%TD*%
D20*
%TO.C,J2*%
X96000000Y-71500000D03*
X93500000Y-71500000D03*
X91000000Y-71500000D03*
X86500000Y-71500000D03*
X84000000Y-71500000D03*
%TD*%
D21*
%TO.C,H4*%
X99750000Y-64280000D03*
X101250000Y-64280000D03*
X99750000Y-63390000D03*
X101250000Y-63390000D03*
X99750000Y-62500000D03*
X101250000Y-62500000D03*
X99750000Y-61610000D03*
X101247128Y-61592199D03*
X99750000Y-60720000D03*
X101250000Y-60720000D03*
%TD*%
%TO.C,H1*%
X78750000Y-64280000D03*
X80250000Y-64280000D03*
X78750000Y-63390000D03*
X80250000Y-63390000D03*
X78750000Y-62500000D03*
X80250000Y-62500000D03*
X78750000Y-61610000D03*
X80247128Y-61592199D03*
X78750000Y-60720000D03*
X80250000Y-60720000D03*
%TD*%
%TO.C,H2*%
X78750000Y-51780000D03*
X80250000Y-51780000D03*
X78750000Y-50890000D03*
X80250000Y-50890000D03*
X78750000Y-50000000D03*
X80250000Y-50000000D03*
X78750000Y-49110000D03*
X80247128Y-49092199D03*
X78750000Y-48220000D03*
X80250000Y-48220000D03*
%TD*%
D18*
%TO.C,R1*%
X85740000Y-66100000D03*
X86760000Y-66100000D03*
%TD*%
D22*
%TO.C,J1*%
X91940000Y-64750000D03*
D23*
X93210000Y-64750000D03*
X94480000Y-64750000D03*
X95750000Y-64750000D03*
X97020000Y-64750000D03*
X98290000Y-64750000D03*
%TD*%
D19*
%TO.C,R2*%
X88750000Y-65190000D03*
X88750000Y-66210000D03*
%TD*%
D15*
%TO.C,FID1*%
X73000000Y-42000000D03*
%TD*%
D18*
%TO.C,R5*%
X84740000Y-65000000D03*
X85760000Y-65000000D03*
%TD*%
D15*
%TO.C,FID3*%
X73000000Y-70000000D03*
%TD*%
D21*
%TO.C,H3*%
X99750000Y-51780000D03*
X101250000Y-51780000D03*
X99750000Y-50890000D03*
X101250000Y-50890000D03*
X99750000Y-50000000D03*
X101250000Y-50000000D03*
X99750000Y-49110000D03*
X101247128Y-49092199D03*
X99750000Y-48220000D03*
X101250000Y-48220000D03*
%TD*%
%LPD*%
M02*
