%TF.GenerationSoftware,KiCad,Pcbnew,8.0.2*%
%TF.CreationDate,2024-06-11T21:25:35+09:00*%
%TF.ProjectId,smartlight,736d6172-746c-4696-9768-742e6b696361,rev?*%
%TF.SameCoordinates,Original*%
%TF.FileFunction,Soldermask,Top*%
%TF.FilePolarity,Negative*%
%FSLAX46Y46*%
G04 Gerber Fmt 4.6, Leading zero omitted, Abs format (unit mm)*
G04 Created by KiCad (PCBNEW 8.0.2) date 2024-06-11 21:25:35*
%MOMM*%
%LPD*%
G01*
G04 APERTURE LIST*
G04 Aperture macros list*
%AMRoundRect*
0 Rectangle with rounded corners*
0 $1 Rounding radius*
0 $2 $3 $4 $5 $6 $7 $8 $9 X,Y pos of 4 corners*
0 Add a 4 corners polygon primitive as box body*
4,1,4,$2,$3,$4,$5,$6,$7,$8,$9,$2,$3,0*
0 Add four circle primitives for the rounded corners*
1,1,$1+$1,$2,$3*
1,1,$1+$1,$4,$5*
1,1,$1+$1,$6,$7*
1,1,$1+$1,$8,$9*
0 Add four rect primitives between the rounded corners*
20,1,$1+$1,$2,$3,$4,$5,0*
20,1,$1+$1,$4,$5,$6,$7,0*
20,1,$1+$1,$6,$7,$8,$9,0*
20,1,$1+$1,$8,$9,$2,$3,0*%
G04 Aperture macros list end*
%ADD10RoundRect,0.225000X-0.225000X-0.250000X0.225000X-0.250000X0.225000X0.250000X-0.225000X0.250000X0*%
%ADD11RoundRect,0.135000X0.135000X0.185000X-0.135000X0.185000X-0.135000X-0.185000X0.135000X-0.185000X0*%
%ADD12C,2.000000*%
%ADD13R,2.500000X1.000000*%
%ADD14R,1.000000X1.800000*%
%ADD15RoundRect,0.135000X-0.135000X-0.185000X0.135000X-0.185000X0.135000X0.185000X-0.135000X0.185000X0*%
%ADD16RoundRect,0.135000X-0.185000X0.135000X-0.185000X-0.135000X0.185000X-0.135000X0.185000X0.135000X0*%
%ADD17R,1.700000X3.500000*%
%ADD18C,0.600000*%
%ADD19R,1.000000X1.000000*%
%ADD20O,1.000000X1.000000*%
G04 APERTURE END LIST*
D10*
%TO.C,C1*%
X81725000Y-63750000D03*
X83275000Y-63750000D03*
%TD*%
D11*
%TO.C,R6*%
X85760000Y-63750000D03*
X84740000Y-63750000D03*
%TD*%
D10*
%TO.C,C2*%
X84965000Y-67600000D03*
X86515000Y-67600000D03*
%TD*%
D12*
%TO.C,FID2*%
X107000000Y-42000000D03*
%TD*%
D13*
%TO.C,U1*%
X82400000Y-46250000D03*
X82400000Y-48250000D03*
X82400000Y-50250000D03*
X82400000Y-52250000D03*
X82400000Y-54250000D03*
X82400000Y-56250000D03*
X82400000Y-58250000D03*
X82400000Y-60250000D03*
D14*
X85000000Y-61750000D03*
X87000000Y-61750000D03*
X89000000Y-61750000D03*
X91000000Y-61750000D03*
X93000000Y-61750000D03*
X95000000Y-61750000D03*
D13*
X97600000Y-60250000D03*
X97600000Y-58250000D03*
X97600000Y-56250000D03*
X97600000Y-54250000D03*
X97600000Y-52250000D03*
X97600000Y-50250000D03*
X97600000Y-48250000D03*
X97600000Y-46250000D03*
%TD*%
D12*
%TO.C,FID4*%
X107000000Y-70000000D03*
%TD*%
D15*
%TO.C,R7*%
X93490000Y-67000000D03*
X94510000Y-67000000D03*
%TD*%
D16*
%TO.C,R4*%
X81500000Y-66240000D03*
X81500000Y-67260000D03*
%TD*%
D11*
%TO.C,R3*%
X98510000Y-67000000D03*
X97490000Y-67000000D03*
%TD*%
D17*
%TO.C,J2*%
X96000000Y-71500000D03*
X93500000Y-71500000D03*
X91000000Y-71500000D03*
X86500000Y-71500000D03*
X84000000Y-71500000D03*
%TD*%
D18*
%TO.C,H4*%
X99750000Y-64280000D03*
X101250000Y-64280000D03*
X99750000Y-63390000D03*
X101250000Y-63390000D03*
X99750000Y-62500000D03*
X101250000Y-62500000D03*
X99750000Y-61610000D03*
X101247128Y-61592199D03*
X99750000Y-60720000D03*
X101250000Y-60720000D03*
%TD*%
%TO.C,H1*%
X78750000Y-64280000D03*
X80250000Y-64280000D03*
X78750000Y-63390000D03*
X80250000Y-63390000D03*
X78750000Y-62500000D03*
X80250000Y-62500000D03*
X78750000Y-61610000D03*
X80247128Y-61592199D03*
X78750000Y-60720000D03*
X80250000Y-60720000D03*
%TD*%
%TO.C,H2*%
X78750000Y-51780000D03*
X80250000Y-51780000D03*
X78750000Y-50890000D03*
X80250000Y-50890000D03*
X78750000Y-50000000D03*
X80250000Y-50000000D03*
X78750000Y-49110000D03*
X80247128Y-49092199D03*
X78750000Y-48220000D03*
X80250000Y-48220000D03*
%TD*%
D15*
%TO.C,R1*%
X85740000Y-66100000D03*
X86760000Y-66100000D03*
%TD*%
D19*
%TO.C,J1*%
X91940000Y-64750000D03*
D20*
X93210000Y-64750000D03*
X94480000Y-64750000D03*
X95750000Y-64750000D03*
X97020000Y-64750000D03*
X98290000Y-64750000D03*
%TD*%
D16*
%TO.C,R2*%
X88750000Y-65190000D03*
X88750000Y-66210000D03*
%TD*%
D12*
%TO.C,FID1*%
X73000000Y-42000000D03*
%TD*%
D15*
%TO.C,R5*%
X84740000Y-65000000D03*
X85760000Y-65000000D03*
%TD*%
D12*
%TO.C,FID3*%
X73000000Y-70000000D03*
%TD*%
D18*
%TO.C,H3*%
X99750000Y-51780000D03*
X101250000Y-51780000D03*
X99750000Y-50890000D03*
X101250000Y-50890000D03*
X99750000Y-50000000D03*
X101250000Y-50000000D03*
X99750000Y-49110000D03*
X101247128Y-49092199D03*
X99750000Y-48220000D03*
X101250000Y-48220000D03*
%TD*%
M02*
