%TF.GenerationSoftware,KiCad,Pcbnew,8.0.2*%
%TF.CreationDate,2024-05-29T00:31:01+09:00*%
%TF.ProjectId,smartlight,736d6172-746c-4696-9768-742e6b696361,rev?*%
%TF.SameCoordinates,Original*%
%TF.FileFunction,Legend,Bot*%
%TF.FilePolarity,Positive*%
%FSLAX46Y46*%
G04 Gerber Fmt 4.6, Leading zero omitted, Abs format (unit mm)*
G04 Created by KiCad (PCBNEW 8.0.2) date 2024-05-29 00:31:01*
%MOMM*%
%LPD*%
G01*
G04 APERTURE LIST*
%ADD10C,0.600000*%
%ADD11R,1.000000X1.000000*%
%ADD12O,1.000000X1.000000*%
G04 APERTURE END LIST*
%LPC*%
D10*
%TO.C,REF\u002A\u002A*%
X78750000Y-51780000D03*
X80250000Y-51780000D03*
X78750000Y-50890000D03*
X80250000Y-50890000D03*
X78750000Y-50000000D03*
X80250000Y-50000000D03*
X78750000Y-49110000D03*
X80247128Y-49092199D03*
X78750000Y-48220000D03*
X80250000Y-48220000D03*
%TD*%
%TO.C,REF\u002A\u002A*%
X78750000Y-64280000D03*
X80250000Y-64280000D03*
X78750000Y-63390000D03*
X80250000Y-63390000D03*
X78750000Y-62500000D03*
X80250000Y-62500000D03*
X78750000Y-61610000D03*
X80247128Y-61592199D03*
X78750000Y-60720000D03*
X80250000Y-60720000D03*
%TD*%
D11*
%TO.C,J1*%
X91940000Y-64750000D03*
D12*
X93210000Y-64750000D03*
X94480000Y-64750000D03*
X95750000Y-64750000D03*
X97020000Y-64750000D03*
X98290000Y-64750000D03*
%TD*%
D10*
%TO.C,REF\u002A\u002A*%
X99750000Y-51780000D03*
X101250000Y-51780000D03*
X99750000Y-50890000D03*
X101250000Y-50890000D03*
X99750000Y-50000000D03*
X101250000Y-50000000D03*
X99750000Y-49110000D03*
X101247128Y-49092199D03*
X99750000Y-48220000D03*
X101250000Y-48220000D03*
%TD*%
%TO.C,REF\u002A\u002A*%
X99750000Y-64280000D03*
X101250000Y-64280000D03*
X99750000Y-63390000D03*
X101250000Y-63390000D03*
X99750000Y-62500000D03*
X101250000Y-62500000D03*
X99750000Y-61610000D03*
X101247128Y-61592199D03*
X99750000Y-60720000D03*
X101250000Y-60720000D03*
%TD*%
%LPD*%
M02*
