%TF.GenerationSoftware,KiCad,Pcbnew,8.0.2*%
%TF.CreationDate,2024-05-29T00:31:01+09:00*%
%TF.ProjectId,smartlight,736d6172-746c-4696-9768-742e6b696361,rev?*%
%TF.SameCoordinates,Original*%
%TF.FileFunction,Profile,NP*%
%FSLAX46Y46*%
G04 Gerber Fmt 4.6, Leading zero omitted, Abs format (unit mm)*
G04 Created by KiCad (PCBNEW 8.0.2) date 2024-05-29 00:31:01*
%MOMM*%
%LPD*%
G01*
G04 APERTURE LIST*
%TA.AperFunction,Profile*%
%ADD10C,0.050000*%
%TD*%
G04 APERTURE END LIST*
D10*
X99500000Y-45000000D02*
X80500000Y-45000000D01*
X101500000Y-59500000D02*
G75*
G02*
X99500000Y-59500000I-1000000J0D01*
G01*
X78500000Y-75000000D02*
X78500000Y-65500000D01*
X101500000Y-65500000D02*
X101500000Y-75000000D01*
X82250000Y-68500000D02*
X82250000Y-69500000D01*
X78500000Y-53000000D02*
G75*
G02*
X80500000Y-53000000I1000000J0D01*
G01*
X80500000Y-47000000D02*
G75*
G02*
X78500000Y-47000000I-1000000J0D01*
G01*
X99500000Y-68500000D02*
X97750000Y-68500000D01*
X97750000Y-68500000D02*
X97750000Y-69500000D01*
X78500000Y-47000000D02*
X78500000Y-37500000D01*
X80500000Y-59500000D02*
G75*
G02*
X78500000Y-59500000I-1000000J0D01*
G01*
X78500000Y-65500000D02*
G75*
G02*
X80500000Y-65500000I1000000J0D01*
G01*
X111500000Y-37500000D02*
X111500000Y-75000000D01*
X80500000Y-59500000D02*
X80500000Y-53000000D01*
X101500000Y-53000000D02*
X101500000Y-59500000D01*
X99500000Y-45000000D02*
X99500000Y-47000000D01*
X80500000Y-47000000D02*
X80500000Y-45000000D01*
X82250000Y-68500000D02*
X80500000Y-68500000D01*
X68500000Y-75000000D02*
X78500000Y-75000000D01*
X99500000Y-59500000D02*
X99500000Y-53000000D01*
X101500000Y-47000000D02*
G75*
G02*
X99500000Y-47000000I-1000000J0D01*
G01*
X80500000Y-68500000D02*
X80500000Y-65500000D01*
X99500000Y-53000000D02*
G75*
G02*
X101500000Y-53000000I1000000J0D01*
G01*
X68500000Y-37500000D02*
X68500000Y-75000000D01*
X101500000Y-75000000D02*
X111500000Y-75000000D01*
X101500000Y-37500000D02*
X111500000Y-37500000D01*
X78500000Y-53000000D02*
X78500000Y-59500000D01*
X101500000Y-47000000D02*
X101500000Y-37500000D01*
X99500000Y-68500000D02*
X99500000Y-65500000D01*
X78500000Y-37500000D02*
X68500000Y-37500000D01*
X99500000Y-65500000D02*
G75*
G02*
X101500000Y-65500000I1000000J0D01*
G01*
%TO.C,J2*%
X82250000Y-72000000D02*
X82250000Y-69500000D01*
X82250000Y-73500000D02*
X83000000Y-73500000D01*
X82250000Y-75000000D02*
X82250000Y-73500000D01*
X83000000Y-72000000D02*
X82250000Y-72000000D01*
X83000000Y-73500000D02*
X83000000Y-72000000D01*
X88250000Y-70000000D02*
X88250000Y-75000000D01*
X88250000Y-75000000D02*
X82250000Y-75000000D01*
X89250000Y-70000000D02*
X88250000Y-70000000D01*
X89250000Y-75000000D02*
X89250000Y-70000000D01*
X97000000Y-72000000D02*
X97750000Y-72000000D01*
X97000000Y-73500000D02*
X97000000Y-72000000D01*
X97750000Y-70500000D02*
X97750000Y-69500000D01*
X97750000Y-72000000D02*
X97750000Y-70500000D01*
X97750000Y-73500000D02*
X97000000Y-73500000D01*
X97750000Y-73500000D02*
X97750000Y-75000000D01*
X97750000Y-75000000D02*
X89250000Y-75000000D01*
%TD*%
M02*
