%TF.GenerationSoftware,KiCad,Pcbnew,8.0.2*%
%TF.CreationDate,2024-05-29T23:14:08+09:00*%
%TF.ProjectId,smartlight,736d6172-746c-4696-9768-742e6b696361,rev?*%
%TF.SameCoordinates,Original*%
%TF.FileFunction,Copper,L1,Top*%
%TF.FilePolarity,Positive*%
%FSLAX46Y46*%
G04 Gerber Fmt 4.6, Leading zero omitted, Abs format (unit mm)*
G04 Created by KiCad (PCBNEW 8.0.2) date 2024-05-29 23:14:08*
%MOMM*%
%LPD*%
G01*
G04 APERTURE LIST*
G04 Aperture macros list*
%AMRoundRect*
0 Rectangle with rounded corners*
0 $1 Rounding radius*
0 $2 $3 $4 $5 $6 $7 $8 $9 X,Y pos of 4 corners*
0 Add a 4 corners polygon primitive as box body*
4,1,4,$2,$3,$4,$5,$6,$7,$8,$9,$2,$3,0*
0 Add four circle primitives for the rounded corners*
1,1,$1+$1,$2,$3*
1,1,$1+$1,$4,$5*
1,1,$1+$1,$6,$7*
1,1,$1+$1,$8,$9*
0 Add four rect primitives between the rounded corners*
20,1,$1+$1,$2,$3,$4,$5,0*
20,1,$1+$1,$4,$5,$6,$7,0*
20,1,$1+$1,$6,$7,$8,$9,0*
20,1,$1+$1,$8,$9,$2,$3,0*%
G04 Aperture macros list end*
%TA.AperFunction,SMDPad,CuDef*%
%ADD10R,1.700000X3.500000*%
%TD*%
%TA.AperFunction,SMDPad,CuDef*%
%ADD11C,1.000000*%
%TD*%
%TA.AperFunction,SMDPad,CuDef*%
%ADD12RoundRect,0.225000X-0.225000X-0.250000X0.225000X-0.250000X0.225000X0.250000X-0.225000X0.250000X0*%
%TD*%
%TA.AperFunction,SMDPad,CuDef*%
%ADD13RoundRect,0.135000X0.135000X0.185000X-0.135000X0.185000X-0.135000X-0.185000X0.135000X-0.185000X0*%
%TD*%
%TA.AperFunction,SMDPad,CuDef*%
%ADD14R,2.500000X1.000000*%
%TD*%
%TA.AperFunction,SMDPad,CuDef*%
%ADD15R,1.000000X1.800000*%
%TD*%
%TA.AperFunction,SMDPad,CuDef*%
%ADD16RoundRect,0.135000X-0.135000X-0.185000X0.135000X-0.185000X0.135000X0.185000X-0.135000X0.185000X0*%
%TD*%
%TA.AperFunction,SMDPad,CuDef*%
%ADD17RoundRect,0.135000X-0.185000X0.135000X-0.185000X-0.135000X0.185000X-0.135000X0.185000X0.135000X0*%
%TD*%
%TA.AperFunction,ComponentPad*%
%ADD18R,1.000000X1.000000*%
%TD*%
%TA.AperFunction,ComponentPad*%
%ADD19O,1.000000X1.000000*%
%TD*%
%TA.AperFunction,ViaPad*%
%ADD20C,0.500000*%
%TD*%
%TA.AperFunction,Conductor*%
%ADD21C,0.500000*%
%TD*%
%TA.AperFunction,Conductor*%
%ADD22C,0.127000*%
%TD*%
G04 APERTURE END LIST*
D10*
%TO.P,J2,1,Pin_1*%
%TO.N,unconnected-(J2-Pin_1-Pad1)*%
X96000000Y-71500000D03*
%TO.P,J2,2,Pin_2*%
%TO.N,+3V3*%
X93500000Y-71500000D03*
%TO.P,J2,3,Pin_3*%
%TO.N,GND*%
X91000000Y-71500000D03*
%TO.P,J2,4,Pin_4*%
%TO.N,Net-(J2-Pin_4)*%
X86500000Y-71500000D03*
%TO.P,J2,5,Pin_5*%
%TO.N,Net-(J2-Pin_5)*%
X84000000Y-71500000D03*
%TD*%
D11*
%TO.P,FID4,*%
%TO.N,*%
X107000000Y-70000000D03*
%TD*%
%TO.P,FID3,*%
%TO.N,*%
X73000000Y-70000000D03*
%TD*%
%TO.P,FID2,*%
%TO.N,*%
X107000000Y-42000000D03*
%TD*%
%TO.P,FID1,*%
%TO.N,*%
X73000000Y-42000000D03*
%TD*%
D12*
%TO.P,C1,1*%
%TO.N,+3V3*%
X81725000Y-63750000D03*
%TO.P,C1,2*%
%TO.N,GND*%
X83275000Y-63750000D03*
%TD*%
D13*
%TO.P,R6,1*%
%TO.N,Net-(U1-GPIO15)*%
X85760000Y-63750000D03*
%TO.P,R6,2*%
%TO.N,GND*%
X84740000Y-63750000D03*
%TD*%
D12*
%TO.P,C2,1*%
%TO.N,+3V3*%
X84965000Y-67600000D03*
%TO.P,C2,2*%
%TO.N,GND*%
X86515000Y-67600000D03*
%TD*%
D14*
%TO.P,U1,1,~{RST}*%
%TO.N,RESET*%
X82400000Y-46250000D03*
%TO.P,U1,2,ADC*%
%TO.N,unconnected-(U1-ADC-Pad2)*%
X82400000Y-48250000D03*
%TO.P,U1,3,EN*%
%TO.N,Net-(U1-EN)*%
X82400000Y-50250000D03*
%TO.P,U1,4,GPIO16*%
%TO.N,unconnected-(U1-GPIO16-Pad4)*%
X82400000Y-52250000D03*
%TO.P,U1,5,GPIO14*%
%TO.N,PWM*%
X82400000Y-54250000D03*
%TO.P,U1,6,GPIO12*%
%TO.N,ON{slash}OFF*%
X82400000Y-56250000D03*
%TO.P,U1,7,GPIO13*%
%TO.N,unconnected-(U1-GPIO13-Pad7)*%
X82400000Y-58250000D03*
%TO.P,U1,8,VCC*%
%TO.N,+3V3*%
X82400000Y-60250000D03*
D15*
%TO.P,U1,9,CS0*%
%TO.N,unconnected-(U1-CS0-Pad9)*%
X85000000Y-61750000D03*
%TO.P,U1,10,MISO*%
%TO.N,unconnected-(U1-MISO-Pad10)*%
X87000000Y-61750000D03*
%TO.P,U1,11,GPIO9*%
%TO.N,unconnected-(U1-GPIO9-Pad11)*%
X89000000Y-61750000D03*
%TO.P,U1,12,GPIO10*%
%TO.N,unconnected-(U1-GPIO10-Pad12)*%
X91000000Y-61750000D03*
%TO.P,U1,13,MOSI*%
%TO.N,unconnected-(U1-MOSI-Pad13)*%
X93000000Y-61750000D03*
%TO.P,U1,14,SCLK*%
%TO.N,unconnected-(U1-SCLK-Pad14)*%
X95000000Y-61750000D03*
D14*
%TO.P,U1,15,GND*%
%TO.N,GND*%
X97600000Y-60250000D03*
%TO.P,U1,16,GPIO15*%
%TO.N,Net-(U1-GPIO15)*%
X97600000Y-58250000D03*
%TO.P,U1,17,GPIO2*%
%TO.N,Net-(U1-GPIO2)*%
X97600000Y-56250000D03*
%TO.P,U1,18,GPIO0*%
%TO.N,IO0*%
X97600000Y-54250000D03*
%TO.P,U1,19,GPIO4*%
%TO.N,unconnected-(U1-GPIO4-Pad19)*%
X97600000Y-52250000D03*
%TO.P,U1,20,GPIO5*%
%TO.N,unconnected-(U1-GPIO5-Pad20)*%
X97600000Y-50250000D03*
%TO.P,U1,21,GPIO3/RXD*%
%TO.N,ESP12F_RX*%
X97600000Y-48250000D03*
%TO.P,U1,22,GPIO1/TXD*%
%TO.N,ESP12F_TX*%
X97600000Y-46250000D03*
%TD*%
D16*
%TO.P,R7,1*%
%TO.N,+3V3*%
X93490000Y-67000000D03*
%TO.P,R7,2*%
%TO.N,IO0*%
X94510000Y-67000000D03*
%TD*%
D17*
%TO.P,R4,1*%
%TO.N,+3V3*%
X81500000Y-66240000D03*
%TO.P,R4,2*%
%TO.N,Net-(U1-EN)*%
X81500000Y-67260000D03*
%TD*%
D13*
%TO.P,R3,1*%
%TO.N,+3V3*%
X98510000Y-67000000D03*
%TO.P,R3,2*%
%TO.N,RESET*%
X97490000Y-67000000D03*
%TD*%
D18*
%TO.P,J1,1,Pin_1*%
%TO.N,+3V3*%
X91940000Y-64750000D03*
D19*
%TO.P,J1,2,Pin_2*%
%TO.N,ESP12F_TX*%
X93210000Y-64750000D03*
%TO.P,J1,3,Pin_3*%
%TO.N,ESP12F_RX*%
X94480000Y-64750000D03*
%TO.P,J1,4,Pin_4*%
%TO.N,IO0*%
X95750000Y-64750000D03*
%TO.P,J1,5,Pin_5*%
%TO.N,RESET*%
X97020000Y-64750000D03*
%TO.P,J1,6,Pin_6*%
%TO.N,GND*%
X98290000Y-64750000D03*
%TD*%
D17*
%TO.P,R2,1*%
%TO.N,ON{slash}OFF*%
X88750000Y-65190000D03*
%TO.P,R2,2*%
%TO.N,Net-(J2-Pin_5)*%
X88750000Y-66210000D03*
%TD*%
D16*
%TO.P,R5,1*%
%TO.N,+3V3*%
X84740000Y-65000000D03*
%TO.P,R5,2*%
%TO.N,Net-(U1-GPIO2)*%
X85760000Y-65000000D03*
%TD*%
%TO.P,R1,1*%
%TO.N,PWM*%
X85740000Y-66250000D03*
%TO.P,R1,2*%
%TO.N,Net-(J2-Pin_4)*%
X86760000Y-66250000D03*
%TD*%
D20*
%TO.N,PWM*%
X87900000Y-66450000D03*
%TO.N,GND*%
X87200000Y-67610000D03*
X96800000Y-68900000D03*
X95500000Y-68900000D03*
X94700000Y-68200000D03*
X90000000Y-68900000D03*
X91200000Y-68000000D03*
X91900000Y-68900000D03*
X98900000Y-65900000D03*
%TO.N,Net-(J2-Pin_5)*%
X84000000Y-71500000D03*
%TO.N,Net-(J2-Pin_4)*%
X86500000Y-71500000D03*
%TO.N,GND*%
X95750000Y-51500000D03*
X95750000Y-50500000D03*
X95750000Y-49250000D03*
X95250000Y-53250000D03*
X94250000Y-53250000D03*
X95500000Y-52250000D03*
X94750000Y-60250000D03*
X95500000Y-60000000D03*
X96250000Y-63000000D03*
X96250000Y-61500000D03*
X95250000Y-59250000D03*
X85500000Y-55250000D03*
X84500000Y-55250000D03*
X98750000Y-62500000D03*
X98750000Y-61500000D03*
X94750000Y-69000000D03*
X90900000Y-68800000D03*
X98250000Y-66000000D03*
X92665477Y-50001750D03*
X92665477Y-49001750D03*
X92665477Y-48001750D03*
X91665477Y-55001750D03*
X91665477Y-54001750D03*
X91665477Y-53001750D03*
X91665477Y-52001750D03*
X91665477Y-51001750D03*
X91665477Y-50001750D03*
X91665477Y-49001750D03*
X91665477Y-48001750D03*
X90665477Y-56001750D03*
X90665477Y-55001750D03*
X90665477Y-54001750D03*
X90665477Y-53001750D03*
X90665477Y-52001750D03*
X90665477Y-51001750D03*
X90665477Y-50001750D03*
X90665477Y-49001750D03*
X90665477Y-48001750D03*
X89665477Y-57001750D03*
X89665477Y-56001750D03*
X89665477Y-55001750D03*
X89665477Y-54001750D03*
X89665477Y-53001750D03*
X89665477Y-52001750D03*
X89665477Y-51001750D03*
X89665477Y-50001750D03*
X89665477Y-49001750D03*
X89665477Y-48001750D03*
X88665477Y-54001750D03*
X88665477Y-53001750D03*
X88665477Y-52001750D03*
X88665477Y-51001750D03*
X88665477Y-50001750D03*
X88665477Y-49001750D03*
X88665477Y-48001750D03*
X87665477Y-53001750D03*
X87665477Y-52001750D03*
X87665477Y-51001750D03*
X87665477Y-50001750D03*
X87665477Y-49001750D03*
X87665477Y-48001750D03*
X86665477Y-59001750D03*
X86665477Y-58001750D03*
X86665477Y-53001750D03*
X86665477Y-52001750D03*
X86665477Y-51001750D03*
X86665477Y-50001750D03*
X86665477Y-49001750D03*
X86665477Y-48001750D03*
X85665477Y-58001750D03*
X85665477Y-53001750D03*
X85665477Y-49001750D03*
X85665477Y-48001750D03*
X84665477Y-58001750D03*
X84665477Y-53001750D03*
X84665477Y-49001750D03*
X84665477Y-48001750D03*
X89460000Y-67060000D03*
X84850000Y-60250000D03*
X83300000Y-62400000D03*
%TO.N,Net-(J2-Pin_5)*%
X90000000Y-65600000D03*
%TO.N,Net-(J2-Pin_4)*%
X87200000Y-64995115D03*
%TO.N,ON{slash}OFF*%
X87760000Y-65640000D03*
%TO.N,Net-(U1-GPIO2)*%
X88900000Y-64300000D03*
%TO.N,+3V3*%
X92750000Y-67000000D03*
X96100000Y-67700000D03*
%TO.N,IO0*%
X94250000Y-54750000D03*
%TO.N,RESET*%
X92250000Y-46250000D03*
%TO.N,ESP12F_TX*%
X94250000Y-51000000D03*
%TO.N,ESP12F_RX*%
X94125000Y-52125000D03*
%TO.N,PWM*%
X87000000Y-54500000D03*
%TO.N,ON{slash}OFF*%
X87000000Y-56500000D03*
%TO.N,Net-(U1-EN)*%
X84500000Y-51000000D03*
X82500000Y-67850000D03*
%TO.N,Net-(U1-GPIO2)*%
X92000000Y-56750000D03*
%TO.N,Net-(U1-GPIO15)*%
X89350000Y-58650000D03*
X89000000Y-63500000D03*
%TD*%
D21*
%TO.N,+3V3*%
X88093000Y-67807000D02*
X88462088Y-67807000D01*
X85222183Y-68722183D02*
X87177817Y-68722183D01*
X88462088Y-67807000D02*
X88469088Y-67800000D01*
X88469088Y-67800000D02*
X90000000Y-67800000D01*
X84965000Y-68465000D02*
X85222183Y-68722183D01*
X87177817Y-68722183D02*
X88093000Y-67807000D01*
X90000000Y-67800000D02*
X90800000Y-67000000D01*
X84965000Y-67600000D02*
X84965000Y-68465000D01*
%TO.N,GND*%
X89400000Y-67000000D02*
X89460000Y-67060000D01*
X88202376Y-67180000D02*
X88382376Y-67000000D01*
X87792962Y-67180000D02*
X88202376Y-67180000D01*
X87750000Y-67222962D02*
X87792962Y-67180000D01*
X87390000Y-67610000D02*
X87750000Y-67250000D01*
X86525000Y-67610000D02*
X87390000Y-67610000D01*
X87750000Y-67250000D02*
X87750000Y-67222962D01*
X86515000Y-67600000D02*
X86525000Y-67610000D01*
X88382376Y-67000000D02*
X89400000Y-67000000D01*
D22*
%TO.N,PWM*%
X87516500Y-66833500D02*
X85833500Y-66833500D01*
X87900000Y-66450000D02*
X87516500Y-66833500D01*
%TO.N,Net-(J2-Pin_4)*%
X86760000Y-65435115D02*
X86760000Y-66250000D01*
X87200000Y-64995115D02*
X86760000Y-65435115D01*
%TO.N,PWM*%
X85740000Y-66740000D02*
X85740000Y-66250000D01*
X85833500Y-66833500D02*
X85740000Y-66740000D01*
%TO.N,ON{slash}OFF*%
X88210000Y-65190000D02*
X88750000Y-65190000D01*
X87760000Y-65640000D02*
X88210000Y-65190000D01*
%TO.N,Net-(U1-GPIO2)*%
X86900000Y-64300000D02*
X88900000Y-64300000D01*
X86200000Y-65000000D02*
X86900000Y-64300000D01*
X85760000Y-65000000D02*
X86200000Y-65000000D01*
D21*
%TO.N,+3V3*%
X93500000Y-67750000D02*
X92750000Y-67000000D01*
X93500000Y-71500000D02*
X93500000Y-67750000D01*
%TO.N,GND*%
X91000000Y-68900000D02*
X90900000Y-68800000D01*
X91000000Y-71500000D02*
X91000000Y-68900000D01*
%TO.N,+3V3*%
X98510000Y-67131056D02*
X98510000Y-67000000D01*
X96170000Y-67770000D02*
X97871056Y-67770000D01*
X96100000Y-67700000D02*
X96170000Y-67770000D01*
X97871056Y-67770000D02*
X98510000Y-67131056D01*
X90825000Y-67000000D02*
X90800000Y-67000000D01*
X91940000Y-65885000D02*
X90825000Y-67000000D01*
X91940000Y-64750000D02*
X91940000Y-65885000D01*
%TO.N,GND*%
X84850000Y-60250000D02*
X97600000Y-60250000D01*
X83275000Y-62425000D02*
X83300000Y-62400000D01*
X83275000Y-63750000D02*
X83275000Y-62425000D01*
X83275000Y-63750000D02*
X84740000Y-63750000D01*
X97600000Y-62800000D02*
X97600000Y-60250000D01*
X98290000Y-63490000D02*
X97600000Y-62800000D01*
X98290000Y-64750000D02*
X98290000Y-63490000D01*
D22*
%TO.N,Net-(J2-Pin_5)*%
X89390000Y-66210000D02*
X90000000Y-65600000D01*
X88750000Y-66210000D02*
X89390000Y-66210000D01*
D21*
%TO.N,+3V3*%
X83900000Y-65000000D02*
X83400000Y-65500000D01*
X84740000Y-65000000D02*
X83900000Y-65000000D01*
X83400000Y-65500000D02*
X83400000Y-66650000D01*
D22*
%TO.N,Net-(U1-GPIO15)*%
X89750000Y-58250000D02*
X89350000Y-58650000D01*
X97600000Y-58250000D02*
X89750000Y-58250000D01*
D21*
%TO.N,+3V3*%
X91300000Y-67000000D02*
X90800000Y-67000000D01*
X92750000Y-67000000D02*
X91300000Y-67000000D01*
X83800000Y-67600000D02*
X84965000Y-67600000D01*
X83400000Y-66650000D02*
X83400000Y-67200000D01*
X81725000Y-64975000D02*
X83400000Y-66650000D01*
X83400000Y-67200000D02*
X83800000Y-67600000D01*
D22*
%TO.N,Net-(U1-EN)*%
X81650000Y-67850000D02*
X81500000Y-67700000D01*
X82500000Y-67850000D02*
X81650000Y-67850000D01*
X81500000Y-67700000D02*
X81500000Y-67260000D01*
%TO.N,ESP12F_RX*%
X95500000Y-48250000D02*
X97600000Y-48250000D01*
X95000000Y-48750000D02*
X95500000Y-48250000D01*
X95000000Y-51250000D02*
X95000000Y-48750000D01*
X94125000Y-52125000D02*
X95000000Y-51250000D01*
D21*
%TO.N,+3V3*%
X81725000Y-62275000D02*
X82400000Y-61600000D01*
X81500000Y-66240000D02*
X81500000Y-65200000D01*
X81725000Y-63750000D02*
X81725000Y-62275000D01*
X81725000Y-63750000D02*
X81725000Y-64975000D01*
X81500000Y-65200000D02*
X81725000Y-64975000D01*
X92750000Y-67000000D02*
X93490000Y-67000000D01*
X82400000Y-61600000D02*
X82400000Y-60250000D01*
D22*
%TO.N,IO0*%
X95750000Y-64750000D02*
X95750000Y-66500000D01*
X97600000Y-54250000D02*
X94750000Y-54250000D01*
X95750000Y-66500000D02*
X95250000Y-67000000D01*
X94510000Y-67000000D02*
X95250000Y-67000000D01*
X94750000Y-54250000D02*
X94250000Y-54750000D01*
%TO.N,RESET*%
X97020000Y-65770000D02*
X97490000Y-66240000D01*
X82400000Y-46250000D02*
X92250000Y-46250000D01*
X97020000Y-64750000D02*
X97020000Y-65770000D01*
X97490000Y-66240000D02*
X97490000Y-67000000D01*
%TO.N,ESP12F_TX*%
X97600000Y-46250000D02*
X95500000Y-46250000D01*
X94500000Y-47250000D02*
X94250000Y-47500000D01*
X95500000Y-46250000D02*
X94500000Y-47250000D01*
X94250000Y-47500000D02*
X94250000Y-51000000D01*
%TO.N,+3V3*%
X93250000Y-70250000D02*
X93500000Y-70500000D01*
X93500000Y-70500000D02*
X93500000Y-73000000D01*
%TO.N,unconnected-(J2-Pin_1-Pad1)*%
X96000000Y-70750000D02*
X95750000Y-70500000D01*
X96000000Y-73000000D02*
X96000000Y-70750000D01*
%TO.N,PWM*%
X86750000Y-54250000D02*
X82400000Y-54250000D01*
X87000000Y-54500000D02*
X86750000Y-54250000D01*
%TO.N,ON{slash}OFF*%
X86750000Y-56250000D02*
X82400000Y-56250000D01*
X87000000Y-56500000D02*
X86750000Y-56250000D01*
%TO.N,Net-(U1-EN)*%
X84500000Y-50500000D02*
X84250000Y-50250000D01*
X84500000Y-51000000D02*
X84500000Y-50500000D01*
X84250000Y-50250000D02*
X82400000Y-50250000D01*
%TO.N,Net-(U1-GPIO2)*%
X92500000Y-56250000D02*
X97600000Y-56250000D01*
X92000000Y-56750000D02*
X92500000Y-56250000D01*
%TO.N,Net-(U1-GPIO15)*%
X88750000Y-63750000D02*
X89000000Y-63500000D01*
X85760000Y-63750000D02*
X88750000Y-63750000D01*
%TD*%
%TA.AperFunction,Conductor*%
%TO.N,GND*%
G36*
X95288357Y-67583685D02*
G01*
X95334112Y-67636489D01*
X95343130Y-67693036D01*
X95344751Y-67693036D01*
X95344751Y-67700000D01*
X95345432Y-67706048D01*
X95348720Y-67735223D01*
X95349500Y-67749108D01*
X95349500Y-67773921D01*
X95356737Y-67810303D01*
X95358340Y-67820610D01*
X95363685Y-67868053D01*
X95363686Y-67868055D01*
X95363686Y-67868057D01*
X95363687Y-67868059D01*
X95371330Y-67889902D01*
X95375902Y-67906652D01*
X95378340Y-67918907D01*
X95378343Y-67918915D01*
X95397231Y-67964514D01*
X95399712Y-67971013D01*
X95419544Y-68027691D01*
X95425293Y-68036841D01*
X95434852Y-68055342D01*
X95434913Y-68055491D01*
X95469164Y-68106751D01*
X95471054Y-68109668D01*
X95509521Y-68170888D01*
X95513922Y-68175289D01*
X95513951Y-68175320D01*
X95691584Y-68352952D01*
X95691586Y-68352954D01*
X95717376Y-68370185D01*
X95765270Y-68402186D01*
X95814505Y-68435084D01*
X95814506Y-68435084D01*
X95814507Y-68435085D01*
X95814509Y-68435086D01*
X95951082Y-68491656D01*
X95951087Y-68491658D01*
X95951091Y-68491658D01*
X95951092Y-68491659D01*
X96096079Y-68520500D01*
X96096082Y-68520500D01*
X96096083Y-68520500D01*
X96243917Y-68520500D01*
X97325500Y-68520500D01*
X97392539Y-68540185D01*
X97438294Y-68592989D01*
X97449500Y-68644500D01*
X97449500Y-69343106D01*
X97429815Y-69410145D01*
X97377011Y-69455900D01*
X97307853Y-69465844D01*
X97244297Y-69436819D01*
X97226234Y-69417418D01*
X97220789Y-69410145D01*
X97207546Y-69392454D01*
X97207544Y-69392453D01*
X97207544Y-69392452D01*
X97092335Y-69306206D01*
X97092328Y-69306202D01*
X96957482Y-69255908D01*
X96957483Y-69255908D01*
X96897883Y-69249501D01*
X96897881Y-69249500D01*
X96897873Y-69249500D01*
X96897864Y-69249500D01*
X95102129Y-69249500D01*
X95102123Y-69249501D01*
X95042516Y-69255908D01*
X94907671Y-69306202D01*
X94907669Y-69306203D01*
X94824311Y-69368606D01*
X94758847Y-69393023D01*
X94690574Y-69378172D01*
X94675689Y-69368606D01*
X94592330Y-69306203D01*
X94592328Y-69306202D01*
X94457482Y-69255908D01*
X94457483Y-69255908D01*
X94397883Y-69249501D01*
X94397881Y-69249500D01*
X94397873Y-69249500D01*
X94397865Y-69249500D01*
X94374500Y-69249500D01*
X94307461Y-69229815D01*
X94261706Y-69177011D01*
X94250500Y-69125500D01*
X94250500Y-67944499D01*
X94270185Y-67877460D01*
X94322989Y-67831705D01*
X94374496Y-67820499D01*
X94709180Y-67820499D01*
X94745204Y-67817665D01*
X94899393Y-67772869D01*
X95037598Y-67691135D01*
X95128415Y-67600317D01*
X95189736Y-67566834D01*
X95216095Y-67564000D01*
X95221318Y-67564000D01*
X95288357Y-67583685D01*
G37*
%TD.AperFunction*%
%TA.AperFunction,Conductor*%
G36*
X92454809Y-67770185D02*
G01*
X92475451Y-67786819D01*
X92713181Y-68024548D01*
X92746666Y-68085871D01*
X92749500Y-68112229D01*
X92749500Y-69125500D01*
X92729815Y-69192539D01*
X92677011Y-69238294D01*
X92625505Y-69249500D01*
X92602132Y-69249500D01*
X92602123Y-69249501D01*
X92542516Y-69255908D01*
X92407671Y-69306202D01*
X92407669Y-69306204D01*
X92323894Y-69368918D01*
X92258430Y-69393335D01*
X92190157Y-69378484D01*
X92175272Y-69368918D01*
X92092088Y-69306646D01*
X92092086Y-69306645D01*
X91957379Y-69256403D01*
X91957372Y-69256401D01*
X91897844Y-69250000D01*
X90102155Y-69250000D01*
X90042627Y-69256401D01*
X90042620Y-69256403D01*
X89907913Y-69306645D01*
X89907906Y-69306649D01*
X89792812Y-69392809D01*
X89773766Y-69418252D01*
X89717832Y-69460122D01*
X89648140Y-69465106D01*
X89586818Y-69431620D01*
X89553333Y-69370297D01*
X89550500Y-69343940D01*
X89550500Y-68674500D01*
X89570185Y-68607461D01*
X89622989Y-68561706D01*
X89674500Y-68550500D01*
X90073920Y-68550500D01*
X90171462Y-68531096D01*
X90218913Y-68521658D01*
X90355495Y-68465084D01*
X90418526Y-68422968D01*
X90478416Y-68382952D01*
X91074549Y-67786819D01*
X91135872Y-67753334D01*
X91162230Y-67750500D01*
X91226082Y-67750500D01*
X92387770Y-67750500D01*
X92454809Y-67770185D01*
G37*
%TD.AperFunction*%
%TA.AperFunction,Conductor*%
G36*
X89861395Y-66672792D02*
G01*
X89904586Y-66727713D01*
X89911228Y-66797266D01*
X89879213Y-66859369D01*
X89877151Y-66861481D01*
X89725449Y-67013182D01*
X89664128Y-67046666D01*
X89637770Y-67049500D01*
X89428596Y-67049500D01*
X89361557Y-67029815D01*
X89315802Y-66977011D01*
X89305858Y-66907853D01*
X89334883Y-66844297D01*
X89340913Y-66837820D01*
X89368414Y-66810318D01*
X89429735Y-66776834D01*
X89456095Y-66774000D01*
X89464251Y-66774000D01*
X89464253Y-66774000D01*
X89607696Y-66735565D01*
X89627869Y-66723918D01*
X89727472Y-66666411D01*
X89795368Y-66649940D01*
X89861395Y-66672792D01*
G37*
%TD.AperFunction*%
%TA.AperFunction,Conductor*%
G36*
X98540000Y-65719159D02*
G01*
X98674534Y-65678349D01*
X98848260Y-65585491D01*
X98996835Y-65463559D01*
X99061145Y-65436246D01*
X99130012Y-65448037D01*
X99181572Y-65495189D01*
X99199500Y-65559412D01*
X99199500Y-66187218D01*
X99179815Y-66254257D01*
X99127011Y-66300012D01*
X99057853Y-66309956D01*
X99012380Y-66293950D01*
X98899397Y-66227133D01*
X98899388Y-66227129D01*
X98745208Y-66182335D01*
X98745202Y-66182334D01*
X98709181Y-66179500D01*
X98310830Y-66179500D01*
X98310808Y-66179501D01*
X98274797Y-66182334D01*
X98195666Y-66205324D01*
X98125796Y-66205124D01*
X98067127Y-66167181D01*
X98041298Y-66118343D01*
X98015565Y-66022303D01*
X97987928Y-65974435D01*
X97955088Y-65917556D01*
X97938616Y-65849657D01*
X97961469Y-65783630D01*
X97992188Y-65759471D01*
X97989867Y-65756342D01*
X98040000Y-65719160D01*
X98040000Y-64959618D01*
X98090446Y-65010064D01*
X98164555Y-65052851D01*
X98247213Y-65075000D01*
X98332787Y-65075000D01*
X98415445Y-65052851D01*
X98489554Y-65010064D01*
X98540000Y-64959618D01*
X98540000Y-65719159D01*
G37*
%TD.AperFunction*%
%TA.AperFunction,Conductor*%
G36*
X92210338Y-47000780D02*
G01*
X92249999Y-47005249D01*
X92250000Y-47005249D01*
X92250001Y-47005249D01*
X92289662Y-47000780D01*
X92303547Y-47000000D01*
X93672649Y-47000000D01*
X93739688Y-47019685D01*
X93785443Y-47072489D01*
X93795387Y-47141647D01*
X93780036Y-47186000D01*
X93724436Y-47282301D01*
X93724435Y-47282304D01*
X93686000Y-47425748D01*
X93686000Y-50452519D01*
X93666315Y-50519558D01*
X93659924Y-50528469D01*
X93569547Y-50672302D01*
X93569545Y-50672305D01*
X93513685Y-50831943D01*
X93494751Y-50999997D01*
X93494751Y-51000002D01*
X93513685Y-51168056D01*
X93542359Y-51249999D01*
X93568340Y-51324250D01*
X93569545Y-51327692D01*
X93629377Y-51422914D01*
X93648377Y-51490151D01*
X93628009Y-51556986D01*
X93612065Y-51576566D01*
X93534524Y-51654108D01*
X93534518Y-51654115D01*
X93444547Y-51797302D01*
X93444545Y-51797305D01*
X93388685Y-51956943D01*
X93369751Y-52124997D01*
X93369751Y-52125002D01*
X93388685Y-52293056D01*
X93444545Y-52452694D01*
X93444547Y-52452697D01*
X93534518Y-52595884D01*
X93534523Y-52595890D01*
X93654109Y-52715476D01*
X93654115Y-52715481D01*
X93797302Y-52805452D01*
X93797305Y-52805454D01*
X93797309Y-52805455D01*
X93797310Y-52805456D01*
X93869913Y-52830860D01*
X93956943Y-52861314D01*
X94124997Y-52880249D01*
X94125000Y-52880249D01*
X94125003Y-52880249D01*
X94293056Y-52861314D01*
X94293059Y-52861313D01*
X94452690Y-52805456D01*
X94452692Y-52805454D01*
X94452694Y-52805454D01*
X94452697Y-52805452D01*
X94595884Y-52715481D01*
X94595885Y-52715480D01*
X94595890Y-52715477D01*
X94715477Y-52595890D01*
X94715481Y-52595884D01*
X94805452Y-52452697D01*
X94805454Y-52452694D01*
X94805454Y-52452692D01*
X94805456Y-52452690D01*
X94861313Y-52293059D01*
X94870011Y-52215861D01*
X94897077Y-52151448D01*
X94905540Y-52142074D01*
X95336094Y-51711521D01*
X95336099Y-51711517D01*
X95346302Y-51701313D01*
X95346304Y-51701313D01*
X95451313Y-51596304D01*
X95525565Y-51467696D01*
X95564000Y-51324252D01*
X95564000Y-49034978D01*
X95583685Y-48967939D01*
X95600313Y-48947302D01*
X95674442Y-48873173D01*
X95735761Y-48839691D01*
X95805453Y-48844675D01*
X95861387Y-48886546D01*
X95878302Y-48917523D01*
X95906203Y-48992330D01*
X95906206Y-48992335D01*
X95992452Y-49107544D01*
X95992453Y-49107544D01*
X95992454Y-49107546D01*
X96021615Y-49129376D01*
X96050145Y-49150734D01*
X96092015Y-49206668D01*
X96096999Y-49276360D01*
X96063513Y-49337683D01*
X96050145Y-49349266D01*
X95992452Y-49392455D01*
X95906206Y-49507664D01*
X95906202Y-49507671D01*
X95855908Y-49642517D01*
X95849501Y-49702116D01*
X95849500Y-49702127D01*
X95849500Y-50797870D01*
X95849501Y-50797876D01*
X95855908Y-50857483D01*
X95906202Y-50992328D01*
X95906206Y-50992335D01*
X95992452Y-51107544D01*
X95992453Y-51107544D01*
X95992454Y-51107546D01*
X96021615Y-51129376D01*
X96050145Y-51150734D01*
X96092015Y-51206668D01*
X96096999Y-51276360D01*
X96063513Y-51337683D01*
X96050145Y-51349266D01*
X95992452Y-51392455D01*
X95906206Y-51507664D01*
X95906202Y-51507671D01*
X95855908Y-51642517D01*
X95849501Y-51702116D01*
X95849500Y-51702135D01*
X95849500Y-52797870D01*
X95849501Y-52797876D01*
X95855908Y-52857483D01*
X95906202Y-52992328D01*
X95906206Y-52992335D01*
X95992452Y-53107544D01*
X95992453Y-53107544D01*
X95992454Y-53107546D01*
X96000500Y-53113569D01*
X96050145Y-53150734D01*
X96092015Y-53206668D01*
X96096999Y-53276360D01*
X96063513Y-53337683D01*
X96050145Y-53349266D01*
X95992452Y-53392455D01*
X95906206Y-53507664D01*
X95906202Y-53507671D01*
X95869777Y-53605333D01*
X95827906Y-53661267D01*
X95762441Y-53685684D01*
X95753595Y-53686000D01*
X94831865Y-53686000D01*
X94831849Y-53685999D01*
X94824253Y-53685999D01*
X94675748Y-53685999D01*
X94544063Y-53721284D01*
X94532300Y-53724436D01*
X94403699Y-53798684D01*
X94403693Y-53798689D01*
X94298687Y-53903696D01*
X94298685Y-53903698D01*
X94232933Y-53969450D01*
X94171609Y-54002934D01*
X94159138Y-54004988D01*
X94081941Y-54013687D01*
X93922307Y-54069544D01*
X93922302Y-54069547D01*
X93779115Y-54159518D01*
X93779109Y-54159523D01*
X93659523Y-54279109D01*
X93659518Y-54279115D01*
X93569547Y-54422302D01*
X93569545Y-54422305D01*
X93513685Y-54581943D01*
X93494751Y-54749997D01*
X93494751Y-54750002D01*
X93513685Y-54918056D01*
X93569545Y-55077694D01*
X93569547Y-55077697D01*
X93659518Y-55220884D01*
X93659523Y-55220890D01*
X93779109Y-55340476D01*
X93779115Y-55340481D01*
X93922302Y-55430452D01*
X93922307Y-55430454D01*
X93922310Y-55430456D01*
X93922313Y-55430457D01*
X93963755Y-55444959D01*
X94020531Y-55485680D01*
X94046278Y-55550633D01*
X94032822Y-55619195D01*
X93984434Y-55669597D01*
X93922800Y-55686000D01*
X92581865Y-55686000D01*
X92581849Y-55685999D01*
X92574253Y-55685999D01*
X92425748Y-55685999D01*
X92294063Y-55721284D01*
X92282300Y-55724436D01*
X92153699Y-55798684D01*
X92153693Y-55798689D01*
X92048687Y-55903696D01*
X92048685Y-55903698D01*
X91982933Y-55969450D01*
X91921609Y-56002934D01*
X91909138Y-56004988D01*
X91831941Y-56013687D01*
X91672307Y-56069544D01*
X91672302Y-56069547D01*
X91529115Y-56159518D01*
X91529109Y-56159523D01*
X91409523Y-56279109D01*
X91409518Y-56279115D01*
X91319547Y-56422302D01*
X91319545Y-56422305D01*
X91263685Y-56581943D01*
X91244751Y-56749997D01*
X91244751Y-56750002D01*
X91263685Y-56918056D01*
X91319545Y-57077694D01*
X91319547Y-57077697D01*
X91409518Y-57220884D01*
X91409523Y-57220890D01*
X91529109Y-57340476D01*
X91529115Y-57340481D01*
X91672302Y-57430452D01*
X91672307Y-57430454D01*
X91672310Y-57430456D01*
X91672313Y-57430457D01*
X91713755Y-57444959D01*
X91770531Y-57485680D01*
X91796278Y-57550633D01*
X91782822Y-57619195D01*
X91734434Y-57669597D01*
X91672800Y-57686000D01*
X89675747Y-57686000D01*
X89532303Y-57724435D01*
X89532300Y-57724436D01*
X89485229Y-57751612D01*
X89485229Y-57751613D01*
X89403696Y-57798687D01*
X89403692Y-57798690D01*
X89332931Y-57869450D01*
X89271608Y-57902935D01*
X89259137Y-57904988D01*
X89181941Y-57913687D01*
X89022307Y-57969544D01*
X89022302Y-57969547D01*
X88879115Y-58059518D01*
X88879109Y-58059523D01*
X88759523Y-58179109D01*
X88759518Y-58179115D01*
X88669547Y-58322302D01*
X88669545Y-58322305D01*
X88613685Y-58481943D01*
X88594751Y-58649997D01*
X88594751Y-58650002D01*
X88613685Y-58818056D01*
X88669545Y-58977694D01*
X88669547Y-58977697D01*
X88759518Y-59120884D01*
X88759523Y-59120890D01*
X88879109Y-59240476D01*
X88879115Y-59240481D01*
X89022302Y-59330452D01*
X89022305Y-59330454D01*
X89022309Y-59330455D01*
X89022310Y-59330456D01*
X89076069Y-59349267D01*
X89181943Y-59386314D01*
X89349997Y-59405249D01*
X89350000Y-59405249D01*
X89350003Y-59405249D01*
X89518056Y-59386314D01*
X89518059Y-59386313D01*
X89677690Y-59330456D01*
X89677692Y-59330454D01*
X89677694Y-59330454D01*
X89677697Y-59330452D01*
X89820884Y-59240481D01*
X89820885Y-59240480D01*
X89820890Y-59240477D01*
X89940477Y-59120890D01*
X90021254Y-58992335D01*
X90030452Y-58977697D01*
X90030455Y-58977692D01*
X90058674Y-58897046D01*
X90099396Y-58840270D01*
X90164348Y-58814522D01*
X90175716Y-58814000D01*
X95753595Y-58814000D01*
X95820634Y-58833685D01*
X95866389Y-58886489D01*
X95869777Y-58894667D01*
X95906202Y-58992328D01*
X95906206Y-58992335D01*
X95992452Y-59107544D01*
X95992453Y-59107544D01*
X95992454Y-59107546D01*
X96027727Y-59133951D01*
X96050562Y-59151046D01*
X96092432Y-59206980D01*
X96097416Y-59276672D01*
X96063930Y-59337994D01*
X96050562Y-59349578D01*
X95992809Y-59392812D01*
X95906649Y-59507906D01*
X95906645Y-59507913D01*
X95856403Y-59642620D01*
X95856401Y-59642627D01*
X95850000Y-59702155D01*
X95850000Y-60000000D01*
X97726000Y-60000000D01*
X97793039Y-60019685D01*
X97838794Y-60072489D01*
X97850000Y-60124000D01*
X97850000Y-61250000D01*
X98897828Y-61250000D01*
X98897844Y-61249999D01*
X98957372Y-61243598D01*
X98957379Y-61243596D01*
X99097934Y-61191173D01*
X99167625Y-61186189D01*
X99228948Y-61219674D01*
X99262433Y-61280997D01*
X99257449Y-61350689D01*
X99248655Y-61369353D01*
X99233290Y-61395966D01*
X99233288Y-61395971D01*
X99195500Y-61536999D01*
X99195500Y-61683001D01*
X99231919Y-61818917D01*
X99233288Y-61824028D01*
X99233289Y-61824031D01*
X99306286Y-61950467D01*
X99306291Y-61950473D01*
X99323138Y-61967321D01*
X99356622Y-62028645D01*
X99351636Y-62098336D01*
X99323138Y-62142679D01*
X99306291Y-62159526D01*
X99306286Y-62159532D01*
X99233289Y-62285968D01*
X99233288Y-62285971D01*
X99195500Y-62426999D01*
X99195500Y-62573001D01*
X99229852Y-62701203D01*
X99233288Y-62714028D01*
X99233289Y-62714031D01*
X99306286Y-62840467D01*
X99306291Y-62840473D01*
X99323138Y-62857321D01*
X99356622Y-62918645D01*
X99351636Y-62988336D01*
X99323138Y-63032679D01*
X99306291Y-63049526D01*
X99306286Y-63049532D01*
X99233289Y-63175968D01*
X99233288Y-63175971D01*
X99195500Y-63316999D01*
X99195500Y-63463001D01*
X99210689Y-63519685D01*
X99233288Y-63604028D01*
X99233289Y-63604031D01*
X99306286Y-63730467D01*
X99306291Y-63730473D01*
X99323138Y-63747321D01*
X99356622Y-63808645D01*
X99351636Y-63878336D01*
X99323138Y-63922679D01*
X99306291Y-63939526D01*
X99306286Y-63939532D01*
X99235726Y-64061747D01*
X99185159Y-64109963D01*
X99116552Y-64123186D01*
X99051687Y-64097218D01*
X99032486Y-64078412D01*
X99000528Y-64039471D01*
X98848260Y-63914507D01*
X98848253Y-63914503D01*
X98674541Y-63821652D01*
X98540000Y-63780839D01*
X98540000Y-64540382D01*
X98489554Y-64489936D01*
X98415445Y-64447149D01*
X98332787Y-64425000D01*
X98247213Y-64425000D01*
X98164555Y-64447149D01*
X98090446Y-64489936D01*
X98040000Y-64540382D01*
X98040000Y-63780839D01*
X98039999Y-63780839D01*
X97905458Y-63821652D01*
X97731742Y-63914505D01*
X97726673Y-63917893D01*
X97725556Y-63916221D01*
X97669715Y-63939921D01*
X97600851Y-63928111D01*
X97583811Y-63917158D01*
X97583601Y-63917473D01*
X97578532Y-63914086D01*
X97404733Y-63821188D01*
X97404727Y-63821186D01*
X97216132Y-63763976D01*
X97216129Y-63763975D01*
X97020000Y-63744659D01*
X96823870Y-63763975D01*
X96635266Y-63821188D01*
X96461467Y-63914086D01*
X96456399Y-63917473D01*
X96455305Y-63915836D01*
X96399337Y-63939596D01*
X96330471Y-63927795D01*
X96313843Y-63917109D01*
X96313601Y-63917473D01*
X96308532Y-63914086D01*
X96134728Y-63821186D01*
X96088004Y-63807012D01*
X96029565Y-63768714D01*
X96001109Y-63704902D01*
X96000000Y-63688352D01*
X96000000Y-62709174D01*
X96000427Y-62701203D01*
X96000322Y-62701198D01*
X96000499Y-62697879D01*
X96000500Y-62697873D01*
X96000499Y-61331883D01*
X96020184Y-61264845D01*
X96072987Y-61219090D01*
X96142146Y-61209146D01*
X96167833Y-61215702D01*
X96242623Y-61243597D01*
X96242627Y-61243598D01*
X96302155Y-61249999D01*
X96302172Y-61250000D01*
X97350000Y-61250000D01*
X97350000Y-60500000D01*
X95908897Y-60500000D01*
X95841858Y-60480315D01*
X95834596Y-60475273D01*
X95742331Y-60406204D01*
X95742328Y-60406202D01*
X95607482Y-60355908D01*
X95607483Y-60355908D01*
X95547883Y-60349501D01*
X95547881Y-60349500D01*
X95547873Y-60349500D01*
X95547864Y-60349500D01*
X94452129Y-60349500D01*
X94452123Y-60349501D01*
X94392516Y-60355908D01*
X94257671Y-60406202D01*
X94257664Y-60406206D01*
X94142455Y-60492452D01*
X94099266Y-60550145D01*
X94043332Y-60592015D01*
X93973640Y-60596999D01*
X93912317Y-60563513D01*
X93900734Y-60550145D01*
X93863195Y-60500000D01*
X93857546Y-60492454D01*
X93857544Y-60492453D01*
X93857544Y-60492452D01*
X93742335Y-60406206D01*
X93742328Y-60406202D01*
X93607482Y-60355908D01*
X93607483Y-60355908D01*
X93547883Y-60349501D01*
X93547881Y-60349500D01*
X93547873Y-60349500D01*
X93547864Y-60349500D01*
X92452129Y-60349500D01*
X92452123Y-60349501D01*
X92392516Y-60355908D01*
X92257671Y-60406202D01*
X92257664Y-60406206D01*
X92142455Y-60492452D01*
X92099266Y-60550145D01*
X92043332Y-60592015D01*
X91973640Y-60596999D01*
X91912317Y-60563513D01*
X91900734Y-60550145D01*
X91863195Y-60500000D01*
X91857546Y-60492454D01*
X91857544Y-60492453D01*
X91857544Y-60492452D01*
X91742335Y-60406206D01*
X91742328Y-60406202D01*
X91607482Y-60355908D01*
X91607483Y-60355908D01*
X91547883Y-60349501D01*
X91547881Y-60349500D01*
X91547873Y-60349500D01*
X91547864Y-60349500D01*
X90452129Y-60349500D01*
X90452123Y-60349501D01*
X90392516Y-60355908D01*
X90257671Y-60406202D01*
X90257664Y-60406206D01*
X90142455Y-60492452D01*
X90099266Y-60550145D01*
X90043332Y-60592015D01*
X89973640Y-60596999D01*
X89912317Y-60563513D01*
X89900734Y-60550145D01*
X89863195Y-60500000D01*
X89857546Y-60492454D01*
X89857544Y-60492453D01*
X89857544Y-60492452D01*
X89742335Y-60406206D01*
X89742328Y-60406202D01*
X89607482Y-60355908D01*
X89607483Y-60355908D01*
X89547883Y-60349501D01*
X89547881Y-60349500D01*
X89547873Y-60349500D01*
X89547864Y-60349500D01*
X88452129Y-60349500D01*
X88452123Y-60349501D01*
X88392516Y-60355908D01*
X88257671Y-60406202D01*
X88257664Y-60406206D01*
X88142455Y-60492452D01*
X88099266Y-60550145D01*
X88043332Y-60592015D01*
X87973640Y-60596999D01*
X87912317Y-60563513D01*
X87900734Y-60550145D01*
X87863195Y-60500000D01*
X87857546Y-60492454D01*
X87857544Y-60492453D01*
X87857544Y-60492452D01*
X87742335Y-60406206D01*
X87742328Y-60406202D01*
X87607482Y-60355908D01*
X87607483Y-60355908D01*
X87547883Y-60349501D01*
X87547881Y-60349500D01*
X87547873Y-60349500D01*
X87547864Y-60349500D01*
X86452129Y-60349500D01*
X86452123Y-60349501D01*
X86392516Y-60355908D01*
X86257671Y-60406202D01*
X86257664Y-60406206D01*
X86142455Y-60492452D01*
X86099266Y-60550145D01*
X86043332Y-60592015D01*
X85973640Y-60596999D01*
X85912317Y-60563513D01*
X85900734Y-60550145D01*
X85863195Y-60500000D01*
X85857546Y-60492454D01*
X85857544Y-60492453D01*
X85857544Y-60492452D01*
X85742335Y-60406206D01*
X85742328Y-60406202D01*
X85607482Y-60355908D01*
X85607483Y-60355908D01*
X85547883Y-60349501D01*
X85547881Y-60349500D01*
X85547873Y-60349500D01*
X85547864Y-60349500D01*
X84452129Y-60349500D01*
X84452123Y-60349501D01*
X84392515Y-60355909D01*
X84317831Y-60383764D01*
X84248140Y-60388748D01*
X84186817Y-60355262D01*
X84153333Y-60293939D01*
X84150499Y-60267582D01*
X84150499Y-59702129D01*
X84150498Y-59702123D01*
X84144091Y-59642516D01*
X84093797Y-59507671D01*
X84093793Y-59507664D01*
X84007547Y-59392456D01*
X84007548Y-59392456D01*
X84007546Y-59392454D01*
X83949854Y-59349265D01*
X83907984Y-59293333D01*
X83903000Y-59223641D01*
X83936485Y-59162318D01*
X83949850Y-59150736D01*
X84007546Y-59107546D01*
X84093796Y-58992331D01*
X84144091Y-58857483D01*
X84150500Y-58797873D01*
X84150499Y-57702128D01*
X84144091Y-57642517D01*
X84135392Y-57619195D01*
X84093797Y-57507671D01*
X84093793Y-57507664D01*
X84007547Y-57392456D01*
X84007548Y-57392456D01*
X84007546Y-57392454D01*
X83949854Y-57349265D01*
X83907984Y-57293333D01*
X83903000Y-57223641D01*
X83936485Y-57162318D01*
X83949854Y-57150734D01*
X84007546Y-57107546D01*
X84093796Y-56992331D01*
X84121499Y-56918056D01*
X84130223Y-56894667D01*
X84172094Y-56838733D01*
X84237559Y-56814316D01*
X84246405Y-56814000D01*
X86242410Y-56814000D01*
X86309449Y-56833685D01*
X86347404Y-56872028D01*
X86409523Y-56970890D01*
X86529109Y-57090476D01*
X86529115Y-57090481D01*
X86672302Y-57180452D01*
X86672305Y-57180454D01*
X86672309Y-57180455D01*
X86672310Y-57180456D01*
X86710434Y-57193796D01*
X86831943Y-57236314D01*
X86999997Y-57255249D01*
X87000000Y-57255249D01*
X87000003Y-57255249D01*
X87168056Y-57236314D01*
X87168059Y-57236313D01*
X87327690Y-57180456D01*
X87327692Y-57180454D01*
X87327694Y-57180454D01*
X87327697Y-57180452D01*
X87470884Y-57090481D01*
X87470885Y-57090480D01*
X87470890Y-57090477D01*
X87590477Y-56970890D01*
X87627528Y-56911924D01*
X87680452Y-56827697D01*
X87680454Y-56827694D01*
X87680454Y-56827692D01*
X87680456Y-56827690D01*
X87736313Y-56668059D01*
X87736313Y-56668058D01*
X87736314Y-56668056D01*
X87755249Y-56500002D01*
X87755249Y-56499997D01*
X87736314Y-56331943D01*
X87680454Y-56172305D01*
X87680452Y-56172302D01*
X87590481Y-56029115D01*
X87590476Y-56029109D01*
X87470890Y-55909523D01*
X87470884Y-55909518D01*
X87327697Y-55819547D01*
X87327692Y-55819544D01*
X87168053Y-55763685D01*
X87029292Y-55748050D01*
X86981182Y-55732220D01*
X86967700Y-55724437D01*
X86967699Y-55724436D01*
X86967696Y-55724435D01*
X86884440Y-55702127D01*
X86884439Y-55702126D01*
X86840379Y-55690320D01*
X86824253Y-55686000D01*
X86824252Y-55686000D01*
X84246405Y-55686000D01*
X84179366Y-55666315D01*
X84133611Y-55613511D01*
X84130223Y-55605333D01*
X84093797Y-55507671D01*
X84093793Y-55507664D01*
X84007547Y-55392456D01*
X84007548Y-55392456D01*
X84007546Y-55392454D01*
X83949854Y-55349265D01*
X83907984Y-55293333D01*
X83903000Y-55223641D01*
X83936485Y-55162318D01*
X83949854Y-55150734D01*
X84007546Y-55107546D01*
X84093796Y-54992331D01*
X84121499Y-54918056D01*
X84130223Y-54894667D01*
X84172094Y-54838733D01*
X84237559Y-54814316D01*
X84246405Y-54814000D01*
X86242410Y-54814000D01*
X86309449Y-54833685D01*
X86347404Y-54872028D01*
X86409523Y-54970890D01*
X86529109Y-55090476D01*
X86529115Y-55090481D01*
X86672302Y-55180452D01*
X86672305Y-55180454D01*
X86672309Y-55180455D01*
X86672310Y-55180456D01*
X86710434Y-55193796D01*
X86831943Y-55236314D01*
X86999997Y-55255249D01*
X87000000Y-55255249D01*
X87000003Y-55255249D01*
X87168056Y-55236314D01*
X87168059Y-55236313D01*
X87327690Y-55180456D01*
X87327692Y-55180454D01*
X87327694Y-55180454D01*
X87327697Y-55180452D01*
X87470884Y-55090481D01*
X87470885Y-55090480D01*
X87470890Y-55090477D01*
X87590477Y-54970890D01*
X87627528Y-54911924D01*
X87680452Y-54827697D01*
X87680454Y-54827694D01*
X87680454Y-54827692D01*
X87680456Y-54827690D01*
X87736313Y-54668059D01*
X87736313Y-54668058D01*
X87736314Y-54668056D01*
X87755249Y-54500002D01*
X87755249Y-54499997D01*
X87736314Y-54331943D01*
X87680454Y-54172305D01*
X87680452Y-54172302D01*
X87590481Y-54029115D01*
X87590476Y-54029109D01*
X87470890Y-53909523D01*
X87470884Y-53909518D01*
X87327697Y-53819547D01*
X87327692Y-53819544D01*
X87168053Y-53763685D01*
X87029292Y-53748050D01*
X86981182Y-53732220D01*
X86967700Y-53724437D01*
X86967699Y-53724436D01*
X86967696Y-53724435D01*
X86884440Y-53702127D01*
X86884439Y-53702126D01*
X86840379Y-53690320D01*
X86824253Y-53686000D01*
X86824252Y-53686000D01*
X84246405Y-53686000D01*
X84179366Y-53666315D01*
X84133611Y-53613511D01*
X84130223Y-53605333D01*
X84093797Y-53507671D01*
X84093793Y-53507664D01*
X84007547Y-53392456D01*
X84007548Y-53392456D01*
X84007546Y-53392454D01*
X83949854Y-53349265D01*
X83907984Y-53293333D01*
X83903000Y-53223641D01*
X83936485Y-53162318D01*
X83949854Y-53150734D01*
X84007546Y-53107546D01*
X84093796Y-52992331D01*
X84144091Y-52857483D01*
X84150500Y-52797873D01*
X84150499Y-51847585D01*
X84170183Y-51780547D01*
X84222987Y-51734792D01*
X84292146Y-51724848D01*
X84315453Y-51730544D01*
X84323921Y-51733506D01*
X84331941Y-51736313D01*
X84373955Y-51741047D01*
X84499997Y-51755249D01*
X84500000Y-51755249D01*
X84500003Y-51755249D01*
X84668056Y-51736314D01*
X84738899Y-51711525D01*
X84827690Y-51680456D01*
X84827692Y-51680454D01*
X84827694Y-51680454D01*
X84827697Y-51680452D01*
X84970884Y-51590481D01*
X84970885Y-51590480D01*
X84970890Y-51590477D01*
X85090477Y-51470890D01*
X85110183Y-51439529D01*
X85180452Y-51327697D01*
X85180454Y-51327694D01*
X85180454Y-51327692D01*
X85180456Y-51327690D01*
X85236313Y-51168059D01*
X85236313Y-51168058D01*
X85236314Y-51168056D01*
X85255249Y-51000002D01*
X85255249Y-50999997D01*
X85236314Y-50831943D01*
X85180454Y-50672305D01*
X85180452Y-50672302D01*
X85086773Y-50523214D01*
X85088027Y-50522425D01*
X85064644Y-50465138D01*
X85064000Y-50452519D01*
X85064000Y-50425748D01*
X85063999Y-50425744D01*
X85035544Y-50319545D01*
X85035544Y-50319544D01*
X85025565Y-50282303D01*
X84986146Y-50214029D01*
X84951313Y-50153696D01*
X84846304Y-50048687D01*
X84846303Y-50048686D01*
X84841973Y-50044356D01*
X84841962Y-50044346D01*
X84708383Y-49910767D01*
X84708381Y-49910764D01*
X84596306Y-49798689D01*
X84596304Y-49798687D01*
X84467696Y-49724435D01*
X84384440Y-49702127D01*
X84384439Y-49702126D01*
X84340379Y-49690320D01*
X84324253Y-49686000D01*
X84324252Y-49686000D01*
X84246405Y-49686000D01*
X84179366Y-49666315D01*
X84133611Y-49613511D01*
X84130223Y-49605333D01*
X84093797Y-49507671D01*
X84093793Y-49507664D01*
X84007547Y-49392456D01*
X84007548Y-49392456D01*
X84007546Y-49392454D01*
X83949854Y-49349265D01*
X83907984Y-49293333D01*
X83903000Y-49223641D01*
X83936485Y-49162318D01*
X83949854Y-49150734D01*
X84007546Y-49107546D01*
X84093796Y-48992331D01*
X84144091Y-48857483D01*
X84150500Y-48797873D01*
X84150499Y-47702128D01*
X84144091Y-47642517D01*
X84130222Y-47605333D01*
X84093797Y-47507671D01*
X84093793Y-47507664D01*
X84007547Y-47392456D01*
X84007548Y-47392456D01*
X84007546Y-47392454D01*
X83949854Y-47349265D01*
X83907984Y-47293333D01*
X83903000Y-47223641D01*
X83936485Y-47162318D01*
X83949854Y-47150734D01*
X84007546Y-47107546D01*
X84050858Y-47049687D01*
X84106791Y-47007818D01*
X84150124Y-47000000D01*
X92196453Y-47000000D01*
X92210338Y-47000780D01*
G37*
%TD.AperFunction*%
%TA.AperFunction,Conductor*%
G36*
X83963181Y-61244735D02*
G01*
X83996666Y-61306058D01*
X83999500Y-61332417D01*
X83999500Y-62697870D01*
X83999501Y-62697879D01*
X84002196Y-62722947D01*
X83989789Y-62791706D01*
X83942177Y-62842842D01*
X83874477Y-62860120D01*
X83813809Y-62841738D01*
X83808486Y-62838454D01*
X83808481Y-62838452D01*
X83647606Y-62785144D01*
X83548322Y-62775000D01*
X83525000Y-62775000D01*
X83525000Y-63500000D01*
X84865500Y-63500000D01*
X84932539Y-63519685D01*
X84978294Y-63572489D01*
X84989500Y-63624000D01*
X84989501Y-63876000D01*
X84969817Y-63943039D01*
X84917013Y-63988794D01*
X84865501Y-64000000D01*
X83149000Y-64000000D01*
X83081961Y-63980315D01*
X83036206Y-63927511D01*
X83025000Y-63876000D01*
X83025000Y-62774999D01*
X83001693Y-62775000D01*
X83001674Y-62775001D01*
X82902392Y-62785144D01*
X82741518Y-62838452D01*
X82741507Y-62838457D01*
X82664597Y-62885897D01*
X82597205Y-62904338D01*
X82530541Y-62883416D01*
X82485772Y-62829774D01*
X82475500Y-62780359D01*
X82475500Y-62637229D01*
X82495185Y-62570190D01*
X82511819Y-62549548D01*
X82982948Y-62078419D01*
X82982951Y-62078416D01*
X83065084Y-61955495D01*
X83121658Y-61818913D01*
X83131096Y-61771462D01*
X83150500Y-61673920D01*
X83150500Y-61374499D01*
X83170185Y-61307460D01*
X83222989Y-61261705D01*
X83274500Y-61250499D01*
X83697871Y-61250499D01*
X83697872Y-61250499D01*
X83757483Y-61244091D01*
X83832169Y-61216234D01*
X83901857Y-61211251D01*
X83963181Y-61244735D01*
G37*
%TD.AperFunction*%
%TD*%
M02*
