%TF.GenerationSoftware,KiCad,Pcbnew,8.0.2*%
%TF.CreationDate,2024-05-29T00:31:01+09:00*%
%TF.ProjectId,smartlight,736d6172-746c-4696-9768-742e6b696361,rev?*%
%TF.SameCoordinates,Original*%
%TF.FileFunction,Copper,L2,Bot*%
%TF.FilePolarity,Positive*%
%FSLAX46Y46*%
G04 Gerber Fmt 4.6, Leading zero omitted, Abs format (unit mm)*
G04 Created by KiCad (PCBNEW 8.0.2) date 2024-05-29 00:31:01*
%MOMM*%
%LPD*%
G01*
G04 APERTURE LIST*
%TA.AperFunction,ComponentPad*%
%ADD10R,1.000000X1.000000*%
%TD*%
%TA.AperFunction,ComponentPad*%
%ADD11O,1.000000X1.000000*%
%TD*%
%TA.AperFunction,ViaPad*%
%ADD12C,0.460000*%
%TD*%
%TA.AperFunction,Conductor*%
%ADD13C,0.500000*%
%TD*%
%TA.AperFunction,Conductor*%
%ADD14C,0.127000*%
%TD*%
G04 APERTURE END LIST*
D10*
%TO.P,J1,1,Pin_1*%
%TO.N,+3V3*%
X91940000Y-64750000D03*
D11*
%TO.P,J1,2,Pin_2*%
%TO.N,ESP12F_TX*%
X93210000Y-64750000D03*
%TO.P,J1,3,Pin_3*%
%TO.N,ESP12F_RX*%
X94480000Y-64750000D03*
%TO.P,J1,4,Pin_4*%
%TO.N,IO0*%
X95750000Y-64750000D03*
%TO.P,J1,5,Pin_5*%
%TO.N,RESET*%
X97020000Y-64750000D03*
%TO.P,J1,6,Pin_6*%
%TO.N,GND*%
X98290000Y-64750000D03*
%TD*%
D12*
%TO.N,+3V3*%
X92750000Y-67000000D03*
X98500000Y-67750000D03*
%TO.N,GND*%
X92500000Y-70500000D03*
X85250000Y-57500000D03*
X85250000Y-59000000D03*
X90665477Y-52001750D03*
X91500000Y-70500000D03*
X89165477Y-49001750D03*
X90665477Y-55001750D03*
X83750000Y-67250000D03*
X86000000Y-59000000D03*
X86500000Y-64500000D03*
X84665477Y-47501750D03*
X90665477Y-53501750D03*
X92165477Y-47501750D03*
X84665477Y-49001750D03*
X90665477Y-49001750D03*
X95250000Y-59250000D03*
X92165477Y-53501750D03*
X96250000Y-62750000D03*
X89750000Y-69250000D03*
X92165477Y-52001750D03*
X85500000Y-70500000D03*
X89165477Y-55001750D03*
X83500000Y-64750000D03*
X89165477Y-56501750D03*
X86750000Y-59000000D03*
X87665477Y-47501750D03*
X87665477Y-52001750D03*
X86165477Y-49001750D03*
X92165477Y-49001750D03*
X89165477Y-52001750D03*
X86165477Y-47501750D03*
X89165477Y-47501750D03*
X86165477Y-58001750D03*
X90665477Y-47501750D03*
X85750000Y-70000000D03*
X96500000Y-61500000D03*
X83000000Y-70000000D03*
X98500000Y-62500000D03*
X98500000Y-61750000D03*
X83000000Y-70750000D03*
X87665477Y-49001750D03*
X89165477Y-53501750D03*
X92165477Y-55001750D03*
X86165477Y-52001750D03*
%TO.N,Net-(D1-A)*%
X85500000Y-67250000D03*
X87000000Y-66250000D03*
%TO.N,IO0*%
X94250000Y-54750000D03*
%TO.N,RESET*%
X92250000Y-46250000D03*
%TO.N,ESP12F_TX*%
X94250000Y-51000000D03*
%TO.N,ESP12F_RX*%
X94750000Y-51500000D03*
%TO.N,PWM*%
X87000000Y-54500000D03*
X92500000Y-68500000D03*
%TO.N,ON{slash}OFF*%
X87000000Y-56500000D03*
X95750000Y-67750000D03*
%TO.N,Net-(U1-EN)*%
X84500000Y-51000000D03*
X81750000Y-67970000D03*
%TO.N,Net-(U1-GPIO2)*%
X91500000Y-67750000D03*
X92000000Y-56750000D03*
%TO.N,Net-(U1-GPIO15)*%
X89750000Y-58250000D03*
X89000000Y-63500000D03*
%TO.N,Net-(U1-GPIO5)*%
X84000000Y-65250000D03*
X95500000Y-50250000D03*
%TD*%
D13*
%TO.N,+3V3*%
X92750000Y-67000000D02*
X98000000Y-67000000D01*
X98000000Y-67000000D02*
X98500000Y-67500000D01*
X98500000Y-67500000D02*
X98500000Y-67750000D01*
D14*
%TO.N,GND*%
X83750000Y-66250000D02*
X83250000Y-65750000D01*
X83250000Y-65750000D02*
X83250000Y-65000000D01*
X83250000Y-65000000D02*
X83500000Y-64750000D01*
X86500000Y-69250000D02*
X89750000Y-69250000D01*
X85750000Y-70000000D02*
X86500000Y-69250000D01*
X83750000Y-67250000D02*
X83750000Y-66250000D01*
%TO.N,Net-(D1-A)*%
X86500000Y-66250000D02*
X87000000Y-66250000D01*
X85500000Y-67250000D02*
X86500000Y-66250000D01*
%TO.N,IO0*%
X94000000Y-55000000D02*
X94000000Y-63000000D01*
X94500000Y-63500000D02*
X95250000Y-63500000D01*
X94000000Y-63000000D02*
X94500000Y-63500000D01*
X94250000Y-54750000D02*
X94000000Y-55000000D01*
X95250000Y-63500000D02*
X95750000Y-64000000D01*
X95750000Y-64000000D02*
X95750000Y-64750000D01*
%TO.N,RESET*%
X95500000Y-46250000D02*
X92250000Y-46250000D01*
X97020000Y-62730000D02*
X97500000Y-62250000D01*
X97500000Y-48250000D02*
X95500000Y-46250000D01*
X97020000Y-64750000D02*
X97020000Y-62730000D01*
X97500000Y-62250000D02*
X97500000Y-48250000D01*
%TO.N,ESP12F_TX*%
X93210000Y-52040000D02*
X93210000Y-64750000D01*
X94250000Y-51000000D02*
X93210000Y-52040000D01*
%TO.N,ESP12F_RX*%
X93500000Y-63770000D02*
X94480000Y-64750000D01*
X93500000Y-52750000D02*
X93500000Y-63770000D01*
X94750000Y-51500000D02*
X93500000Y-52750000D01*
%TO.N,PWM*%
X90609210Y-68500000D02*
X88304605Y-66195395D01*
X88304605Y-55804605D02*
X87000000Y-54500000D01*
X92500000Y-68500000D02*
X90609210Y-68500000D01*
X88304605Y-66195395D02*
X88304605Y-55804605D01*
%TO.N,ON{slash}OFF*%
X88000000Y-66250000D02*
X88000000Y-57500000D01*
X90750000Y-69000000D02*
X88000000Y-66250000D01*
X95750000Y-67750000D02*
X94000000Y-67750000D01*
X88000000Y-57500000D02*
X87000000Y-56500000D01*
X94000000Y-67750000D02*
X92750000Y-69000000D01*
X92750000Y-69000000D02*
X90750000Y-69000000D01*
%TO.N,Net-(U1-EN)*%
X82750000Y-52750000D02*
X84500000Y-51000000D01*
X82500000Y-68000000D02*
X83000000Y-67500000D01*
X81780000Y-68000000D02*
X82500000Y-68000000D01*
X83000000Y-67500000D02*
X83000000Y-66250000D01*
X82750000Y-66000000D02*
X82750000Y-52750000D01*
X83000000Y-66250000D02*
X82750000Y-66000000D01*
X81750000Y-67970000D02*
X81780000Y-68000000D01*
%TO.N,Net-(U1-GPIO2)*%
X91176500Y-57573500D02*
X92000000Y-56750000D01*
X91500000Y-67750000D02*
X91176500Y-67426500D01*
X91176500Y-67426500D02*
X91176500Y-57573500D01*
%TO.N,Net-(U1-GPIO15)*%
X89000000Y-59000000D02*
X89750000Y-58250000D01*
X89000000Y-63500000D02*
X89000000Y-59000000D01*
%TO.N,Net-(U1-GPIO5)*%
X85250000Y-51250000D02*
X86250000Y-50250000D01*
X84000000Y-52500000D02*
X85250000Y-51250000D01*
X84000000Y-65250000D02*
X84000000Y-52500000D01*
X86250000Y-50250000D02*
X95500000Y-50250000D01*
%TD*%
%TA.AperFunction,Conductor*%
%TO.N,GND*%
G36*
X93406060Y-50833685D02*
G01*
X93451815Y-50886489D01*
X93461759Y-50955647D01*
X93432734Y-51019203D01*
X93426702Y-51025681D01*
X92758688Y-51693694D01*
X92711420Y-51775565D01*
X92711419Y-51775566D01*
X92684437Y-51822298D01*
X92684436Y-51822301D01*
X92647986Y-51958336D01*
X92647985Y-51958341D01*
X92646000Y-51965747D01*
X92646000Y-56068810D01*
X92626315Y-56135849D01*
X92573511Y-56181604D01*
X92504353Y-56191548D01*
X92456029Y-56173804D01*
X92318960Y-56087679D01*
X92318953Y-56087676D01*
X92163574Y-56033307D01*
X92000004Y-56014878D01*
X91999996Y-56014878D01*
X91836425Y-56033307D01*
X91681046Y-56087676D01*
X91681044Y-56087677D01*
X91541658Y-56175258D01*
X91425258Y-56291658D01*
X91337677Y-56431044D01*
X91337676Y-56431046D01*
X91283307Y-56586425D01*
X91277670Y-56636455D01*
X91250602Y-56700869D01*
X91242131Y-56710251D01*
X90830198Y-57122185D01*
X90725189Y-57227193D01*
X90725185Y-57227199D01*
X90650936Y-57355801D01*
X90650935Y-57355804D01*
X90612500Y-57499248D01*
X90612500Y-57819210D01*
X90592815Y-57886249D01*
X90540011Y-57932004D01*
X90470853Y-57941948D01*
X90407297Y-57912923D01*
X90383506Y-57885182D01*
X90324741Y-57791658D01*
X90208341Y-57675258D01*
X90068955Y-57587677D01*
X90068953Y-57587676D01*
X89913574Y-57533307D01*
X89750004Y-57514878D01*
X89749996Y-57514878D01*
X89586425Y-57533307D01*
X89431046Y-57587676D01*
X89431044Y-57587677D01*
X89291658Y-57675258D01*
X89175258Y-57791658D01*
X89139051Y-57849282D01*
X89099064Y-57912923D01*
X89097599Y-57915254D01*
X89045265Y-57961545D01*
X88976211Y-57972194D01*
X88912363Y-57943819D01*
X88873991Y-57885429D01*
X88868605Y-57849282D01*
X88868605Y-55730355D01*
X88868605Y-55730353D01*
X88830170Y-55586909D01*
X88755918Y-55458301D01*
X88650909Y-55353292D01*
X88650908Y-55353291D01*
X88646578Y-55348961D01*
X88646567Y-55348951D01*
X87757867Y-54460251D01*
X87724382Y-54398928D01*
X87722329Y-54386467D01*
X87716691Y-54336420D01*
X87716690Y-54336417D01*
X87716689Y-54336412D01*
X87662326Y-54181051D01*
X87662322Y-54181044D01*
X87662322Y-54181043D01*
X87574742Y-54041659D01*
X87458341Y-53925258D01*
X87318957Y-53837678D01*
X87318956Y-53837677D01*
X87318955Y-53837677D01*
X87318953Y-53837676D01*
X87163574Y-53783307D01*
X87000004Y-53764878D01*
X86999996Y-53764878D01*
X86836425Y-53783307D01*
X86681046Y-53837676D01*
X86681044Y-53837677D01*
X86541658Y-53925258D01*
X86425258Y-54041658D01*
X86337677Y-54181044D01*
X86337676Y-54181046D01*
X86283307Y-54336425D01*
X86264878Y-54499996D01*
X86264878Y-54500003D01*
X86283307Y-54663574D01*
X86337676Y-54818953D01*
X86337677Y-54818955D01*
X86337678Y-54818957D01*
X86425258Y-54958341D01*
X86541659Y-55074742D01*
X86681043Y-55162322D01*
X86681045Y-55162322D01*
X86681051Y-55162326D01*
X86836412Y-55216689D01*
X86836417Y-55216690D01*
X86836420Y-55216691D01*
X86886453Y-55222328D01*
X86950866Y-55249393D01*
X86960251Y-55257867D01*
X87276608Y-55574224D01*
X87310093Y-55635547D01*
X87305109Y-55705239D01*
X87263237Y-55761172D01*
X87197773Y-55785589D01*
X87170566Y-55783503D01*
X87170501Y-55784088D01*
X87000004Y-55764878D01*
X86999996Y-55764878D01*
X86836425Y-55783307D01*
X86681046Y-55837676D01*
X86681044Y-55837677D01*
X86541658Y-55925258D01*
X86425258Y-56041658D01*
X86337677Y-56181044D01*
X86337676Y-56181046D01*
X86283307Y-56336425D01*
X86264878Y-56499996D01*
X86264878Y-56500003D01*
X86283307Y-56663574D01*
X86337676Y-56818953D01*
X86337677Y-56818955D01*
X86337678Y-56818957D01*
X86425258Y-56958341D01*
X86541659Y-57074742D01*
X86681043Y-57162322D01*
X86681045Y-57162322D01*
X86681051Y-57162326D01*
X86836412Y-57216689D01*
X86836417Y-57216690D01*
X86836420Y-57216691D01*
X86886453Y-57222328D01*
X86950866Y-57249393D01*
X86960251Y-57257867D01*
X87399681Y-57697297D01*
X87433166Y-57758620D01*
X87436000Y-57784978D01*
X87436000Y-65453871D01*
X87416315Y-65520910D01*
X87363511Y-65566665D01*
X87294353Y-65576609D01*
X87271046Y-65570913D01*
X87163574Y-65533307D01*
X87000004Y-65514878D01*
X86999996Y-65514878D01*
X86836425Y-65533307D01*
X86681046Y-65587676D01*
X86681039Y-65587679D01*
X86554812Y-65666993D01*
X86488841Y-65685999D01*
X86425748Y-65685999D01*
X86317016Y-65715134D01*
X86282300Y-65724436D01*
X86153699Y-65798684D01*
X86153693Y-65798689D01*
X85460251Y-66492131D01*
X85398928Y-66525616D01*
X85386455Y-66527670D01*
X85336425Y-66533307D01*
X85181046Y-66587676D01*
X85181044Y-66587677D01*
X85041658Y-66675258D01*
X84925258Y-66791658D01*
X84837677Y-66931044D01*
X84837676Y-66931046D01*
X84783307Y-67086425D01*
X84764878Y-67249996D01*
X84764878Y-67250003D01*
X84783307Y-67413574D01*
X84783308Y-67413579D01*
X84783309Y-67413580D01*
X84784903Y-67418134D01*
X84837676Y-67568953D01*
X84837677Y-67568955D01*
X84837678Y-67568957D01*
X84925258Y-67708341D01*
X85041659Y-67824742D01*
X85181043Y-67912322D01*
X85336420Y-67966691D01*
X85336423Y-67966691D01*
X85336425Y-67966692D01*
X85499996Y-67985122D01*
X85500000Y-67985122D01*
X85500004Y-67985122D01*
X85663574Y-67966692D01*
X85663575Y-67966691D01*
X85663580Y-67966691D01*
X85818957Y-67912322D01*
X85958341Y-67824742D01*
X86074742Y-67708341D01*
X86162322Y-67568957D01*
X86162323Y-67568951D01*
X86162326Y-67568948D01*
X86216689Y-67413587D01*
X86216690Y-67413582D01*
X86216691Y-67413580D01*
X86222328Y-67363543D01*
X86249393Y-67299133D01*
X86257857Y-67289757D01*
X86592060Y-66955554D01*
X86653381Y-66922071D01*
X86720692Y-66926195D01*
X86821605Y-66961507D01*
X86836423Y-66966692D01*
X86999996Y-66985122D01*
X87000000Y-66985122D01*
X87000004Y-66985122D01*
X87163574Y-66966692D01*
X87163575Y-66966691D01*
X87163580Y-66966691D01*
X87318957Y-66912322D01*
X87458341Y-66824742D01*
X87530055Y-66753027D01*
X87591374Y-66719545D01*
X87661066Y-66724529D01*
X87705414Y-66753030D01*
X90294346Y-69341962D01*
X90294356Y-69341973D01*
X90298686Y-69346303D01*
X90298687Y-69346304D01*
X90403696Y-69451313D01*
X90532304Y-69525565D01*
X90675747Y-69564000D01*
X90675748Y-69564000D01*
X90675749Y-69564000D01*
X92824251Y-69564000D01*
X92824253Y-69564000D01*
X92967696Y-69525565D01*
X93096304Y-69451313D01*
X93201313Y-69346304D01*
X93201313Y-69346302D01*
X93211517Y-69336099D01*
X93211520Y-69336094D01*
X94197297Y-68350319D01*
X94258620Y-68316834D01*
X94284978Y-68314000D01*
X95238840Y-68314000D01*
X95304810Y-68333005D01*
X95431043Y-68412322D01*
X95586420Y-68466691D01*
X95586423Y-68466691D01*
X95586425Y-68466692D01*
X95749996Y-68485122D01*
X95750000Y-68485122D01*
X95750004Y-68485122D01*
X95913574Y-68466692D01*
X95913575Y-68466691D01*
X95913580Y-68466691D01*
X96068957Y-68412322D01*
X96208341Y-68324742D01*
X96324742Y-68208341D01*
X96412322Y-68068957D01*
X96466691Y-67913580D01*
X96472659Y-67860617D01*
X96499725Y-67796203D01*
X96557320Y-67756648D01*
X96595879Y-67750500D01*
X97633132Y-67750500D01*
X97700171Y-67770185D01*
X97745926Y-67822989D01*
X97754749Y-67850308D01*
X97778340Y-67968907D01*
X97778341Y-67968911D01*
X97778342Y-67968913D01*
X97785056Y-67985122D01*
X97803562Y-68029801D01*
X97811030Y-68099270D01*
X97779754Y-68161749D01*
X97719664Y-68197401D01*
X97714703Y-68198357D01*
X97634009Y-68219979D01*
X97634004Y-68219982D01*
X97565495Y-68259535D01*
X97565487Y-68259541D01*
X97509541Y-68315487D01*
X97509535Y-68315495D01*
X97469982Y-68384004D01*
X97469979Y-68384009D01*
X97449500Y-68460439D01*
X97449500Y-71575500D01*
X97429815Y-71642539D01*
X97377011Y-71688294D01*
X97325500Y-71699500D01*
X97039562Y-71699500D01*
X96960438Y-71699500D01*
X96922224Y-71709739D01*
X96884009Y-71719979D01*
X96884004Y-71719982D01*
X96815495Y-71759535D01*
X96815487Y-71759541D01*
X96759541Y-71815487D01*
X96759535Y-71815495D01*
X96719982Y-71884004D01*
X96719979Y-71884009D01*
X96706326Y-71934962D01*
X96699500Y-71960438D01*
X96699500Y-73460438D01*
X96699500Y-73539562D01*
X96713152Y-73590513D01*
X96719979Y-73615990D01*
X96719982Y-73615995D01*
X96759535Y-73684504D01*
X96759539Y-73684509D01*
X96759540Y-73684511D01*
X96815489Y-73740460D01*
X96815491Y-73740461D01*
X96815495Y-73740464D01*
X96884004Y-73780017D01*
X96884011Y-73780021D01*
X96960438Y-73800500D01*
X97325500Y-73800500D01*
X97392539Y-73820185D01*
X97438294Y-73872989D01*
X97449500Y-73924500D01*
X97449500Y-74575500D01*
X97429815Y-74642539D01*
X97377011Y-74688294D01*
X97325500Y-74699500D01*
X89674500Y-74699500D01*
X89607461Y-74679815D01*
X89561706Y-74627011D01*
X89550500Y-74575500D01*
X89550500Y-69960439D01*
X89530020Y-69884009D01*
X89530017Y-69884004D01*
X89490464Y-69815495D01*
X89490458Y-69815487D01*
X89434512Y-69759541D01*
X89434504Y-69759535D01*
X89365995Y-69719982D01*
X89365990Y-69719979D01*
X89340513Y-69713152D01*
X89289562Y-69699500D01*
X88289562Y-69699500D01*
X88210438Y-69699500D01*
X88172224Y-69709739D01*
X88134009Y-69719979D01*
X88134004Y-69719982D01*
X88065495Y-69759535D01*
X88065487Y-69759541D01*
X88009541Y-69815487D01*
X88009535Y-69815495D01*
X87969982Y-69884004D01*
X87969979Y-69884009D01*
X87949500Y-69960439D01*
X87949500Y-74575500D01*
X87929815Y-74642539D01*
X87877011Y-74688294D01*
X87825500Y-74699500D01*
X82674500Y-74699500D01*
X82607461Y-74679815D01*
X82561706Y-74627011D01*
X82550500Y-74575500D01*
X82550500Y-73924500D01*
X82570185Y-73857461D01*
X82622989Y-73811706D01*
X82674500Y-73800500D01*
X83039560Y-73800500D01*
X83039562Y-73800500D01*
X83115989Y-73780021D01*
X83184511Y-73740460D01*
X83240460Y-73684511D01*
X83280021Y-73615989D01*
X83300500Y-73539562D01*
X83300500Y-71960438D01*
X83280021Y-71884011D01*
X83280017Y-71884004D01*
X83240464Y-71815495D01*
X83240458Y-71815487D01*
X83184512Y-71759541D01*
X83184504Y-71759535D01*
X83115995Y-71719982D01*
X83115990Y-71719979D01*
X83090513Y-71713152D01*
X83039562Y-71699500D01*
X83039560Y-71699500D01*
X82674500Y-71699500D01*
X82607461Y-71679815D01*
X82561706Y-71627011D01*
X82550500Y-71575500D01*
X82550500Y-68665513D01*
X82570185Y-68598474D01*
X82622989Y-68552719D01*
X82642402Y-68545739D01*
X82717696Y-68525565D01*
X82846304Y-68451313D01*
X82951313Y-68346304D01*
X82951313Y-68346302D01*
X82961517Y-68336099D01*
X82961521Y-68336094D01*
X83336094Y-67961521D01*
X83336099Y-67961517D01*
X83346302Y-67951313D01*
X83346304Y-67951313D01*
X83451313Y-67846304D01*
X83525565Y-67717696D01*
X83539662Y-67665084D01*
X83564001Y-67574252D01*
X83564001Y-67425747D01*
X83564001Y-67418152D01*
X83564000Y-67418134D01*
X83564000Y-66175750D01*
X83564000Y-66175748D01*
X83534727Y-66066497D01*
X83536390Y-65996650D01*
X83575553Y-65938788D01*
X83639781Y-65911284D01*
X83695454Y-65917364D01*
X83836420Y-65966691D01*
X83836426Y-65966691D01*
X83836427Y-65966692D01*
X83999996Y-65985122D01*
X84000000Y-65985122D01*
X84000004Y-65985122D01*
X84163574Y-65966692D01*
X84163575Y-65966691D01*
X84163580Y-65966691D01*
X84318957Y-65912322D01*
X84458341Y-65824742D01*
X84574742Y-65708341D01*
X84662322Y-65568957D01*
X84716691Y-65413580D01*
X84724492Y-65344347D01*
X84735122Y-65250003D01*
X84735122Y-65249996D01*
X84716692Y-65086425D01*
X84716691Y-65086423D01*
X84716691Y-65086420D01*
X84662322Y-64931043D01*
X84662321Y-64931041D01*
X84662320Y-64931039D01*
X84583006Y-64804810D01*
X84564000Y-64738839D01*
X84564000Y-52784978D01*
X84583685Y-52717939D01*
X84600319Y-52697297D01*
X85759871Y-51537745D01*
X85759882Y-51537732D01*
X86447298Y-50850319D01*
X86508621Y-50816834D01*
X86534979Y-50814000D01*
X93339021Y-50814000D01*
X93406060Y-50833685D01*
G37*
%TD.AperFunction*%
%TA.AperFunction,Conductor*%
G36*
X92088978Y-45320185D02*
G01*
X92134733Y-45372989D01*
X92144677Y-45442147D01*
X92115652Y-45505703D01*
X92062894Y-45541540D01*
X92016793Y-45557672D01*
X91931046Y-45587676D01*
X91931044Y-45587677D01*
X91791658Y-45675258D01*
X91675258Y-45791658D01*
X91587677Y-45931044D01*
X91587676Y-45931046D01*
X91533307Y-46086425D01*
X91514878Y-46249996D01*
X91514878Y-46250003D01*
X91533307Y-46413574D01*
X91587676Y-46568953D01*
X91587677Y-46568955D01*
X91587678Y-46568957D01*
X91675258Y-46708341D01*
X91791659Y-46824742D01*
X91931043Y-46912322D01*
X92086420Y-46966691D01*
X92086423Y-46966691D01*
X92086425Y-46966692D01*
X92249996Y-46985122D01*
X92250000Y-46985122D01*
X92250004Y-46985122D01*
X92413574Y-46966692D01*
X92413575Y-46966691D01*
X92413580Y-46966691D01*
X92568957Y-46912322D01*
X92695189Y-46833005D01*
X92761160Y-46814000D01*
X95215022Y-46814000D01*
X95282061Y-46833685D01*
X95302703Y-46850319D01*
X96899681Y-48447297D01*
X96933166Y-48508620D01*
X96936000Y-48534978D01*
X96936000Y-61965020D01*
X96916315Y-62032059D01*
X96899681Y-62052701D01*
X96666626Y-62285755D01*
X96666627Y-62285756D01*
X96568684Y-62383699D01*
X96516299Y-62474434D01*
X96516299Y-62474435D01*
X96494433Y-62512305D01*
X96478172Y-62572999D01*
X96478172Y-62573000D01*
X96456000Y-62655748D01*
X96456000Y-63632052D01*
X96436315Y-63699091D01*
X96383511Y-63744846D01*
X96314353Y-63754790D01*
X96250797Y-63725765D01*
X96224613Y-63694053D01*
X96207019Y-63663580D01*
X96201313Y-63653696D01*
X96096304Y-63548687D01*
X96091973Y-63544356D01*
X96091962Y-63544346D01*
X95708383Y-63160767D01*
X95708381Y-63160764D01*
X95596306Y-63048689D01*
X95596304Y-63048687D01*
X95510565Y-62999185D01*
X95467698Y-62974436D01*
X95467697Y-62974435D01*
X95467696Y-62974435D01*
X95324253Y-62936000D01*
X95324252Y-62936000D01*
X94784978Y-62936000D01*
X94717939Y-62916315D01*
X94697297Y-62899681D01*
X94600319Y-62802703D01*
X94566834Y-62741380D01*
X94564000Y-62715022D01*
X94564000Y-55483969D01*
X94583685Y-55416930D01*
X94622029Y-55378975D01*
X94708338Y-55324744D01*
X94708338Y-55324743D01*
X94708341Y-55324742D01*
X94824742Y-55208341D01*
X94912322Y-55068957D01*
X94966691Y-54913580D01*
X94966692Y-54913574D01*
X94985122Y-54750003D01*
X94985122Y-54749996D01*
X94966692Y-54586425D01*
X94966691Y-54586423D01*
X94966691Y-54586420D01*
X94912322Y-54431043D01*
X94824742Y-54291659D01*
X94708341Y-54175258D01*
X94568957Y-54087678D01*
X94568956Y-54087677D01*
X94568955Y-54087677D01*
X94568953Y-54087676D01*
X94413574Y-54033307D01*
X94250004Y-54014878D01*
X94250002Y-54014878D01*
X94250000Y-54014878D01*
X94238252Y-54016201D01*
X94201881Y-54020299D01*
X94133060Y-54008243D01*
X94081681Y-53960892D01*
X94064000Y-53897078D01*
X94064000Y-53034977D01*
X94083685Y-52967938D01*
X94100315Y-52947300D01*
X94789749Y-52257865D01*
X94851070Y-52224382D01*
X94863526Y-52222330D01*
X94913580Y-52216691D01*
X94913584Y-52216689D01*
X94913587Y-52216689D01*
X95068948Y-52162326D01*
X95068951Y-52162323D01*
X95068957Y-52162322D01*
X95208341Y-52074742D01*
X95324742Y-51958341D01*
X95412322Y-51818957D01*
X95466691Y-51663580D01*
X95474271Y-51596304D01*
X95485122Y-51500003D01*
X95485122Y-51499996D01*
X95466692Y-51336425D01*
X95466691Y-51336423D01*
X95466691Y-51336420D01*
X95412322Y-51181043D01*
X95408146Y-51174397D01*
X95389146Y-51107164D01*
X95409512Y-51040328D01*
X95462780Y-50995113D01*
X95499257Y-50985206D01*
X95663574Y-50966692D01*
X95663575Y-50966691D01*
X95663580Y-50966691D01*
X95818957Y-50912322D01*
X95958341Y-50824742D01*
X96074742Y-50708341D01*
X96162322Y-50568957D01*
X96216691Y-50413580D01*
X96216692Y-50413574D01*
X96235122Y-50250003D01*
X96235122Y-50249996D01*
X96216692Y-50086425D01*
X96216691Y-50086423D01*
X96216691Y-50086420D01*
X96162322Y-49931043D01*
X96074742Y-49791659D01*
X95958341Y-49675258D01*
X95818957Y-49587678D01*
X95818956Y-49587677D01*
X95818955Y-49587677D01*
X95818953Y-49587676D01*
X95663574Y-49533307D01*
X95500004Y-49514878D01*
X95499996Y-49514878D01*
X95336425Y-49533307D01*
X95181046Y-49587676D01*
X95181044Y-49587677D01*
X95127516Y-49621310D01*
X95054810Y-49666994D01*
X94988840Y-49686000D01*
X86331865Y-49686000D01*
X86331849Y-49685999D01*
X86324253Y-49685999D01*
X86175748Y-49685999D01*
X86044063Y-49721284D01*
X86032300Y-49724436D01*
X85903699Y-49798684D01*
X85903693Y-49798689D01*
X85205414Y-50496968D01*
X85144091Y-50530453D01*
X85074399Y-50525469D01*
X85030052Y-50496969D01*
X85004441Y-50471358D01*
X84958341Y-50425258D01*
X84818957Y-50337678D01*
X84818956Y-50337677D01*
X84818955Y-50337677D01*
X84818953Y-50337676D01*
X84663574Y-50283307D01*
X84500004Y-50264878D01*
X84499996Y-50264878D01*
X84336425Y-50283307D01*
X84181046Y-50337676D01*
X84181044Y-50337677D01*
X84041658Y-50425258D01*
X83925258Y-50541658D01*
X83837677Y-50681044D01*
X83837676Y-50681046D01*
X83783307Y-50836425D01*
X83777670Y-50886455D01*
X83750602Y-50950868D01*
X83742131Y-50960250D01*
X82403698Y-52298685D01*
X82298689Y-52403693D01*
X82298685Y-52403699D01*
X82224436Y-52532301D01*
X82224435Y-52532304D01*
X82186000Y-52675748D01*
X82186000Y-66074252D01*
X82224435Y-66217696D01*
X82292110Y-66334913D01*
X82298685Y-66346300D01*
X82298688Y-66346305D01*
X82399681Y-66447298D01*
X82433166Y-66508621D01*
X82436000Y-66534979D01*
X82436000Y-67215022D01*
X82416315Y-67282061D01*
X82399685Y-67302698D01*
X82350137Y-67352247D01*
X82338930Y-67363454D01*
X82277606Y-67396938D01*
X82207914Y-67391953D01*
X82185278Y-67380766D01*
X82068960Y-67307679D01*
X82068953Y-67307676D01*
X81913574Y-67253307D01*
X81750004Y-67234878D01*
X81749996Y-67234878D01*
X81586425Y-67253307D01*
X81431046Y-67307676D01*
X81431044Y-67307677D01*
X81291658Y-67395258D01*
X81175258Y-67511658D01*
X81087677Y-67651044D01*
X81087676Y-67651046D01*
X81041542Y-67782892D01*
X81000820Y-67839668D01*
X80935867Y-67865416D01*
X80867306Y-67851960D01*
X80816903Y-67803573D01*
X80800500Y-67741938D01*
X80800500Y-65392238D01*
X80765025Y-65179649D01*
X80729099Y-65075000D01*
X80695045Y-64975805D01*
X80637663Y-64869772D01*
X80613810Y-64825695D01*
X80599215Y-64757367D01*
X80623878Y-64691995D01*
X80635170Y-64679011D01*
X80693711Y-64620471D01*
X80766712Y-64494029D01*
X80804500Y-64353001D01*
X80804500Y-64206999D01*
X80766712Y-64065971D01*
X80693711Y-63939529D01*
X80676863Y-63922681D01*
X80643378Y-63861358D01*
X80648362Y-63791666D01*
X80676863Y-63747319D01*
X80682934Y-63741248D01*
X80693711Y-63730471D01*
X80766712Y-63604029D01*
X80804500Y-63463001D01*
X80804500Y-63316999D01*
X80766712Y-63175971D01*
X80693711Y-63049529D01*
X80676863Y-63032681D01*
X80643378Y-62971358D01*
X80648362Y-62901666D01*
X80676863Y-62857319D01*
X80693711Y-62840471D01*
X80766712Y-62714029D01*
X80804500Y-62573001D01*
X80804500Y-62426999D01*
X80766712Y-62285971D01*
X80730211Y-62222750D01*
X80693713Y-62159532D01*
X80693709Y-62159527D01*
X80666526Y-62132344D01*
X80633041Y-62071021D01*
X80638025Y-62001329D01*
X80666523Y-61956985D01*
X80690839Y-61932670D01*
X80763840Y-61806228D01*
X80801628Y-61665200D01*
X80801628Y-61519198D01*
X80763840Y-61378170D01*
X80701118Y-61269532D01*
X80690841Y-61251731D01*
X80690837Y-61251726D01*
X80684327Y-61245216D01*
X80650842Y-61183893D01*
X80655826Y-61114201D01*
X80684331Y-61069850D01*
X80693711Y-61060471D01*
X80766712Y-60934029D01*
X80804500Y-60793001D01*
X80804500Y-60646999D01*
X80766712Y-60505971D01*
X80693711Y-60379529D01*
X80635182Y-60321000D01*
X80601699Y-60259677D01*
X80606684Y-60189986D01*
X80613811Y-60174302D01*
X80695040Y-60024205D01*
X80695042Y-60024201D01*
X80695045Y-60024195D01*
X80765026Y-59820348D01*
X80800500Y-59607762D01*
X80800500Y-59500000D01*
X80800500Y-59452405D01*
X80800500Y-52960438D01*
X80800500Y-52892238D01*
X80765026Y-52679652D01*
X80695045Y-52475805D01*
X80656023Y-52403699D01*
X80613810Y-52325695D01*
X80599215Y-52257367D01*
X80623878Y-52191995D01*
X80635170Y-52179011D01*
X80693711Y-52120471D01*
X80766712Y-51994029D01*
X80804500Y-51853001D01*
X80804500Y-51706999D01*
X80766712Y-51565971D01*
X80693711Y-51439529D01*
X80676863Y-51422681D01*
X80643378Y-51361358D01*
X80648362Y-51291666D01*
X80676863Y-51247319D01*
X80693711Y-51230471D01*
X80766712Y-51104029D01*
X80804500Y-50963001D01*
X80804500Y-50816999D01*
X80766712Y-50675971D01*
X80704927Y-50568955D01*
X80693713Y-50549532D01*
X80693709Y-50549527D01*
X80676863Y-50532681D01*
X80643378Y-50471358D01*
X80648362Y-50401666D01*
X80676863Y-50357319D01*
X80693711Y-50340471D01*
X80766712Y-50214029D01*
X80804500Y-50073001D01*
X80804500Y-49926999D01*
X80766712Y-49785971D01*
X80708994Y-49686000D01*
X80693713Y-49659532D01*
X80693709Y-49659527D01*
X80666526Y-49632344D01*
X80633041Y-49571021D01*
X80638025Y-49501329D01*
X80666523Y-49456985D01*
X80690839Y-49432670D01*
X80763840Y-49306228D01*
X80801628Y-49165200D01*
X80801628Y-49019198D01*
X80763840Y-48878170D01*
X80701118Y-48769532D01*
X80690841Y-48751731D01*
X80690837Y-48751726D01*
X80684327Y-48745216D01*
X80650842Y-48683893D01*
X80655826Y-48614201D01*
X80684331Y-48569850D01*
X80693711Y-48560471D01*
X80766712Y-48434029D01*
X80804500Y-48293001D01*
X80804500Y-48146999D01*
X80766712Y-48005971D01*
X80730211Y-47942750D01*
X80693713Y-47879532D01*
X80693712Y-47879531D01*
X80693711Y-47879529D01*
X80635182Y-47821000D01*
X80601699Y-47759677D01*
X80606684Y-47689986D01*
X80613811Y-47674302D01*
X80695040Y-47524205D01*
X80695042Y-47524201D01*
X80695045Y-47524195D01*
X80765026Y-47320348D01*
X80800500Y-47107762D01*
X80800500Y-47000000D01*
X80800500Y-46952405D01*
X80800500Y-45424500D01*
X80820185Y-45357461D01*
X80872989Y-45311706D01*
X80924500Y-45300500D01*
X92021939Y-45300500D01*
X92088978Y-45320185D01*
G37*
%TD.AperFunction*%
%TA.AperFunction,Conductor*%
G36*
X98540000Y-65719159D02*
G01*
X98674534Y-65678349D01*
X98848260Y-65585491D01*
X98996835Y-65463559D01*
X99061145Y-65436246D01*
X99130012Y-65448037D01*
X99181572Y-65495189D01*
X99199500Y-65559412D01*
X99199500Y-66838769D01*
X99179815Y-66905808D01*
X99127011Y-66951563D01*
X99057853Y-66961507D01*
X98994297Y-66932482D01*
X98987819Y-66926450D01*
X98478420Y-66417051D01*
X98372539Y-66346305D01*
X98372537Y-66346302D01*
X98355499Y-66334919D01*
X98355495Y-66334916D01*
X98355493Y-66334915D01*
X98355490Y-66334913D01*
X98218917Y-66278343D01*
X98218907Y-66278340D01*
X98073920Y-66249500D01*
X98073918Y-66249500D01*
X92676082Y-66249500D01*
X92676080Y-66249500D01*
X92531092Y-66278340D01*
X92531082Y-66278343D01*
X92394511Y-66334912D01*
X92394498Y-66334919D01*
X92271584Y-66417048D01*
X92271580Y-66417051D01*
X92167051Y-66521580D01*
X92167048Y-66521584D01*
X92084919Y-66644498D01*
X92084912Y-66644511D01*
X92028343Y-66781082D01*
X92028340Y-66781092D01*
X91999500Y-66926079D01*
X91999500Y-66977277D01*
X91979815Y-67044316D01*
X91927011Y-67090071D01*
X91857853Y-67100015D01*
X91821712Y-67089004D01*
X91812697Y-67084664D01*
X91813826Y-67082318D01*
X91766755Y-67048544D01*
X91741020Y-66983586D01*
X91740500Y-66972242D01*
X91740500Y-65874499D01*
X91760185Y-65807460D01*
X91812989Y-65761705D01*
X91864500Y-65750499D01*
X92487871Y-65750499D01*
X92487872Y-65750499D01*
X92547483Y-65744091D01*
X92682331Y-65693796D01*
X92690379Y-65687770D01*
X92755842Y-65663351D01*
X92819474Y-65676895D01*
X92819645Y-65676483D01*
X92821875Y-65677406D01*
X92823146Y-65677677D01*
X92825273Y-65678814D01*
X93013868Y-65736024D01*
X93210000Y-65755341D01*
X93406132Y-65736024D01*
X93594727Y-65678814D01*
X93768538Y-65585910D01*
X93768544Y-65585904D01*
X93773607Y-65582523D01*
X93774703Y-65584164D01*
X93830639Y-65560405D01*
X93899507Y-65572194D01*
X93916148Y-65582888D01*
X93916393Y-65582523D01*
X93921458Y-65585907D01*
X93921462Y-65585910D01*
X94062357Y-65661220D01*
X94093147Y-65677678D01*
X94095273Y-65678814D01*
X94283868Y-65736024D01*
X94480000Y-65755341D01*
X94676132Y-65736024D01*
X94864727Y-65678814D01*
X95038538Y-65585910D01*
X95038544Y-65585904D01*
X95043607Y-65582523D01*
X95044703Y-65584164D01*
X95100639Y-65560405D01*
X95169507Y-65572194D01*
X95186148Y-65582888D01*
X95186393Y-65582523D01*
X95191458Y-65585907D01*
X95191462Y-65585910D01*
X95332357Y-65661220D01*
X95363147Y-65677678D01*
X95365273Y-65678814D01*
X95553868Y-65736024D01*
X95750000Y-65755341D01*
X95946132Y-65736024D01*
X96134727Y-65678814D01*
X96308538Y-65585910D01*
X96308544Y-65585904D01*
X96313607Y-65582523D01*
X96314703Y-65584164D01*
X96370639Y-65560405D01*
X96439507Y-65572194D01*
X96456148Y-65582888D01*
X96456393Y-65582523D01*
X96461458Y-65585907D01*
X96461462Y-65585910D01*
X96602357Y-65661220D01*
X96633147Y-65677678D01*
X96635273Y-65678814D01*
X96823868Y-65736024D01*
X97020000Y-65755341D01*
X97216132Y-65736024D01*
X97404727Y-65678814D01*
X97578538Y-65585910D01*
X97578544Y-65585904D01*
X97583607Y-65582523D01*
X97584624Y-65584045D01*
X97641021Y-65560084D01*
X97709890Y-65571866D01*
X97726424Y-65582489D01*
X97726678Y-65582110D01*
X97731738Y-65585491D01*
X97905465Y-65678349D01*
X98040000Y-65719159D01*
X98040000Y-64959618D01*
X98090446Y-65010064D01*
X98164555Y-65052851D01*
X98247213Y-65075000D01*
X98332787Y-65075000D01*
X98415445Y-65052851D01*
X98489554Y-65010064D01*
X98540000Y-64959618D01*
X98540000Y-65719159D01*
G37*
%TD.AperFunction*%
%TA.AperFunction,Conductor*%
G36*
X99142539Y-45320185D02*
G01*
X99188294Y-45372989D01*
X99199500Y-45424500D01*
X99199500Y-47107761D01*
X99234974Y-47320350D01*
X99304952Y-47524187D01*
X99304958Y-47524201D01*
X99386189Y-47674303D01*
X99400784Y-47742631D01*
X99376121Y-47808003D01*
X99364817Y-47821000D01*
X99306287Y-47879531D01*
X99306286Y-47879532D01*
X99233289Y-48005968D01*
X99233288Y-48005971D01*
X99195500Y-48146999D01*
X99195500Y-48293000D01*
X99233288Y-48434028D01*
X99233289Y-48434031D01*
X99306286Y-48560467D01*
X99306291Y-48560473D01*
X99323138Y-48577321D01*
X99356622Y-48638645D01*
X99351636Y-48708336D01*
X99323138Y-48752679D01*
X99306291Y-48769526D01*
X99306286Y-48769532D01*
X99233289Y-48895968D01*
X99233288Y-48895971D01*
X99195500Y-49036999D01*
X99195500Y-49183001D01*
X99228519Y-49306228D01*
X99233288Y-49324028D01*
X99233289Y-49324031D01*
X99306286Y-49450467D01*
X99306291Y-49450473D01*
X99323138Y-49467321D01*
X99356622Y-49528645D01*
X99351636Y-49598336D01*
X99323138Y-49642679D01*
X99306291Y-49659526D01*
X99306286Y-49659532D01*
X99233289Y-49785968D01*
X99233288Y-49785971D01*
X99195500Y-49926999D01*
X99195500Y-50073000D01*
X99233288Y-50214028D01*
X99233289Y-50214031D01*
X99306286Y-50340467D01*
X99306291Y-50340473D01*
X99323138Y-50357321D01*
X99356622Y-50418645D01*
X99351636Y-50488336D01*
X99323138Y-50532679D01*
X99306291Y-50549526D01*
X99306286Y-50549532D01*
X99233289Y-50675968D01*
X99233288Y-50675971D01*
X99195500Y-50816999D01*
X99195500Y-50963001D01*
X99204105Y-50995113D01*
X99233288Y-51104028D01*
X99233289Y-51104031D01*
X99306286Y-51230467D01*
X99306291Y-51230473D01*
X99323138Y-51247321D01*
X99356622Y-51308645D01*
X99351636Y-51378336D01*
X99323138Y-51422679D01*
X99306291Y-51439526D01*
X99306286Y-51439532D01*
X99233289Y-51565968D01*
X99233288Y-51565971D01*
X99195500Y-51706999D01*
X99195500Y-51853000D01*
X99233288Y-51994028D01*
X99233289Y-51994031D01*
X99306286Y-52120467D01*
X99306290Y-52120472D01*
X99364815Y-52178997D01*
X99398300Y-52240320D01*
X99393316Y-52310012D01*
X99386189Y-52325695D01*
X99304958Y-52475798D01*
X99304952Y-52475812D01*
X99234974Y-52679649D01*
X99199500Y-52892238D01*
X99199500Y-59607761D01*
X99234974Y-59820350D01*
X99304952Y-60024187D01*
X99304958Y-60024201D01*
X99386189Y-60174303D01*
X99400784Y-60242631D01*
X99376121Y-60308003D01*
X99364817Y-60321000D01*
X99306287Y-60379531D01*
X99306286Y-60379532D01*
X99233289Y-60505968D01*
X99233288Y-60505971D01*
X99195500Y-60646999D01*
X99195500Y-60793000D01*
X99233288Y-60934028D01*
X99233289Y-60934031D01*
X99306286Y-61060467D01*
X99306291Y-61060473D01*
X99323138Y-61077321D01*
X99356622Y-61138645D01*
X99351636Y-61208336D01*
X99323138Y-61252679D01*
X99306291Y-61269526D01*
X99306286Y-61269532D01*
X99233289Y-61395968D01*
X99233288Y-61395971D01*
X99195500Y-61536999D01*
X99195500Y-61683001D01*
X99228519Y-61806228D01*
X99233288Y-61824028D01*
X99233289Y-61824031D01*
X99306286Y-61950467D01*
X99306291Y-61950473D01*
X99323138Y-61967321D01*
X99356622Y-62028645D01*
X99351636Y-62098336D01*
X99323138Y-62142679D01*
X99306291Y-62159526D01*
X99306286Y-62159532D01*
X99233289Y-62285968D01*
X99233288Y-62285971D01*
X99195500Y-62426999D01*
X99195500Y-62573001D01*
X99217672Y-62655748D01*
X99233288Y-62714028D01*
X99233289Y-62714031D01*
X99306286Y-62840467D01*
X99306291Y-62840473D01*
X99323138Y-62857321D01*
X99356622Y-62918645D01*
X99351636Y-62988336D01*
X99323138Y-63032679D01*
X99306291Y-63049526D01*
X99306286Y-63049532D01*
X99233289Y-63175968D01*
X99233288Y-63175971D01*
X99195500Y-63316999D01*
X99195500Y-63463001D01*
X99218460Y-63548687D01*
X99233288Y-63604028D01*
X99233289Y-63604031D01*
X99306286Y-63730467D01*
X99306291Y-63730473D01*
X99323138Y-63747321D01*
X99356622Y-63808645D01*
X99351636Y-63878336D01*
X99323138Y-63922679D01*
X99306291Y-63939526D01*
X99306286Y-63939532D01*
X99235726Y-64061747D01*
X99185159Y-64109963D01*
X99116552Y-64123186D01*
X99051687Y-64097218D01*
X99032486Y-64078412D01*
X99000528Y-64039471D01*
X98848260Y-63914507D01*
X98848253Y-63914503D01*
X98674541Y-63821652D01*
X98540000Y-63780839D01*
X98540000Y-64540382D01*
X98489554Y-64489936D01*
X98415445Y-64447149D01*
X98332787Y-64425000D01*
X98247213Y-64425000D01*
X98164555Y-64447149D01*
X98090446Y-64489936D01*
X98040000Y-64540382D01*
X98040000Y-63780839D01*
X98039999Y-63780839D01*
X97905463Y-63821651D01*
X97766453Y-63895953D01*
X97698050Y-63910194D01*
X97632806Y-63885194D01*
X97591436Y-63828888D01*
X97584000Y-63786594D01*
X97584000Y-63014978D01*
X97603685Y-62947939D01*
X97620319Y-62927297D01*
X97744913Y-62802703D01*
X97951313Y-62596304D01*
X98025565Y-62467696D01*
X98064001Y-62324252D01*
X98064001Y-62175747D01*
X98064001Y-62168152D01*
X98064000Y-62168134D01*
X98064000Y-48175750D01*
X98064000Y-48175748D01*
X98025565Y-48032304D01*
X97951313Y-47903696D01*
X97846304Y-47798687D01*
X97846303Y-47798686D01*
X97841973Y-47794356D01*
X97841962Y-47794346D01*
X95958383Y-45910767D01*
X95958381Y-45910764D01*
X95846306Y-45798689D01*
X95846304Y-45798687D01*
X95717696Y-45724435D01*
X95574253Y-45686000D01*
X95574252Y-45686000D01*
X92761160Y-45686000D01*
X92695189Y-45666994D01*
X92568957Y-45587678D01*
X92568956Y-45587677D01*
X92568955Y-45587677D01*
X92568953Y-45587676D01*
X92497722Y-45562751D01*
X92437105Y-45541541D01*
X92380331Y-45500820D01*
X92354583Y-45435868D01*
X92368039Y-45367306D01*
X92416426Y-45316903D01*
X92478061Y-45300500D01*
X99075500Y-45300500D01*
X99142539Y-45320185D01*
G37*
%TD.AperFunction*%
%TD*%
M02*
